{
.appVersion = "1206";
copyright = "Copyright © 2019 by Noir Blanc Rouge. All rights reserved.";
customParameters = (
{
name = glyphOrder;
value = (
.notdef,
.null,
CR,
space,
A,
B,
C,
D,
E,
F,
G,
H,
I,
J,
K,
L,
M,
N,
O,
P,
Q,
R,
S,
T,
U,
V,
W,
X,
Y,
Z,
bracketleft,
backslash,
bracketright,
a,
b,
c,
d,
e,
f,
h,
g,
i,
j,
k,
l,
m,
n,
o,
p,
q,
r,
s,
t,
u,
v,
w,
x,
y,
z,
zero,
one,
two,
three,
four,
six,
five,
seven,
eight,
nine,
grave,
agrave,
asciicircum,
circumflex,
acircumflex,
acute,
dieresis,
ccedilla,
_0015,
Egrave,
Eacute,
Ecircumflex,
Edieresis,
Igrave,
Iacute,
Icircumflex,
Idieresis,
Ograve,
Oacute,
Ocircumflex,
Odieresis,
Ugrave,
Uacute,
Ucircumflex,
Udieresis,
Yacute,
aacute,
atilde,
adieresis,
egrave,
eacute,
ecircumflex,
edieresis,
igrave,
iacute,
idieresis,
ograve,
oacute,
ocircumflex,
odieresis,
ugrave,
uacute,
ucircumflex,
udieresis,
yacute,
ydieresis,
AE,
Ccedilla,
fi,
ampersand,
parenleft,
parenright,
slash,
ae,
OE,
oe,
icircumflex,
section,
dagger,
hyphen,
guillemotleft,
guillemotright,
asterisk,
colon,
semicolon,
comma,
question,
exclam,
less,
greater,
equal,
plus,
period,
underscore,
bar,
fl,
guilsinglleft,
guilsinglright,
asciitilde,
tilde,
Otilde,
Ntilde,
ntilde,
otilde,
ring,
aring,
caron,
Ydieresis,
exclamdown,
Zcaron,
zcaron,
dotlessi,
Lslash,
lslash,
quotesingle,
quotedbl,
fraction,
twosuperior,
threesuperior,
onesuperior,
ordmasculine,
onequarter,
onehalf,
threequarters,
questiondown,
cedilla,
periodcentered,
bullet,
numbersign,
dollar,
percent,
at,
_0024,
ff,
mu,
Agrave,
Aacute,
Acircumflex,
Atilde,
Adieresis,
florin,
Aring,
multiply,
Oslash,
oslash,
endash,
emdash,
divide,
scaron,
cent,
Euro,
ellipsis,
quotesinglbase,
quoteleft,
quoteright,
quotedblleft,
quotedblright,
trademark,
yen,
daggerdbl,
Scaron,
hungarumlaut,
copyright,
ordfeminine,
logicalnot,
minus,
registered,
degree,
plusminus,
macron,
eth,
Eth,
paragraph,
braceleft,
braceright,
thorn,
germandbls,
Thorn,
sterling,
currency,
brokenbar,
perthousand,
quotedblbase,
ogonek,

glyphs = (
{
glyphname = A;
layers = (
{
layerId = "7C3BCDA4-8F92-4DF1-91BA-B714BE37B8B5";
paths = (
{
closed = 1;
nodes = (
"426 446 OFFCURVE",
"420 448 OFFCURVE",
"418 455 CURVE",
"415 468 OFFCURVE",
"409 478 OFFCURVE",
"406 490 CURVE",
"397 502 OFFCURVE",
"390 515 OFFCURVE",
"387 533 CURVE",
"380 542 OFFCURVE",
"374 552 OFFCURVE",
"370 563 CURVE",
"365 574 OFFCURVE",
"359 583 OFFCURVE",
"354 594 CURVE SMOOTH",
"349 605 OFFCURVE",
"342 614 OFFCURVE",
"340 627 CURVE",
"333 637 OFFCURVE",
"328 648 OFFCURVE",
"313 649 CURVE",
"305 648 OFFCURVE",
"304 640 OFFCURVE",
"300 635 CURVE",
"300 627 OFFCURVE",
"293 624 OFFCURVE",
"292 616 CURVE",
"280 603 OFFCURVE",
"273 585 OFFCURVE",
"267 566 CURVE",
"261 559 OFFCURVE",
"258 549 OFFCURVE",
"254 540 CURVE",
"249 532 OFFCURVE",
"247 522 OFFCURVE",
"240 515 CURVE",
"240 503 OFFCURVE",
"231 491 OFFCURVE",
"228 484 CURVE",
"226 476 LINE",
"225 474 OFFCURVE",
"222 473 OFFCURVE",
"221 471 CURVE SMOOTH",
"220 469 OFFCURVE",
"221 465 OFFCURVE",
"220 463 CURVE SMOOTH",
"216 455 OFFCURVE",
"210 449 OFFCURVE",
"206 441 CURVE",
"201 433 OFFCURVE",
"199 424 OFFCURVE",
"193 417 CURVE",
"193 410 OFFCURVE",
"188 406 OFFCURVE",
"188 399 CURVE",
"179 387 OFFCURVE",
"175 371 OFFCURVE",
"166 359 CURVE",
"163 345 OFFCURVE",
"157 334 OFFCURVE",
"150 323 CURVE",
"151 313 OFFCURVE",
"143 309 OFFCURVE",
"141 304 CURVE",
"137 296 OFFCURVE",
"136 290 OFFCURVE",
"133 283 CURVE",
"131 279 OFFCURVE",
"127 275 OFFCURVE",
"125 271 CURVE SMOOTH",
"124 269 OFFCURVE",
"125 265 OFFCURVE",
"124 263 CURVE SMOOTH",
"123 261 OFFCURVE",
"120 260 OFFCURVE",
"119 258 CURVE",
"113 244 LINE",
"108 235 OFFCURVE",
"105 226 OFFCURVE",
"100 217 CURVE SMOOTH",
"97 212 OFFCURVE",
"94 206 OFFCURVE",
"92 200 CURVE",
"91 195 OFFCURVE",
"88 192 OFFCURVE",
"86 187 CURVE",
"83 182 OFFCURVE",
"83 177 OFFCURVE",
"81 172 CURVE",
"77 163 OFFCURVE",
"69 156 OFFCURVE",
"68 145 CURVE",
"51 110 LINE SMOOTH",
"45 98 OFFCURVE",
"38 86 OFFCURVE",
"35 72 CURVE",
"28 65 OFFCURVE",
"24 54 OFFCURVE",
"18 45 CURVE",
"14 35 OFFCURVE",
"6 27 OFFCURVE",
"9 9 CURVE",
"15 -2 OFFCURVE",
"29 -7 OFFCURVE",
"45 -7 CURVE",
"55 -6 OFFCURVE",
"66 -1 OFFCURVE",
"76 -2 CURVE",
"84 6 OFFCURVE",
"93 12 OFFCURVE",
"98 22 CURVE",
"102 27 OFFCURVE",
"102 35 OFFCURVE",
"105 41 CURVE",
"114 53 OFFCURVE",
"118 69 OFFCURVE",
"128 80 CURVE",
"129 90 OFFCURVE",
"134 94 OFFCURVE",
"135 104 CURVE",
"147 120 LINE",
"151 137 OFFCURVE",
"154 154 OFFCURVE",
"169 159 CURVE",
"182 161 OFFCURVE",
"195 159 OFFCURVE",
"207 159 CURVE SMOOTH",
"245 159 OFFCURVE",
"286 162 OFFCURVE",
"330 161 CURVE SMOOTH",
"336 161 OFFCURVE",
"341 163 OFFCURVE",
"346 164 CURVE",
"363 159 OFFCURVE",
"382 164 OFFCURVE",
"403 164 CURVE SMOOTH",
"423 164 OFFCURVE",
"443 161 OFFCURVE",
"464 162 CURVE",
"474 157 OFFCURVE",
"477 144 OFFCURVE",
"481 135 CURVE",
"486 131 LINE",
"489 127 OFFCURVE",
"491 123 OFFCURVE",
"494 120 CURVE",
"494 112 OFFCURVE",
"497 109 OFFCURVE",
"497 102 CURVE",
"502 97 OFFCURVE",
"506 92 OFFCURVE",
"510 85 CURVE",
"512 81 OFFCURVE",
"510 74 OFFCURVE",
"513 71 CURVE",
"521 60 OFFCURVE",
"526 47 OFFCURVE",
"532 34 CURVE",
"541 25 OFFCURVE",
"544 10 OFFCURVE",
"554 1 CURVE",
"577 -5 OFFCURVE",
"590 10 OFFCURVE",
"604 17 CURVE",
"606 25 OFFCURVE",
"614 27 OFFCURVE",
"612 38 CURVE",
"611 46 OFFCURVE",
"608 54 OFFCURVE",
"608 63 CURVE",
"603 69 OFFCURVE",
"598 76 OFFCURVE",
"595 83 CURVE",
"591 100 OFFCURVE",
"581 111 OFFCURVE",
"576 127 CURVE",
"566 139 OFFCURVE",
"561 156 OFFCURVE",
"554 170 CURVE",
"551 174 OFFCURVE",
"553 182 OFFCURVE",
"551 186 CURVE",
"547 192 OFFCURVE",
"542 197 OFFCURVE",
"538 205 CURVE SMOOTH",
"529 222 OFFCURVE",
"524 244 OFFCURVE",
"511 260 CURVE",
"501 277 OFFCURVE",
"495 298 OFFCURVE",
"485 315 CURVE",
"480 332 OFFCURVE",
"472 346 OFFCURVE",
"464 359 CURVE",
"462 365 OFFCURVE",
"458 372 OFFCURVE",
"456 375 CURVE",
"455 378 OFFCURVE",
"456 380 OFFCURVE",
"455 383 CURVE",
"451 391 OFFCURVE",
"447 397 OFFCURVE",
"442 403 CURVE",
"443 415 OFFCURVE",
"435 422 OFFCURVE",
"431 430 CURVE",
"429 438 LINE"
);
},
{
closed = 1;
nodes = (
"425 236 OFFCURVE",
"409 237 OFFCURVE",
"395 236 CURVE",
"388 237 OFFCURVE",
"384 239 OFFCURVE",
"377 239 CURVE",
"346 235 LINE",
"333 238 OFFCURVE",
"310 240 OFFCURVE",
"297 235 CURVE",
"279 232 OFFCURVE",
"262 237 OFFCURVE",
"247 238 CURVE",
"231 238 OFFCURVE",
"216 233 OFFCURVE",
"201 239 CURVE",
"203 252 OFFCURVE",
"205 264 OFFCURVE",
"213 271 CURVE",
"228 301 LINE",
"238 319 OFFCURVE",
"244 343 OFFCURVE",
"258 358 CURVE",
"264 388 OFFCURVE",
"285 403 OFFCURVE",
"291 433 CURVE",
"296 439 OFFCURVE",
"297 448 OFFCURVE",
"303 452 CURVE",
"303 465 OFFCURVE",
"306 474 OFFCURVE",
"314 479 CURVE",
"322 478 OFFCURVE",
"323 470 OFFCURVE",
"324 463 CURVE",
"328 459 OFFCURVE",
"329 451 OFFCURVE",
"333 447 CURVE",
"336 438 OFFCURVE",
"342 430 OFFCURVE",
"346 422 CURVE",
"357 397 LINE SMOOTH",
"364 380 OFFCURVE",
"376 366 OFFCURVE",
"381 348 CURVE",
"390 336 OFFCURVE",
"398 322 OFFCURVE",
"403 306 CURVE",
"412 289 OFFCURVE",
"420 271 OFFCURVE",
"431 257 CURVE",
"430 253 OFFCURVE",
"432 253 OFFCURVE",
"433 250 CURVE",
"433 243 LINE"
);
}
);
width = 664;
}
);
unicode = 0041;
},
{
glyphname = B;
layers = (
{
layerId = "7C3BCDA4-8F92-4DF1-91BA-B714BE37B8B5";
paths = (
{
closed = 1;
nodes = (
"386 410 OFFCURVE",
"392 414 OFFCURVE",
"394 422 CURVE",
"399 452 OFFCURVE",
"399 486 OFFCURVE",
"395 517 CURVE",
"388 532 OFFCURVE",
"380 546 OFFCURVE",
"375 564 CURVE",
"363 580 OFFCURVE",
"349 595 OFFCURVE",
"336 610 CURVE",
"316 620 OFFCURVE",
"298 632 OFFCURVE",
"279 643 CURVE",
"226 655 OFFCURVE",
"165 650 OFFCURVE",
"109 656 CURVE",
"98 651 OFFCURVE",
"82 652 OFFCURVE",
"75 644 CURVE",
"72 636 OFFCURVE",
"74 625 OFFCURVE",
"74 615 CURVE SMOOTH",
"75 585 OFFCURVE",
"74 555 OFFCURVE",
"77 529 CURVE",
"72 513 OFFCURVE",
"77 495 OFFCURVE",
"77 477 CURVE SMOOTH",
"77 409 OFFCURVE",
"77 336 OFFCURVE",
"79 272 CURVE SMOOTH",
"79 248 OFFCURVE",
"82 220 OFFCURVE",
"77 198 CURVE",
"80 130 OFFCURVE",
"82 73 OFFCURVE",
"77 8 CURVE",
"76 0 OFFCURVE",
"87 -5 OFFCURVE",
"94 -7 CURVE",
"104 -9 OFFCURVE",
"115 -5 OFFCURVE",
"124 -5 CURVE SMOOTH",
"135 -5 OFFCURVE",
"147 -8 OFFCURVE",
"159 -8 CURVE SMOOTH",
"171 -8 OFFCURVE",
"184 -5 OFFCURVE",
"195 -5 CURVE SMOOTH",
"203 -5 OFFCURVE",
"211 -6 OFFCURVE",
"219 -7 CURVE",
"223 -7 OFFCURVE",
"226 -5 OFFCURVE",
"230 -5 CURVE SMOOTH",
"234 -5 OFFCURVE",
"238 -7 OFFCURVE",
"243 -7 CURVE",
"267 -6 OFFCURVE",
"292 0 OFFCURVE",
"318 -2 CURVE",
"327 2 OFFCURVE",
"334 6 OFFCURVE",
"345 8 CURVE",
"353 12 OFFCURVE",
"362 16 OFFCURVE",
"372 19 CURVE",
"387 33 OFFCURVE",
"404 45 OFFCURVE",
"421 58 CURVE",
"424 66 OFFCURVE",
"430 74 OFFCURVE",
"435 83 CURVE SMOOTH",
"440 92 OFFCURVE",
"446 101 OFFCURVE",
"449 109 CURVE",
"451 112 OFFCURVE",
"452 118 OFFCURVE",
"454 123 CURVE",
"458 137 OFFCURVE",
"465 156 OFFCURVE",
"465 172 CURVE SMOOTH",
"465 174 OFFCURVE",
"464 175 OFFCURVE",
"463 178 CURVE",
"461 193 OFFCURVE",
"462 208 OFFCURVE",
"460 224 CURVE SMOOTH",
"459 235 OFFCURVE",
"457 249 OFFCURVE",
"452 258 CURVE",
"441 276 OFFCURVE",
"427 291 OFFCURVE",
"416 309 CURVE",
"411 312 OFFCURVE",
"399 319 OFFCURVE",
"397 321 CURVE",
"393 329 OFFCURVE",
"382 329 OFFCURVE",
"378 336 CURVE",
"378 336 OFFCURVE",
"366 341 OFFCURVE",
"359 342 CURVE",
"358 342 OFFCURVE",
"344 345 OFFCURVE",
"343 353 CURVE",
"348 364 OFFCURVE",
"360 368 OFFCURVE",
"369 375 CURVE",
"386 400 LINE"
);
},
{
closed = 1;
nodes = (
"317 481 OFFCURVE",
"315 471 OFFCURVE",
"318 466 CURVE",
"317 462 OFFCURVE",
"317 450 OFFCURVE",
"315 444 CURVE",
"314 442 OFFCURVE",
"311 439 OFFCURVE",
"310 436 CURVE SMOOTH",
"304 419 LINE",
"302 414 OFFCURVE",
"300 412 OFFCURVE",
"298 408 CURVE",
"291 398 OFFCURVE",
"278 390 OFFCURVE",
"269 381 CURVE",
"260 380 OFFCURVE",
"254 374 OFFCURVE",
"246 370 CURVE",
"220 365 OFFCURVE",
"191 365 OFFCURVE",
"164 367 CURVE",
"153 379 OFFCURVE",
"166 406 OFFCURVE",
"157 421 CURVE",
"159 471 OFFCURVE",
"157 523 OFFCURVE",
"159 572 CURVE",
"169 584 OFFCURVE",
"189 578 OFFCURVE",
"208 578 CURVE",
"221 573 OFFCURVE",
"238 573 OFFCURVE",
"252 569 CURVE",
"273 559 OFFCURVE",
"289 544 OFFCURVE",
"302 526 CURVE",
"317 488 LINE"
);
},
{
closed = 1;
nodes = (
"160 238 OFFCURVE",
"157 266 OFFCURVE",
"159 293 CURVE",
"170 300 OFFCURVE",
"184 296 OFFCURVE",
"198 296 CURVE",
"224 297 OFFCURVE",
"251 299 OFFCURVE",
"276 295 CURVE SMOOTH",
"298 291 OFFCURVE",
"316 282 OFFCURVE",
"331 274 CURVE",
"338 272 OFFCURVE",
"341 266 OFFCURVE",
"345 261 CURVE",
"349 257 OFFCURVE",
"355 254 OFFCURVE",
"358 249 CURVE",
"366 241 OFFCURVE",
"371 229 OFFCURVE",
"378 219 CURVE",
"378 213 OFFCURVE",
"380 209 OFFCURVE",
"381 205 CURVE",
"382 189 OFFCURVE",
"379 178 OFFCURVE",
"380 164 CURVE",
"377 155 OFFCURVE",
"372 147 OFFCURVE",
"370 137 CURVE",
"339 99 LINE",
"322 92 OFFCURVE",
"309 80 OFFCURVE",
"291 74 CURVE SMOOTH",
"278 70 OFFCURVE",
"263 74 OFFCURVE",
"249 74 CURVE SMOOTH",
"239 74 OFFCURVE",
"230 70 OFFCURVE",
"220 69 CURVE",
"215 69 OFFCURVE",
"210 71 OFFCURVE",
"205 71 CURVE SMOOTH",
"192 71 OFFCURVE",
"174 67 OFFCURVE",
"161 73 CURVE",
"157 83 OFFCURVE",
"160 97 OFFCURVE",
"159 110 CURVE SMOOTH",
"158 123 OFFCURVE",
"159 137 OFFCURVE",
"161 148 CURVE",
"161 155 OFFCURVE",
"158 158 OFFCURVE",
"157 164 CURVE",
"160 171 OFFCURVE",
"159 179 OFFCURVE",
"159 187 CURVE SMOOTH",
"159 211 LINE"
);
}
);
width = 503;
}
);
unicode = 0042;
},
{
glyphname = C;
layers = (
{
layerId = "7C3BCDA4-8F92-4DF1-91BA-B714BE37B8B5";
paths = (
{
closed = 1;
nodes = (
"512 647 OFFCURVE",
"500 653 OFFCURVE",
"487 659 CURVE",
"470 657 OFFCURVE",
"454 666 OFFCURVE",
"436 668 CURVE SMOOTH",
"407 671 OFFCURVE",
"377 666 OFFCURVE",
"348 668 CURVE",
"331 661 OFFCURVE",
"312 660 OFFCURVE",
"294 656 CURVE",
"277 649 LINE",
"274 648 OFFCURVE",
"271 649 OFFCURVE",
"268 648 CURVE SMOOTH",
"259 645 OFFCURVE",
"247 640 OFFCURVE",
"241 637 CURVE",
"212 624 LINE",
"202 615 OFFCURVE",
"190 612 OFFCURVE",
"183 600 CURVE",
"167 591 LINE",
"162 584 OFFCURVE",
"156 578 OFFCURVE",
"149 574 CURVE",
"144 567 OFFCURVE",
"137 561 OFFCURVE",
"132 555 CURVE",
"119 544 OFFCURVE",
"110 529 OFFCURVE",
"99 517 CURVE",
"95 504 OFFCURVE",
"89 492 OFFCURVE",
"80 484 CURVE",
"78 479 OFFCURVE",
"72 470 OFFCURVE",
"72 460 CURVE",
"67 455 OFFCURVE",
"67 445 OFFCURVE",
"61 440 CURVE",
"59 422 OFFCURVE",
"54 406 OFFCURVE",
"50 389 CURVE",
"50 377 OFFCURVE",
"49 365 OFFCURVE",
"49 353 CURVE",
"48 340 OFFCURVE",
"46 328 OFFCURVE",
"47 317 CURVE",
"47 311 OFFCURVE",
"49 305 OFFCURVE",
"50 299 CURVE",
"52 280 LINE SMOOTH",
"54 262 OFFCURVE",
"57 242 OFFCURVE",
"61 230 CURVE",
"62 229 OFFCURVE",
"62 226 OFFCURVE",
"63 224 CURVE",
"70 202 OFFCURVE",
"81 183 OFFCURVE",
"88 164 CURVE",
"97 153 OFFCURVE",
"106 142 OFFCURVE",
"113 132 CURVE SMOOTH",
"116 128 OFFCURVE",
"121 125 OFFCURVE",
"121 120 CURVE",
"132 105 OFFCURVE",
"147 94 OFFCURVE",
"157 79 CURVE",
"166 74 OFFCURVE",
"175 69 OFFCURVE",
"181 61 CURVE",
"192 58 OFFCURVE",
"196 48 OFFCURVE",
"206 44 CURVE",
"225 34 OFFCURVE",
"246 26 OFFCURVE",
"263 14 CURVE",
"286 9 OFFCURVE",
"307 3 OFFCURVE",
"328 -3 CURVE",
"356 -5 OFFCURVE",
"386 -8 OFFCURVE",
"416 -7 CURVE",
"434 -5 OFFCURVE",
"453 -1 OFFCURVE",
"469 3 CURVE",
"488 7 OFFCURVE",
"504 13 OFFCURVE",
"518 19 CURVE",
"526 20 OFFCURVE",
"531 22 OFFCURVE",
"537 25 CURVE",
"551 29 OFFCURVE",
"563 34 OFFCURVE",
"570 44 CURVE",
"573 51 OFFCURVE",
"571 61 OFFCURVE",
"573 68 CURVE",
"571 71 OFFCURVE",
"572 77 OFFCURVE",
"570 80 CURVE",
"570 92 OFFCURVE",
"570 104 OFFCURVE",
"572 113 CURVE",
"573 120 OFFCURVE",
"570 123 OFFCURVE",
"570 129 CURVE",
"567 132 OFFCURVE",
"569 140 OFFCURVE",
"562 140 CURVE",
"543 139 OFFCURVE",
"540 122 OFFCURVE",
"526 116 CURVE",
"516 114 OFFCURVE",
"510 108 OFFCURVE",
"501 104 CURVE",
"488 104 OFFCURVE",
"482 96 OFFCURVE",
"473 93 CURVE",
"466 93 OFFCURVE",
"461 89 OFFCURVE",
"454 88 CURVE",
"445 86 OFFCURVE",
"434 88 OFFCURVE",
"425 86 CURVE",
"418 85 OFFCURVE",
"413 82 OFFCURVE",
"406 82 CURVE",
"399 81 OFFCURVE",
"391 81 OFFCURVE",
"383 82 CURVE",
"353 83 OFFCURVE",
"327 91 OFFCURVE",
"302 94 CURVE",
"295 99 OFFCURVE",
"286 102 OFFCURVE",
"277 105 CURVE",
"272 112 OFFCURVE",
"261 114 OFFCURVE",
"252 116 CURVE",
"245 123 OFFCURVE",
"237 130 OFFCURVE",
"228 135 CURVE SMOOTH",
"219 140 OFFCURVE",
"214 149 OFFCURVE",
"205 154 CURVE",
"200 163 OFFCURVE",
"193 168 OFFCURVE",
"189 176 CURVE",
"176 186 OFFCURVE",
"167 199 OFFCURVE",
"160 216 CURVE",
"157 222 OFFCURVE",
"152 228 OFFCURVE",
"151 236 CURVE",
"142 247 OFFCURVE",
"138 263 OFFCURVE",
"132 277 CURVE",
"131 299 OFFCURVE",
"130 321 OFFCURVE",
"130 345 CURVE",
"133 357 OFFCURVE",
"134 371 OFFCURVE",
"135 384 CURVE",
"139 395 OFFCURVE",
"143 405 OFFCURVE",
"145 417 CURVE",
"150 424 OFFCURVE",
"154 433 OFFCURVE",
"159 438 CURVE SMOOTH",
"162 441 OFFCURVE",
"162 442 OFFCURVE",
"164 446 CURVE",
"165 450 OFFCURVE",
"165 455 OFFCURVE",
"168 458 CURVE",
"174 466 OFFCURVE",
"181 472 OFFCURVE",
"184 482 CURVE",
"202 496 OFFCURVE",
"215 515 OFFCURVE",
"235 528 CURVE",
"252 543 OFFCURVE",
"271 556 OFFCURVE",
"294 564 CURVE",
"333 567 OFFCURVE",
"360 582 OFFCURVE",
"402 583 CURVE",
"422 579 OFFCURVE",
"442 577 OFFCURVE",
"460 574 CURVE",
"479 569 OFFCURVE",
"496 563 OFFCURVE",
"514 556 CURVE",
"531 548 OFFCURVE",
"540 525 OFFCURVE",
"564 529 CURVE",
"576 536 OFFCURVE",
"571 555 OFFCURVE",
"570 570 CURVE",
"570 588 OFFCURVE",
"572 608 OFFCURVE",
"566 619 CURVE",
"561 627 OFFCURVE",
"553 628 OFFCURVE",
"547 632 CURVE SMOOTH",
"528 644 LINE"
);
}
);
width = 626;
}
);
unicode = 0043;
},
{
glyphname = D;
layers = (
{
layerId = "7C3BCDA4-8F92-4DF1-91BA-B714BE37B8B5";
paths = (
{
closed = 1;
nodes = (
"330 643 OFFCURVE",
"313 649 OFFCURVE",
"288 648 CURVE",
"268 653 OFFCURVE",
"244 657 OFFCURVE",
"219 654 CURVE",
"213 655 OFFCURVE",
"208 657 OFFCURVE",
"202 657 CURVE",
"192 658 OFFCURVE",
"182 657 OFFCURVE",
"172 657 CURVE SMOOTH",
"160 657 OFFCURVE",
"148 655 OFFCURVE",
"140 656 CURVE",
"131 656 OFFCURVE",
"123 659 OFFCURVE",
"115 659 CURVE SMOOTH",
"99 659 OFFCURVE",
"82 655 OFFCURVE",
"66 654 CURVE",
"60 649 OFFCURVE",
"60 639 OFFCURVE",
"55 633 CURVE",
"55 580 OFFCURVE",
"52 530 OFFCURVE",
"57 482 CURVE",
"55 478 OFFCURVE",
"54 472 OFFCURVE",
"54 466 CURVE",
"57 444 OFFCURVE",
"58 415 OFFCURVE",
"54 392 CURVE",
"57 378 OFFCURVE",
"54 357 OFFCURVE",
"55 340 CURVE",
"56 333 OFFCURVE",
"58 329 OFFCURVE",
"58 323 CURVE",
"59 316 OFFCURVE",
"55 312 OFFCURVE",
"55 306 CURVE",
"58 267 OFFCURVE",
"55 224 OFFCURVE",
"55 187 CURVE",
"62 159 OFFCURVE",
"57 130 OFFCURVE",
"57 99 CURVE SMOOTH",
"57 74 OFFCURVE",
"62 48 OFFCURVE",
"60 22 CURVE",
"65 12 OFFCURVE",
"72 5 OFFCURVE",
"82 0 CURVE",
"102 0 OFFCURVE",
"121 1 OFFCURVE",
"137 1 CURVE",
"164 2 OFFCURVE",
"188 5 OFFCURVE",
"216 1 CURVE",
"223 1 OFFCURVE",
"226 4 OFFCURVE",
"233 4 CURVE",
"264 6 OFFCURVE",
"290 7 OFFCURVE",
"315 12 CURVE SMOOTH",
"340 17 OFFCURVE",
"360 31 OFFCURVE",
"385 34 CURVE",
"393 41 OFFCURVE",
"401 48 OFFCURVE",
"413 50 CURVE",
"422 57 OFFCURVE",
"430 63 OFFCURVE",
"441 68 CURVE",
"451 77 OFFCURVE",
"461 86 OFFCURVE",
"473 94 CURVE",
"476 101 OFFCURVE",
"482 104 OFFCURVE",
"485 110 CURVE",
"490 116 OFFCURVE",
"498 117 OFFCURVE",
"501 124 CURVE",
"507 131 OFFCURVE",
"511 139 OFFCURVE",
"514 148 CURVE",
"527 162 OFFCURVE",
"538 179 OFFCURVE",
"544 200 CURVE",
"549 206 OFFCURVE",
"542 213 OFFCURVE",
"542 219 CURVE",
"549 220 OFFCURVE",
"556 221 OFFCURVE",
"556 228 CURVE",
"562 245 OFFCURVE",
"565 263 OFFCURVE",
"571 279 CURVE",
"569 292 OFFCURVE",
"572 309 OFFCURVE",
"571 320 CURVE SMOOTH",
"569 342 OFFCURVE",
"570 366 OFFCURVE",
"564 386 CURVE",
"566 390 OFFCURVE",
"566 397 OFFCURVE",
"566 403 CURVE",
"563 413 OFFCURVE",
"558 421 OFFCURVE",
"556 432 CURVE",
"553 438 OFFCURVE",
"545 440 OFFCURVE",
"542 447 CURVE",
"543 453 OFFCURVE",
"545 458 OFFCURVE",
"542 463 CURVE",
"532 485 OFFCURVE",
"519 503 OFFCURVE",
"509 525 CURVE",
"501 533 OFFCURVE",
"491 540 OFFCURVE",
"482 548 CURVE",
"481 555 OFFCURVE",
"475 558 OFFCURVE",
"470 561 CURVE",
"466 566 OFFCURVE",
"462 570 OFFCURVE",
"459 575 CURVE",
"442 582 OFFCURVE",
"432 595 OFFCURVE",
"419 605 CURVE",
"400 610 OFFCURVE",
"388 622 OFFCURVE",
"369 626 CURVE",
"348 638 LINE"
);
},
{
closed = 1;
nodes = (
"477 263 OFFCURVE",
"478 260 OFFCURVE",
"478 258 CURVE",
"475 251 OFFCURVE",
"467 246 OFFCURVE",
"467 238 CURVE",
"464 230 OFFCURVE",
"458 226 OFFCURVE",
"457 217 CURVE",
"452 212 OFFCURVE",
"449 206 OFFCURVE",
"446 198 CURVE",
"440 195 OFFCURVE",
"437 188 OFFCURVE",
"433 181 CURVE",
"419 166 OFFCURVE",
"402 153 OFFCURVE",
"388 138 CURVE",
"376 135 OFFCURVE",
"369 127 OFFCURVE",
"359 121 CURVE SMOOTH",
"331 105 LINE",
"311 100 OFFCURVE",
"291 95 OFFCURVE",
"274 88 CURVE",
"263 89 OFFCURVE",
"256 86 OFFCURVE",
"249 83 CURVE",
"230 87 OFFCURVE",
"208 88 OFFCURVE",
"187 85 CURVE",
"179 83 OFFCURVE",
"169 81 OFFCURVE",
"158 83 CURVE SMOOTH",
"153 84 OFFCURVE",
"150 87 OFFCURVE",
"147 90 CURVE",
"141 103 OFFCURVE",
"143 132 OFFCURVE",
"145 148 CURVE",
"144 154 OFFCURVE",
"144 161 OFFCURVE",
"142 167 CURVE",
"143 226 OFFCURVE",
"143 288 OFFCURVE",
"142 347 CURVE",
"141 359 OFFCURVE",
"142 371 OFFCURVE",
"142 383 CURVE SMOOTH",
"142 412 OFFCURVE",
"141 438 OFFCURVE",
"142 468 CURVE SMOOTH",
"142 471 OFFCURVE",
"140 473 OFFCURVE",
"140 476 CURVE",
"141 483 OFFCURVE",
"142 494 OFFCURVE",
"139 504 CURVE",
"142 525 OFFCURVE",
"138 553 OFFCURVE",
"145 570 CURVE",
"152 578 OFFCURVE",
"165 572 OFFCURVE",
"175 575 CURVE",
"190 577 OFFCURVE",
"207 573 OFFCURVE",
"225 572 CURVE SMOOTH",
"243 571 OFFCURVE",
"261 571 OFFCURVE",
"277 569 CURVE",
"287 565 OFFCURVE",
"295 560 OFFCURVE",
"309 561 CURVE",
"317 556 OFFCURVE",
"326 552 OFFCURVE",
"337 550 CURVE",
"349 540 OFFCURVE",
"367 535 OFFCURVE",
"378 525 CURVE",
"381 520 OFFCURVE",
"386 521 OFFCURVE",
"389 518 CURVE",
"398 513 OFFCURVE",
"407 503 OFFCURVE",
"418 498 CURVE",
"424 491 OFFCURVE",
"427 482 OFFCURVE",
"433 476 CURVE",
"440 470 OFFCURVE",
"445 464 OFFCURVE",
"449 455 CURVE",
"462 443 OFFCURVE",
"465 422 OFFCURVE",
"476 408 CURVE",
"477 397 OFFCURVE",
"480 389 OFFCURVE",
"484 381 CURVE",
"485 354 OFFCURVE",
"493 322 OFFCURVE",
"482 301 CURVE",
"481 290 OFFCURVE",
"482 278 OFFCURVE",
"481 269 CURVE",
"478 265 LINE"
);
}
);
width = 614;
}
);
unicode = 0044;
},
{
glyphname = E;
layers = (
{
layerId = "7C3BCDA4-8F92-4DF1-91BA-B714BE37B8B5";
paths = (
{
closed = 1;
nodes = (
"138 227 OFFCURVE",
"138 250 OFFCURVE",
"139 266 CURVE",
"143 273 OFFCURVE",
"138 288 OFFCURVE",
"144 293 CURVE",
"141 303 OFFCURVE",
"145 309 OFFCURVE",
"150 315 CURVE",
"166 322 OFFCURVE",
"192 320 OFFCURVE",
"208 320 CURVE SMOOTH",
"212 320 OFFCURVE",
"216 321 OFFCURVE",
"219 321 CURVE",
"247 322 OFFCURVE",
"272 323 OFFCURVE",
"297 323 CURVE SMOOTH",
"307 323 OFFCURVE",
"316 321 OFFCURVE",
"327 321 CURVE SMOOTH",
"336 321 OFFCURVE",
"346 323 OFFCURVE",
"355 321 CURVE",
"372 326 OFFCURVE",
"395 324 OFFCURVE",
"407 334 CURVE",
"416 352 OFFCURVE",
"404 372 OFFCURVE",
"407 394 CURVE",
"392 405 OFFCURVE",
"365 403 OFFCURVE",
"339 403 CURVE",
"312 412 OFFCURVE",
"279 403 OFFCURVE",
"254 410 CURVE",
"247 405 OFFCURVE",
"239 409 OFFCURVE",
"227 408 CURVE SMOOTH",
"200 406 OFFCURVE",
"161 400 OFFCURVE",
"145 417 CURVE",
"139 430 OFFCURVE",
"141 454 OFFCURVE",
"142 465 CURVE SMOOTH",
"143 477 OFFCURVE",
"140 486 OFFCURVE",
"139 496 CURVE",
"145 513 OFFCURVE",
"142 531 OFFCURVE",
"142 551 CURVE",
"147 556 OFFCURVE",
"145 567 OFFCURVE",
"152 569 CURVE",
"158 575 OFFCURVE",
"171 574 OFFCURVE",
"182 572 CURVE",
"219 578 OFFCURVE",
"258 575 OFFCURVE",
"297 575 CURVE SMOOTH",
"322 575 OFFCURVE",
"347 580 OFFCURVE",
"371 577 CURVE",
"384 580 OFFCURVE",
"403 578 OFFCURVE",
"405 592 CURVE SMOOTH",
"407 610 OFFCURVE",
"407 639 OFFCURVE",
"396 649 CURVE",
"371 655 OFFCURVE",
"343 654 OFFCURVE",
"314 654 CURVE SMOOTH",
"307 654 OFFCURVE",
"299 656 OFFCURVE",
"292 656 CURVE",
"285 655 OFFCURVE",
"278 652 OFFCURVE",
"271 652 CURVE SMOOTH",
"257 652 OFFCURVE",
"242 654 OFFCURVE",
"227 654 CURVE SMOOTH",
"178 654 OFFCURVE",
"133 652 OFFCURVE",
"85 654 CURVE",
"76 650 OFFCURVE",
"64 649 OFFCURVE",
"59 641 CURVE",
"54 622 OFFCURVE",
"58 601 OFFCURVE",
"59 580 CURVE",
"59 559 OFFCURVE",
"60 537 OFFCURVE",
"60 518 CURVE",
"57 507 OFFCURVE",
"56 494 OFFCURVE",
"55 481 CURVE",
"55 461 OFFCURVE",
"56 440 OFFCURVE",
"60 425 CURVE",
"60 420 OFFCURVE",
"56 418 OFFCURVE",
"57 411 CURVE",
"60 405 OFFCURVE",
"61 397 OFFCURVE",
"60 388 CURVE",
"58 377 OFFCURVE",
"64 374 OFFCURVE",
"63 364 CURVE",
"57 344 OFFCURVE",
"62 321 OFFCURVE",
"62 298 CURVE SMOOTH",
"61 269 OFFCURVE",
"60 241 OFFCURVE",
"62 216 CURVE",
"58 201 OFFCURVE",
"59 184 OFFCURVE",
"62 168 CURVE",
"63 161 OFFCURVE",
"58 161 OFFCURVE",
"59 154 CURVE",
"62 149 OFFCURVE",
"64 143 OFFCURVE",
"60 137 CURVE",
"62 131 OFFCURVE",
"61 121 OFFCURVE",
"63 115 CURVE",
"63 112 OFFCURVE",
"62 109 OFFCURVE",
"62 105 CURVE",
"60 94 OFFCURVE",
"61 73 OFFCURVE",
"62 61 CURVE",
"62 49 OFFCURVE",
"58 38 OFFCURVE",
"63 28 CURVE",
"69 23 OFFCURVE",
"74 16 OFFCURVE",
"82 14 CURVE SMOOTH",
"106 8 OFFCURVE",
"136 11 OFFCURVE",
"159 11 CURVE SMOOTH",
"175 11 OFFCURVE",
"191 9 OFFCURVE",
"207 9 CURVE SMOOTH",
"222 9 OFFCURVE",
"238 9 OFFCURVE",
"251 12 CURVE",
"283 8 OFFCURVE",
"319 15 OFFCURVE",
"349 9 CURVE",
"355 9 OFFCURVE",
"359 13 OFFCURVE",
"366 12 CURVE",
"375 13 OFFCURVE",
"388 10 OFFCURVE",
"393 16 CURVE",
"400 18 OFFCURVE",
"408 20 OFFCURVE",
"410 28 CURVE",
"413 49 OFFCURVE",
"416 76 OFFCURVE",
"404 88 CURVE",
"380 94 OFFCURVE",
"354 91 OFFCURVE",
"330 91 CURVE SMOOTH",
"321 91 OFFCURVE",
"313 93 OFFCURVE",
"304 93 CURVE SMOOTH",
"298 93 OFFCURVE",
"292 90 OFFCURVE",
"286 90 CURVE",
"280 89 OFFCURVE",
"273 91 OFFCURVE",
"267 91 CURVE SMOOTH",
"260 91 OFFCURVE",
"253 89 OFFCURVE",
"246 90 CURVE",
"239 90 OFFCURVE",
"233 93 OFFCURVE",
"226 93 CURVE SMOOTH",
"220 93 OFFCURVE",
"214 91 OFFCURVE",
"208 91 CURVE SMOOTH",
"202 91 OFFCURVE",
"195 93 OFFCURVE",
"189 93 CURVE SMOOTH",
"180 93 OFFCURVE",
"171 88 OFFCURVE",
"161 91 CURVE",
"150 96 OFFCURVE",
"143 105 OFFCURVE",
"139 116 CURVE",
"137 125 OFFCURVE",
"140 138 OFFCURVE",
"139 151 CURVE",
"144 155 OFFCURVE",
"140 162 OFFCURVE",
"141 165 CURVE",
"141 171 OFFCURVE",
"143 176 OFFCURVE",
"144 183 CURVE",
"139 213 LINE"
);
}
);
width = 463;
}
);
unicode = 0045;
},
{
glyphname = F;
layers = (
{
layerId = "7C3BCDA4-8F92-4DF1-91BA-B714BE37B8B5";
paths = (
{
closed = 1;
nodes = (
"53 269 OFFCURVE",
"55 236 OFFCURVE",
"55 203 CURVE SMOOTH",
"55 165 OFFCURVE",
"54 126 OFFCURVE",
"56 88 CURVE",
"56 81 OFFCURVE",
"53 75 OFFCURVE",
"53 68 CURVE SMOOTH",
"53 60 OFFCURVE",
"55 52 OFFCURVE",
"55 44 CURVE",
"54 32 OFFCURVE",
"49 21 OFFCURVE",
"53 11 CURVE",
"60 3 OFFCURVE",
"75 1 OFFCURVE",
"89 1 CURVE SMOOTH",
"98 1 OFFCURVE",
"108 2 OFFCURVE",
"116 3 CURVE SMOOTH",
"126 4 OFFCURVE",
"135 2 OFFCURVE",
"141 8 CURVE",
"150 19 OFFCURVE",
"144 32 OFFCURVE",
"143 45 CURVE SMOOTH",
"142 64 OFFCURVE",
"144 82 OFFCURVE",
"145 102 CURVE",
"145 122 OFFCURVE",
"146 143 OFFCURVE",
"145 164 CURVE",
"141 190 LINE",
"141 202 OFFCURVE",
"142 213 OFFCURVE",
"143 224 CURVE SMOOTH",
"144 234 OFFCURVE",
"143 245 OFFCURVE",
"143 255 CURVE SMOOTH",
"143 266 OFFCURVE",
"141 278 OFFCURVE",
"141 288 CURVE SMOOTH",
"141 298 OFFCURVE",
"143 310 OFFCURVE",
"146 318 CURVE",
"154 323 OFFCURVE",
"165 321 OFFCURVE",
"175 321 CURVE",
"194 322 OFFCURVE",
"226 323 OFFCURVE",
"244 321 CURVE",
"249 321 OFFCURVE",
"253 319 OFFCURVE",
"258 320 CURVE SMOOTH",
"275 323 OFFCURVE",
"299 323 OFFCURVE",
"321 323 CURVE SMOOTH",
"345 323 OFFCURVE",
"370 319 OFFCURVE",
"384 332 CURVE",
"389 342 OFFCURVE",
"387 356 OFFCURVE",
"384 367 CURVE",
"384 381 OFFCURVE",
"385 395 OFFCURVE",
"378 402 CURVE",
"369 407 OFFCURVE",
"358 403 OFFCURVE",
"348 403 CURVE SMOOTH",
"315 404 OFFCURVE",
"277 406 OFFCURVE",
"244 402 CURVE",
"236 402 OFFCURVE",
"231 406 OFFCURVE",
"222 405 CURVE",
"211 405 OFFCURVE",
"205 401 OFFCURVE",
"195 402 CURVE",
"188 403 OFFCURVE",
"182 406 OFFCURVE",
"175 406 CURVE",
"163 408 OFFCURVE",
"152 404 OFFCURVE",
"143 410 CURVE",
"140 423 OFFCURVE",
"145 437 OFFCURVE",
"145 452 CURVE SMOOTH",
"145 479 OFFCURVE",
"141 509 OFFCURVE",
"146 533 CURVE",
"146 539 OFFCURVE",
"142 544 OFFCURVE",
"141 553 CURVE",
"141 561 OFFCURVE",
"140 570 OFFCURVE",
"145 575 CURVE",
"176 576 OFFCURVE",
"208 577 OFFCURVE",
"241 577 CURVE SMOOTH",
"263 577 OFFCURVE",
"288 575 OFFCURVE",
"307 575 CURVE SMOOTH",
"309 575 OFFCURVE",
"309 576 OFFCURVE",
"312 577 CURVE",
"314 577 OFFCURVE",
"317 575 OFFCURVE",
"318 575 CURVE SMOOTH",
"327 575 OFFCURVE",
"336 577 OFFCURVE",
"345 577 CURVE SMOOTH",
"357 577 OFFCURVE",
"370 572 OFFCURVE",
"381 578 CURVE",
"396 599 OFFCURVE",
"393 651 OFFCURVE",
"372 662 CURVE",
"356 660 OFFCURVE",
"338 661 OFFCURVE",
"327 660 CURVE SMOOTH",
"314 659 OFFCURVE",
"304 660 OFFCURVE",
"291 660 CURVE",
"266 661 OFFCURVE",
"245 659 OFFCURVE",
"223 657 CURVE",
"218 657 OFFCURVE",
"212 658 OFFCURVE",
"209 656 CURVE",
"206 658 OFFCURVE",
"200 660 OFFCURVE",
"197 657 CURVE",
"184 658 OFFCURVE",
"177 655 OFFCURVE",
"165 656 CURVE",
"156 654 OFFCURVE",
"155 660 OFFCURVE",
"146 659 CURVE",
"137 660 OFFCURVE",
"127 657 OFFCURVE",
"116 657 CURVE SMOOTH",
"94 657 OFFCURVE",
"68 664 OFFCURVE",
"53 652 CURVE",
"45 632 OFFCURVE",
"53 611 OFFCURVE",
"53 591 CURVE SMOOTH",
"53 584 OFFCURVE",
"52 578 OFFCURVE",
"52 570 CURVE SMOOTH",
"52 561 OFFCURVE",
"55 551 OFFCURVE",
"55 542 CURVE",
"54 535 OFFCURVE",
"52 528 OFFCURVE",
"52 520 CURVE SMOOTH",
"52 511 OFFCURVE",
"55 501 OFFCURVE",
"55 492 CURVE SMOOTH",
"55 483 OFFCURVE",
"53 475 OFFCURVE",
"53 466 CURVE",
"55 413 OFFCURVE",
"54 362 OFFCURVE",
"55 313 CURVE SMOOTH",
"55 299 LINE"
);
}
);
width = 410;
}
);
unicode = 0046;
},
{
glyphname = G;
layers = (
{
layerId = "7C3BCDA4-8F92-4DF1-91BA-B714BE37B8B5";
paths = (
{
closed = 1;
nodes = (
"263 3 OFFCURVE",
"276 -1 OFFCURVE",
"291 -3 CURVE",
"296 -8 OFFCURVE",
"304 -7 OFFCURVE",
"311 -8 CURVE",
"332 -14 LINE",
"370 -10 OFFCURVE",
"413 -10 OFFCURVE",
"452 -7 CURVE",
"463 -3 OFFCURVE",
"472 3 OFFCURVE",
"488 1 CURVE",
"497 7 OFFCURVE",
"506 12 OFFCURVE",
"516 16 CURVE",
"522 24 OFFCURVE",
"536 24 OFFCURVE",
"543 31 CURVE",
"562 41 OFFCURVE",
"575 57 OFFCURVE",
"592 69 CURVE",
"599 80 OFFCURVE",
"608 89 OFFCURVE",
"616 99 CURVE",
"618 105 OFFCURVE",
"625 107 OFFCURVE",
"628 113 CURVE",
"631 120 OFFCURVE",
"635 124 OFFCURVE",
"639 129 CURVE",
"643 141 OFFCURVE",
"648 153 OFFCURVE",
"655 162 CURVE",
"660 174 OFFCURVE",
"662 188 OFFCURVE",
"669 197 CURVE",
"670 211 OFFCURVE",
"675 224 OFFCURVE",
"677 238 CURVE SMOOTH",
"680 255 OFFCURVE",
"684 275 OFFCURVE",
"683 293 CURVE",
"683 328 LINE SMOOTH",
"683 330 OFFCURVE",
"682 331 OFFCURVE",
"680 332 CURVE",
"677 338 OFFCURVE",
"668 338 OFFCURVE",
"661 339 CURVE",
"650 340 OFFCURVE",
"635 338 OFFCURVE",
"619 337 CURVE SMOOTH",
"593 336 OFFCURVE",
"566 339 OFFCURVE",
"548 334 CURVE",
"533 339 OFFCURVE",
"516 336 OFFCURVE",
"499 336 CURVE",
"490 335 OFFCURVE",
"482 337 OFFCURVE",
"474 337 CURVE",
"455 338 OFFCURVE",
"434 340 OFFCURVE",
"420 331 CURVE",
"416 318 OFFCURVE",
"420 302 OFFCURVE",
"422 290 CURVE",
"421 281 OFFCURVE",
"419 273 OFFCURVE",
"419 263 CURVE",
"423 256 OFFCURVE",
"430 253 OFFCURVE",
"436 247 CURVE",
"478 249 OFFCURVE",
"531 254 OFFCURVE",
"571 252 CURVE",
"577 252 OFFCURVE",
"583 256 OFFCURVE",
"587 250 CURVE",
"588 242 OFFCURVE",
"586 235 OFFCURVE",
"584 228 CURVE",
"582 219 OFFCURVE",
"580 215 OFFCURVE",
"578 209 CURVE",
"576 206 OFFCURVE",
"576 203 OFFCURVE",
"575 200 CURVE",
"570 191 OFFCURVE",
"564 184 OFFCURVE",
"562 175 CURVE",
"548 160 OFFCURVE",
"539 141 OFFCURVE",
"524 127 CURVE",
"513 119 OFFCURVE",
"500 113 OFFCURVE",
"488 105 CURVE",
"470 101 OFFCURVE",
"454 93 OFFCURVE",
"436 88 CURVE SMOOTH",
"417 83 OFFCURVE",
"397 83 OFFCURVE",
"374 80 CURVE",
"360 83 OFFCURVE",
"343 84 OFFCURVE",
"326 85 CURVE",
"315 88 OFFCURVE",
"303 91 OFFCURVE",
"291 93 CURVE",
"280 98 OFFCURVE",
"271 104 OFFCURVE",
"256 105 CURVE",
"249 112 OFFCURVE",
"239 116 OFFCURVE",
"229 120 CURVE",
"211 136 OFFCURVE",
"191 149 OFFCURVE",
"174 167 CURVE",
"168 184 OFFCURVE",
"154 195 OFFCURVE",
"143 208 CURVE",
"141 218 OFFCURVE",
"135 224 OFFCURVE",
"132 231 CURVE",
"119 265 OFFCURVE",
"110 302 OFFCURVE",
"113 351 CURVE",
"115 362 OFFCURVE",
"117 372 OFFCURVE",
"117 384 CURVE",
"128 404 OFFCURVE",
"136 427 OFFCURVE",
"146 447 CURVE",
"152 451 OFFCURVE",
"152 460 OFFCURVE",
"158 463 CURVE",
"161 470 OFFCURVE",
"167 473 OFFCURVE",
"169 481 CURVE",
"180 490 OFFCURVE",
"189 500 OFFCURVE",
"198 510 CURVE",
"205 512 OFFCURVE",
"208 520 OFFCURVE",
"214 523 CURVE",
"220 527 OFFCURVE",
"227 530 OFFCURVE",
"231 536 CURVE",
"245 541 OFFCURVE",
"255 550 OFFCURVE",
"269 556 CURVE",
"280 560 OFFCURVE",
"292 562 OFFCURVE",
"302 567 CURVE",
"314 564 OFFCURVE",
"324 572 OFFCURVE",
"337 574 CURVE SMOOTH",
"352 576 OFFCURVE",
"367 574 OFFCURVE",
"385 575 CURVE",
"401 569 OFFCURVE",
"415 573 OFFCURVE",
"430 570 CURVE",
"441 569 OFFCURVE",
"451 561 OFFCURVE",
"464 563 CURVE",
"469 559 OFFCURVE",
"475 555 OFFCURVE",
"483 555 CURVE",
"496 547 OFFCURVE",
"507 538 OFFCURVE",
"523 533 CURVE",
"531 523 OFFCURVE",
"542 515 OFFCURVE",
"551 506 CURVE",
"558 503 OFFCURVE",
"558 494 OFFCURVE",
"564 490 CURVE",
"567 484 OFFCURVE",
"575 482 OFFCURVE",
"582 481 CURVE",
"599 482 OFFCURVE",
"608 495 OFFCURVE",
"617 504 CURVE",
"627 513 OFFCURVE",
"640 521 OFFCURVE",
"644 536 CURVE",
"638 557 OFFCURVE",
"621 566 OFFCURVE",
"609 581 CURVE",
"592 591 OFFCURVE",
"577 603 OFFCURVE",
"564 616 CURVE",
"546 622 OFFCURVE",
"533 632 OFFCURVE",
"515 637 CURVE",
"508 642 OFFCURVE",
"498 643 OFFCURVE",
"489 646 CURVE",
"481 649 OFFCURVE",
"473 654 OFFCURVE",
"464 657 CURVE",
"426 664 OFFCURVE",
"386 670 OFFCURVE",
"338 668 CURVE",
"332 668 OFFCURVE",
"330 663 OFFCURVE",
"321 665 CURVE",
"315 664 OFFCURVE",
"307 664 OFFCURVE",
"303 660 CURVE",
"289 660 OFFCURVE",
"282 652 OFFCURVE",
"266 654 CURVE",
"250 646 OFFCURVE",
"234 639 OFFCURVE",
"215 635 CURVE",
"203 626 OFFCURVE",
"187 619 OFFCURVE",
"174 610 CURVE",
"169 604 OFFCURVE",
"164 597 OFFCURVE",
"155 596 CURVE",
"148 591 OFFCURVE",
"145 583 OFFCURVE",
"136 580 CURVE",
"128 565 OFFCURVE",
"113 558 OFFCURVE",
"105 544 CURVE",
"92 534 OFFCURVE",
"86 518 OFFCURVE",
"73 507 CURVE",
"70 498 OFFCURVE",
"66 490 OFFCURVE",
"61 484 CURVE",
"57 475 OFFCURVE",
"53 467 OFFCURVE",
"48 460 CURVE",
"45 435 OFFCURVE",
"31 411 OFFCURVE",
"29 381 CURVE SMOOTH",
"28 364 OFFCURVE",
"28 345 OFFCURVE",
"28 328 CURVE",
"27 311 OFFCURVE",
"29 294 OFFCURVE",
"24 279 CURVE",
"30 269 OFFCURVE",
"31 255 OFFCURVE",
"32 241 CURVE",
"38 234 OFFCURVE",
"38 226 OFFCURVE",
"40 219 CURVE",
"43 211 OFFCURVE",
"47 205 OFFCURVE",
"50 198 CURVE",
"51 195 OFFCURVE",
"51 191 OFFCURVE",
"53 187 CURVE",
"58 175 OFFCURVE",
"65 168 OFFCURVE",
"70 157 CURVE",
"73 151 OFFCURVE",
"74 144 OFFCURVE",
"76 137 CURVE",
"83 129 OFFCURVE",
"92 122 OFFCURVE",
"99 113 CURVE",
"105 104 OFFCURVE",
"114 98 OFFCURVE",
"119 86 CURVE",
"131 82 OFFCURVE",
"139 75 OFFCURVE",
"146 66 CURVE",
"152 64 OFFCURVE",
"155 59 OFFCURVE",
"158 55 CURVE",
"164 53 OFFCURVE",
"169 48 OFFCURVE",
"173 44 CURVE",
"179 41 OFFCURVE",
"186 39 OFFCURVE",
"190 33 CURVE",
"198 31 OFFCURVE",
"204 28 OFFCURVE",
"209 23 CURVE",
"248 6 LINE"
);
}
);
width = 727;
}
);
unicode = 0047;
},
{
glyphname = H;
layers = (
{
layerId = "7C3BCDA4-8F92-4DF1-91BA-B714BE37B8B5";
paths = (
{
closed = 1;
nodes = (
"539 245 OFFCURVE",
"538 260 OFFCURVE",
"541 274 CURVE",
"544 300 OFFCURVE",
"541 329 OFFCURVE",
"541 350 CURVE SMOOTH",
"541 354 OFFCURVE",
"542 359 OFFCURVE",
"542 364 CURVE SMOOTH",
"542 374 OFFCURVE",
"539 383 OFFCURVE",
"539 392 CURVE SMOOTH",
"539 409 OFFCURVE",
"540 427 OFFCURVE",
"541 438 CURVE",
"541 443 OFFCURVE",
"542 447 OFFCURVE",
"541 452 CURVE SMOOTH",
"537 472 OFFCURVE",
"542 493 OFFCURVE",
"542 514 CURVE SMOOTH",
"542 532 OFFCURVE",
"538 550 OFFCURVE",
"541 569 CURVE",
"529 595 OFFCURVE",
"552 637 OFFCURVE",
"533 657 CURVE",
"507 660 OFFCURVE",
"481 662 OFFCURVE",
"459 654 CURVE",
"457 647 OFFCURVE",
"454 642 OFFCURVE",
"454 635 CURVE SMOOTH",
"454 628 OFFCURVE",
"457 620 OFFCURVE",
"457 613 CURVE SMOOTH",
"457 601 OFFCURVE",
"455 589 OFFCURVE",
"456 577 CURVE",
"456 570 OFFCURVE",
"458 559 OFFCURVE",
"459 556 CURVE",
"459 555 OFFCURVE",
"457 554 OFFCURVE",
"457 553 CURVE SMOOTH",
"457 549 OFFCURVE",
"459 545 OFFCURVE",
"459 540 CURVE SMOOTH",
"459 535 OFFCURVE",
"457 531 OFFCURVE",
"457 526 CURVE SMOOTH",
"459 432 LINE",
"460 424 OFFCURVE",
"457 419 OFFCURVE",
"457 413 CURVE",
"454 409 OFFCURVE",
"456 400 OFFCURVE",
"451 399 CURVE SMOOTH",
"419 393 OFFCURVE",
"376 400 OFFCURVE",
"340 397 CURVE",
"333 398 OFFCURVE",
"328 401 OFFCURVE",
"318 400 CURVE",
"309 401 OFFCURVE",
"302 399 OFFCURVE",
"295 397 CURVE",
"271 400 OFFCURVE",
"243 399 OFFCURVE",
"214 399 CURVE SMOOTH",
"187 399 OFFCURVE",
"157 392 OFFCURVE",
"137 403 CURVE",
"133 422 OFFCURVE",
"137 441 OFFCURVE",
"132 457 CURVE",
"135 470 OFFCURVE",
"137 485 OFFCURVE",
"137 499 CURVE SMOOTH",
"137 524 OFFCURVE",
"136 551 OFFCURVE",
"136 574 CURVE",
"135 602 OFFCURVE",
"142 630 OFFCURVE",
"136 656 CURVE",
"115 662 OFFCURVE",
"75 667 OFFCURVE",
"55 656 CURVE",
"47 648 OFFCURVE",
"49 638 OFFCURVE",
"49 629 CURVE SMOOTH",
"49 589 OFFCURVE",
"50 557 OFFCURVE",
"50 520 CURVE",
"51 496 OFFCURVE",
"51 471 OFFCURVE",
"50 447 CURVE",
"50 423 OFFCURVE",
"51 400 OFFCURVE",
"52 377 CURVE SMOOTH",
"53 351 OFFCURVE",
"49 327 OFFCURVE",
"55 304 CURVE",
"51 271 OFFCURVE",
"57 226 OFFCURVE",
"50 195 CURVE",
"55 135 OFFCURVE",
"51 78 OFFCURVE",
"52 20 CURVE",
"57 16 OFFCURVE",
"56 7 OFFCURVE",
"65 6 CURVE",
"74 0 OFFCURVE",
"91 4 OFFCURVE",
"102 6 CURVE",
"115 3 OFFCURVE",
"133 3 OFFCURVE",
"139 12 CURVE",
"143 28 OFFCURVE",
"136 44 OFFCURVE",
"136 60 CURVE",
"133 109 OFFCURVE",
"137 146 OFFCURVE",
"134 192 CURVE",
"135 198 OFFCURVE",
"137 203 OFFCURVE",
"137 211 CURVE",
"138 220 OFFCURVE",
"133 222 OFFCURVE",
"134 230 CURVE",
"136 274 LINE",
"136 291 OFFCURVE",
"133 308 OFFCURVE",
"140 320 CURVE",
"157 325 OFFCURVE",
"184 321 OFFCURVE",
"202 320 CURVE",
"205 320 OFFCURVE",
"208 321 OFFCURVE",
"211 321 CURVE",
"237 320 OFFCURVE",
"266 317 OFFCURVE",
"290 320 CURVE SMOOTH",
"299 321 OFFCURVE",
"308 326 OFFCURVE",
"317 326 CURVE SMOOTH",
"327 326 OFFCURVE",
"336 318 OFFCURVE",
"345 318 CURVE SMOOTH",
"353 318 OFFCURVE",
"359 321 OFFCURVE",
"366 321 CURVE",
"386 316 OFFCURVE",
"406 321 OFFCURVE",
"426 321 CURVE",
"430 322 OFFCURVE",
"437 320 OFFCURVE",
"437 320 CURVE",
"442 319 OFFCURVE",
"451 324 OFFCURVE",
"456 318 CURVE",
"461 305 OFFCURVE",
"457 291 OFFCURVE",
"457 277 CURVE SMOOTH",
"457 165 LINE SMOOTH",
"457 155 OFFCURVE",
"459 145 OFFCURVE",
"459 135 CURVE SMOOTH",
"459 117 OFFCURVE",
"458 98 OFFCURVE",
"457 80 CURVE",
"457 62 OFFCURVE",
"458 45 OFFCURVE",
"456 28 CURVE",
"454 19 OFFCURVE",
"461 17 OFFCURVE",
"462 11 CURVE",
"473 4 OFFCURVE",
"487 7 OFFCURVE",
"501 8 CURVE",
"515 8 OFFCURVE",
"530 4 OFFCURVE",
"541 11 CURVE",
"544 16 OFFCURVE",
"544 23 OFFCURVE",
"544 31 CURVE",
"543 41 OFFCURVE",
"540 52 OFFCURVE",
"539 63 CURVE SMOOTH",
"537 95 OFFCURVE",
"542 127 OFFCURVE",
"542 159 CURVE SMOOTH",
"542 178 OFFCURVE",
"539 197 OFFCURVE",
"539 216 CURVE SMOOTH",
"539 228 LINE SMOOTH"
);
}
);
width = 595;
}
);
unicode = 0048;
},
{
glyphname = I;
layers = (
{
layerId = "7C3BCDA4-8F92-4DF1-91BA-B714BE37B8B5";
paths = (
{
closed = 1;
nodes = (
"144 129 OFFCURVE",
"142 178 CURVE",
"145 198 OFFCURVE",
"146 218 OFFCURVE",
"142 236 CURVE",
"147 282 OFFCURVE",
"139 325 OFFCURVE",
"145 375 CURVE",
"139 393 OFFCURVE",
"144 415 OFFCURVE",
"143 436 CURVE",
"143 455 OFFCURVE",
"141 472 OFFCURVE",
"145 488 CURVE",
"143 494 OFFCURVE",
"142 502 OFFCURVE",
"140 509 CURVE",
"147 544 OFFCURVE",
"142 589 OFFCURVE",
"145 622 CURVE",
"145 624 OFFCURVE",
"144 625 OFFCURVE",
"143 627 CURVE",
"142 636 OFFCURVE",
"140 643 OFFCURVE",
"134 649 CURVE",
"116 657 OFFCURVE",
"77 658 OFFCURVE",
"64 643 CURVE",
"59 632 OFFCURVE",
"63 618 OFFCURVE",
"63 610 CURVE",
"62 601 OFFCURVE",
"63 588 OFFCURVE",
"61 581 CURVE",
"58 564 OFFCURVE",
"65 547 OFFCURVE",
"66 529 CURVE",
"66 526 OFFCURVE",
"64 521 OFFCURVE",
"64 517 CURVE",
"65 504 OFFCURVE",
"66 497 OFFCURVE",
"61 487 CURVE",
"68 453 OFFCURVE",
"59 412 OFFCURVE",
"69 383 CURVE",
"63 366 OFFCURVE",
"66 343 OFFCURVE",
"66 328 CURVE SMOOTH",
"66 312 OFFCURVE",
"64 298 OFFCURVE",
"68 284 CURVE",
"68 276 OFFCURVE",
"62 275 OFFCURVE",
"63 268 CURVE",
"68 255 OFFCURVE",
"64 240 OFFCURVE",
"64 225 CURVE",
"65 219 OFFCURVE",
"69 216 OFFCURVE",
"69 209 CURVE",
"55 181 OFFCURVE",
"75 142 OFFCURVE",
"61 115 CURVE",
"66 106 OFFCURVE",
"67 93 OFFCURVE",
"69 82 CURVE",
"68 59 OFFCURVE",
"59 32 OFFCURVE",
"74 17 CURVE",
"84 15 OFFCURVE",
"101 14 OFFCURVE",
"109 19 CURVE",
"121 19 OFFCURVE",
"133 20 OFFCURVE",
"140 27 CURVE",
"144 76 OFFCURVE"
);
}
);
width = 220;
}
);
unicode = 0049;
},
{
glyphname = J;
layers = (
{
layerId = "7C3BCDA4-8F92-4DF1-91BA-B714BE37B8B5";
paths = (
{
closed = 1;
nodes = (
"-20 -209 OFFCURVE",
"4 -219 CURVE",
"17 -219 OFFCURVE",
"27 -221 OFFCURVE",
"38 -223 CURVE",
"62 -216 OFFCURVE",
"86 -210 OFFCURVE",
"113 -205 CURVE",
"121 -198 OFFCURVE",
"132 -195 OFFCURVE",
"141 -189 CURVE",
"150 -184 OFFCURVE",
"157 -174 OFFCURVE",
"168 -170 CURVE",
"173 -162 OFFCURVE",
"180 -155 OFFCURVE",
"188 -148 CURVE",
"192 -140 OFFCURVE",
"197 -133 OFFCURVE",
"202 -126 CURVE",
"204 -118 OFFCURVE",
"207 -111 OFFCURVE",
"212 -106 CURVE",
"211 -96 OFFCURVE",
"215 -92 OFFCURVE",
"217 -85 CURVE",
"217 -62 OFFCURVE",
"221 -38 OFFCURVE",
"221 -14 CURVE SMOOTH",
"221 9 OFFCURVE",
"218 32 OFFCURVE",
"223 53 CURVE",
"218 80 OFFCURVE",
"219 120 OFFCURVE",
"223 146 CURVE",
"219 176 OFFCURVE",
"220 208 OFFCURVE",
"220 236 CURVE SMOOTH",
"220 246 OFFCURVE",
"222 257 OFFCURVE",
"221 263 CURVE",
"219 299 OFFCURVE",
"221 340 OFFCURVE",
"221 378 CURVE SMOOTH",
"221 408 OFFCURVE",
"216 449 OFFCURVE",
"221 477 CURVE",
"218 505 OFFCURVE",
"221 535 OFFCURVE",
"220 566 CURVE SMOOTH",
"219 581 OFFCURVE",
"219 598 OFFCURVE",
"220 613 CURVE",
"220 627 OFFCURVE",
"224 642 OFFCURVE",
"215 654 CURVE",
"205 657 OFFCURVE",
"185 660 OFFCURVE",
"177 656 CURVE",
"162 655 OFFCURVE",
"144 657 OFFCURVE",
"136 649 CURVE SMOOTH",
"131 644 OFFCURVE",
"129 628 OFFCURVE",
"133 619 CURVE",
"136 558 OFFCURVE",
"133 489 OFFCURVE",
"136 425 CURVE",
"132 417 OFFCURVE",
"134 404 OFFCURVE",
"131 394 CURVE",
"133 381 OFFCURVE",
"136 370 OFFCURVE",
"136 356 CURVE",
"137 344 OFFCURVE",
"134 338 OFFCURVE",
"133 328 CURVE",
"136 304 OFFCURVE",
"135 279 OFFCURVE",
"135 258 CURVE",
"136 238 LINE",
"136 233 OFFCURVE",
"133 228 OFFCURVE",
"133 224 CURVE SMOOTH",
"133 221 OFFCURVE",
"135 220 OFFCURVE",
"135 217 CURVE SMOOTH",
"135 215 OFFCURVE",
"133 211 OFFCURVE",
"133 209 CURVE SMOOTH",
"133 196 OFFCURVE",
"136 183 OFFCURVE",
"136 170 CURVE SMOOTH",
"136 156 OFFCURVE",
"135 142 OFFCURVE",
"135 127 CURVE SMOOTH",
"135 112 OFFCURVE",
"136 96 OFFCURVE",
"136 80 CURVE SMOOTH",
"137 49 OFFCURVE",
"132 18 OFFCURVE",
"138 -10 CURVE",
"135 -24 OFFCURVE",
"133 -41 OFFCURVE",
"131 -57 CURVE",
"126 -69 OFFCURVE",
"121 -81 OFFCURVE",
"117 -95 CURVE",
"102 -109 OFFCURVE",
"90 -125 OFFCURVE",
"68 -133 CURVE",
"50 -136 OFFCURVE",
"31 -132 OFFCURVE",
"13 -134 CURVE",
"8 -130 OFFCURVE",
"-2 -131 OFFCURVE",
"-7 -126 CURVE",
"-14 -125 OFFCURVE",
"-24 -121 OFFCURVE",
"-31 -125 CURVE",
"-43 -129 OFFCURVE",
"-41 -146 OFFCURVE",
"-50 -153 CURVE",
"-55 -156 OFFCURVE",
"-57 -162 OFFCURVE",
"-58 -169 CURVE",
"-63 -172 OFFCURVE",
"-65 -179 OFFCURVE",
"-66 -186 CURVE",
"-54 -208 OFFCURVE"
);
}
);
width = 295;
}
);
unicode = 004A;
},
{
glyphname = K;
layers = (
{
layerId = "7C3BCDA4-8F92-4DF1-91BA-B714BE37B8B5";
paths = (
{
closed = 1;
nodes = (
"533 32 OFFCURVE",
"531 33 CURVE",
"523 42 OFFCURVE",
"515 49 OFFCURVE",
"510 61 CURVE",
"497 70 OFFCURVE",
"489 85 OFFCURVE",
"476 94 CURVE",
"472 105 OFFCURVE",
"465 111 OFFCURVE",
"458 118 CURVE",
"452 126 OFFCURVE",
"447 135 OFFCURVE",
"439 142 CURVE",
"436 152 OFFCURVE",
"427 158 OFFCURVE",
"420 165 CURVE",
"417 169 OFFCURVE",
"414 173 OFFCURVE",
"413 178 CURVE",
"410 183 OFFCURVE",
"404 184 OFFCURVE",
"403 190 CURVE",
"394 195 OFFCURVE",
"388 203 OFFCURVE",
"383 211 CURVE",
"375 217 OFFCURVE",
"369 225 OFFCURVE",
"364 233 CURVE",
"350 247 OFFCURVE",
"340 264 OFFCURVE",
"326 277 CURVE",
"321 286 OFFCURVE",
"313 292 OFFCURVE",
"308 301 CURVE",
"300 306 OFFCURVE",
"294 314 OFFCURVE",
"290 323 CURVE",
"281 328 OFFCURVE",
"278 338 OFFCURVE",
"269 343 CURVE",
"264 355 OFFCURVE",
"253 356 OFFCURVE",
"253 369 CURVE SMOOTH",
"253 378 OFFCURVE",
"263 386 OFFCURVE",
"271 394 CURVE",
"278 402 OFFCURVE",
"288 409 OFFCURVE",
"291 416 CURVE",
"302 419 OFFCURVE",
"306 429 OFFCURVE",
"315 435 CURVE",
"320 444 OFFCURVE",
"331 448 OFFCURVE",
"337 457 CURVE",
"349 462 OFFCURVE",
"356 476 OFFCURVE",
"364 484 CURVE SMOOTH",
"366 486 OFFCURVE",
"368 487 OFFCURVE",
"370 488 CURVE",
"374 492 OFFCURVE",
"377 496 OFFCURVE",
"381 499 CURVE",
"396 513 OFFCURVE",
"408 530 OFFCURVE",
"427 540 CURVE",
"441 561 OFFCURVE",
"462 576 OFFCURVE",
"479 594 CURVE",
"489 602 OFFCURVE",
"496 612 OFFCURVE",
"507 619 CURVE",
"514 630 OFFCURVE",
"528 634 OFFCURVE",
"526 654 CURVE",
"518 663 OFFCURVE",
"505 658 OFFCURVE",
"491 657 CURVE SMOOTH",
"473 656 OFFCURVE",
"453 658 OFFCURVE",
"435 657 CURVE",
"415 647 OFFCURVE",
"402 629 OFFCURVE",
"386 615 CURVE",
"384 609 OFFCURVE",
"378 607 OFFCURVE",
"375 603 CURVE",
"371 600 OFFCURVE",
"367 595 OFFCURVE",
"364 591 CURVE",
"356 584 OFFCURVE",
"345 579 OFFCURVE",
"342 567 CURVE",
"336 565 OFFCURVE",
"331 561 OFFCURVE",
"326 558 CURVE",
"321 546 OFFCURVE",
"309 542 OFFCURVE",
"304 531 CURVE",
"297 531 OFFCURVE",
"295 526 OFFCURVE",
"290 525 CURVE",
"285 519 OFFCURVE",
"282 511 OFFCURVE",
"275 507 CURVE",
"270 502 OFFCURVE",
"265 496 OFFCURVE",
"261 488 CURVE",
"254 485 OFFCURVE",
"249 480 OFFCURVE",
"242 476 CURVE",
"240 471 OFFCURVE",
"236 468 OFFCURVE",
"233 465 CURVE",
"230 461 OFFCURVE",
"228 455 OFFCURVE",
"223 454 CURVE",
"217 446 OFFCURVE",
"208 441 OFFCURVE",
"203 432 CURVE",
"197 424 OFFCURVE",
"186 420 OFFCURVE",
"181 411 CURVE",
"171 407 OFFCURVE",
"168 396 OFFCURVE",
"154 395 CURVE",
"149 399 OFFCURVE",
"153 404 OFFCURVE",
"152 410 CURVE",
"151 428 OFFCURVE",
"150 450 OFFCURVE",
"151 470 CURVE",
"151 477 OFFCURVE",
"155 479 OFFCURVE",
"156 485 CURVE",
"148 501 OFFCURVE",
"151 527 OFFCURVE",
"149 548 CURVE",
"152 559 OFFCURVE",
"153 570 OFFCURVE",
"152 581 CURVE",
"152 591 OFFCURVE",
"151 605 OFFCURVE",
"151 616 CURVE SMOOTH",
"151 630 OFFCURVE",
"155 644 OFFCURVE",
"148 654 CURVE",
"139 662 OFFCURVE",
"125 657 OFFCURVE",
"111 657 CURVE SMOOTH",
"97 657 OFFCURVE",
"81 660 OFFCURVE",
"69 657 CURVE",
"60 648 OFFCURVE",
"59 623 OFFCURVE",
"63 607 CURVE",
"68 536 OFFCURVE",
"60 450 OFFCURVE",
"66 373 CURVE",
"67 366 OFFCURVE",
"62 364 OFFCURVE",
"63 356 CURVE",
"67 338 OFFCURVE",
"65 320 OFFCURVE",
"64 302 CURVE",
"64 283 OFFCURVE",
"66 263 OFFCURVE",
"66 243 CURVE SMOOTH",
"66 220 OFFCURVE",
"64 197 OFFCURVE",
"64 175 CURVE SMOOTH",
"64 148 OFFCURVE",
"62 110 OFFCURVE",
"67 86 CURVE",
"65 64 OFFCURVE",
"63 35 OFFCURVE",
"64 16 CURVE",
"71 5 OFFCURVE",
"89 5 OFFCURVE",
"107 6 CURVE",
"119 3 OFFCURVE",
"144 2 OFFCURVE",
"152 9 CURVE",
"160 18 OFFCURVE",
"158 39 OFFCURVE",
"154 50 CURVE",
"153 75 OFFCURVE",
"152 99 OFFCURVE",
"149 123 CURVE",
"152 133 OFFCURVE",
"151 146 OFFCURVE",
"154 156 CURVE",
"148 176 OFFCURVE",
"152 202 OFFCURVE",
"151 227 CURVE SMOOTH",
"150 245 OFFCURVE",
"148 261 OFFCURVE",
"149 276 CURVE",
"151 285 OFFCURVE",
"160 286 OFFCURVE",
"162 295 CURVE",
"169 298 OFFCURVE",
"171 307 OFFCURVE",
"181 309 CURVE",
"192 303 OFFCURVE",
"197 290 OFFCURVE",
"206 282 CURVE",
"215 273 OFFCURVE",
"223 263 OFFCURVE",
"231 254 CURVE",
"235 251 OFFCURVE",
"238 248 OFFCURVE",
"241 244 CURVE SMOOTH",
"244 240 OFFCURVE",
"245 235 OFFCURVE",
"249 231 CURVE",
"254 225 OFFCURVE",
"264 219 OFFCURVE",
"266 209 CURVE",
"272 206 OFFCURVE",
"274 200 OFFCURVE",
"277 194 CURVE",
"293 183 OFFCURVE",
"304 167 OFFCURVE",
"315 151 CURVE",
"327 136 OFFCURVE",
"340 121 OFFCURVE",
"354 109 CURVE",
"358 104 OFFCURVE",
"360 99 OFFCURVE",
"364 94 CURVE",
"366 89 OFFCURVE",
"373 88 OFFCURVE",
"375 82 CURVE",
"382 73 OFFCURVE",
"389 65 OFFCURVE",
"395 55 CURVE",
"403 47 OFFCURVE",
"410 38 OFFCURVE",
"419 31 CURVE",
"426 22 OFFCURVE",
"432 12 OFFCURVE",
"444 8 CURVE",
"457 5 OFFCURVE",
"473 7 OFFCURVE",
"488 8 CURVE",
"504 8 OFFCURVE",
"521 8 OFFCURVE",
"534 14 CURVE",
"535 18 OFFCURVE",
"536 22 OFFCURVE",
"535 28 CURVE",
"535 30 OFFCURVE"
);
}
);
width = 574;
}
);
unicode = 004B;
},
{
glyphname = L;
layers = (
{
layerId = "7C3BCDA4-8F92-4DF1-91BA-B714BE37B8B5";
paths = (
{
closed = 1;
nodes = (
"62 123 LINE SMOOTH",
"62 121 OFFCURVE",
"63 120 OFFCURVE",
"64 118 CURVE",
"64 85 LINE",
"63 74 OFFCURVE",
"62 61 OFFCURVE",
"62 53 CURVE SMOOTH",
"62 49 OFFCURVE",
"64 46 OFFCURVE",
"64 42 CURVE",
"63 33 OFFCURVE",
"57 25 OFFCURVE",
"60 16 CURVE",
"71 -9 OFFCURVE",
"103 -3 OFFCURVE",
"134 -3 CURVE SMOOTH",
"166 -3 OFFCURVE",
"200 1 OFFCURVE",
"223 -5 CURVE",
"248 1 OFFCURVE",
"283 -5 OFFCURVE",
"308 -5 CURVE SMOOTH",
"311 -5 OFFCURVE",
"314 -3 OFFCURVE",
"317 -3 CURVE",
"322 -4 OFFCURVE",
"323 -5 OFFCURVE",
"327 -5 CURVE",
"333 -4 OFFCURVE",
"340 -2 OFFCURVE",
"346 0 CURVE",
"352 1 OFFCURVE",
"358 3 OFFCURVE",
"363 6 CURVE",
"366 14 OFFCURVE",
"374 18 OFFCURVE",
"372 31 CURVE",
"372 66 LINE SMOOTH",
"372 68 OFFCURVE",
"371 70 OFFCURVE",
"369 71 CURVE",
"368 87 OFFCURVE",
"318 86 OFFCURVE",
"318 86 CURVE",
"259 93 LINE",
"244 88 OFFCURVE",
"222 91 OFFCURVE",
"207 86 CURVE",
"191 90 OFFCURVE",
"168 81 OFFCURVE",
"160 94 CURVE",
"158 133 OFFCURVE",
"161 175 OFFCURVE",
"160 211 CURVE SMOOTH",
"159 236 OFFCURVE",
"159 264 OFFCURVE",
"161 291 CURVE",
"158 319 OFFCURVE",
"156 354 OFFCURVE",
"161 381 CURVE",
"157 388 OFFCURVE",
"160 396 OFFCURVE",
"160 405 CURVE",
"159 413 OFFCURVE",
"157 423 OFFCURVE",
"157 432 CURVE SMOOTH",
"157 450 OFFCURVE",
"158 468 OFFCURVE",
"158 487 CURVE SMOOTH",
"158 496 OFFCURVE",
"160 505 OFFCURVE",
"160 514 CURVE SMOOTH",
"160 523 OFFCURVE",
"158 531 OFFCURVE",
"158 540 CURVE",
"160 592 LINE",
"160 610 OFFCURVE",
"162 628 OFFCURVE",
"157 644 CURVE",
"153 646 OFFCURVE",
"153 650 OFFCURVE",
"150 652 CURVE",
"144 658 OFFCURVE",
"135 658 OFFCURVE",
"127 662 CURVE",
"106 661 OFFCURVE",
"82 662 OFFCURVE",
"67 656 CURVE",
"59 641 OFFCURVE",
"60 621 OFFCURVE",
"60 600 CURVE SMOOTH",
"60 570 OFFCURVE",
"63 537 OFFCURVE",
"60 510 CURVE",
"62 504 OFFCURVE",
"64 498 OFFCURVE",
"64 488 CURVE SMOOTH",
"62 403 OFFCURVE",
"63 312 OFFCURVE",
"62 231 CURVE",
"60 231 OFFCURVE",
"63 224 OFFCURVE",
"64 222 CURVE",
"64 206 LINE"
);
}
);
width = 394;
}
);
unicode = 004C;
},
{
glyphname = M;
layers = (
{
layerId = "7C3BCDA4-8F92-4DF1-91BA-B714BE37B8B5";
paths = (
{
closed = 1;
nodes = (
"634 580 OFFCURVE",
"630 599 OFFCURVE",
"625 616 CURVE",
"626 635 OFFCURVE",
"622 655 OFFCURVE",
"608 654 CURVE SMOOTH",
"597 653 OFFCURVE",
"596 643 OFFCURVE",
"592 632 CURVE",
"579 605 OFFCURVE",
"567 578 OFFCURVE",
"552 553 CURVE",
"550 542 OFFCURVE",
"546 533 OFFCURVE",
"540 526 CURVE",
"541 518 OFFCURVE",
"535 513 OFFCURVE",
"532 506 CURVE",
"524 484 LINE",
"518 470 OFFCURVE",
"510 458 OFFCURVE",
"502 446 CURVE",
"500 433 OFFCURVE",
"493 425 OFFCURVE",
"491 413 CURVE",
"487 406 OFFCURVE",
"483 401 OFFCURVE",
"478 395 CURVE",
"478 390 OFFCURVE",
"476 385 OFFCURVE",
"475 380 CURVE",
"467 370 OFFCURVE",
"463 357 OFFCURVE",
"456 347 CURVE",
"456 339 OFFCURVE",
"449 337 OFFCURVE",
"448 329 CURVE",
"448 321 OFFCURVE",
"442 318 OFFCURVE",
"439 312 CURVE",
"438 303 OFFCURVE",
"433 299 OFFCURVE",
"433 290 CURVE",
"421 277 OFFCURVE",
"416 256 OFFCURVE",
"409 241 CURVE SMOOTH",
"408 239 OFFCURVE",
"406 238 OFFCURVE",
"406 236 CURVE",
"400 223 OFFCURVE",
"399 211 OFFCURVE",
"392 200 CURVE",
"389 188 OFFCURVE",
"387 176 OFFCURVE",
"376 172 CURVE",
"366 180 OFFCURVE",
"366 200 OFFCURVE",
"359 211 CURVE",
"354 225 OFFCURVE",
"349 239 OFFCURVE",
"343 252 CURVE",
"342 261 OFFCURVE",
"335 263 OFFCURVE",
"335 272 CURVE",
"332 279 OFFCURVE",
"329 286 OFFCURVE",
"325 291 CURVE",
"320 305 OFFCURVE",
"314 318 OFFCURVE",
"307 329 CURVE",
"308 336 OFFCURVE",
"305 338 OFFCURVE",
"305 343 CURVE",
"300 349 OFFCURVE",
"298 357 OFFCURVE",
"294 364 CURVE",
"290 381 OFFCURVE",
"282 393 OFFCURVE",
"275 405 CURVE SMOOTH",
"263 427 OFFCURVE",
"255 450 OFFCURVE",
"247 476 CURVE",
"242 482 OFFCURVE",
"237 487 OFFCURVE",
"234 495 CURVE",
"229 506 OFFCURVE",
"226 518 OFFCURVE",
"221 528 CURVE",
"218 535 OFFCURVE",
"214 541 OFFCURVE",
"214 548 CURVE",
"203 561 OFFCURVE",
"198 577 OFFCURVE",
"191 592 CURVE",
"185 608 OFFCURVE",
"175 623 OFFCURVE",
"173 641 CURVE",
"166 649 OFFCURVE",
"162 665 OFFCURVE",
"149 660 CURVE",
"140 657 OFFCURVE",
"141 645 OFFCURVE",
"138 637 CURVE",
"135 627 OFFCURVE",
"134 617 OFFCURVE",
"130 610 CURVE",
"130 573 OFFCURVE",
"117 550 OFFCURVE",
"113 517 CURVE",
"107 486 OFFCURVE",
"100 456 OFFCURVE",
"91 429 CURVE",
"91 410 LINE",
"85 399 OFFCURVE",
"85 385 OFFCURVE",
"83 373 CURVE",
"73 337 LINE",
"72 312 OFFCURVE",
"66 292 OFFCURVE",
"61 271 CURVE",
"61 257 LINE",
"47 220 OFFCURVE",
"43 173 OFFCURVE",
"32 132 CURVE",
"37 113 OFFCURVE",
"26 94 OFFCURVE",
"32 74 CURVE",
"32 65 OFFCURVE",
"22 66 OFFCURVE",
"23 57 CURVE",
"27 42 OFFCURVE",
"17 30 OFFCURVE",
"24 17 CURVE",
"39 9 OFFCURVE",
"69 4 OFFCURVE",
"89 11 CURVE",
"95 18 OFFCURVE",
"96 30 OFFCURVE",
"102 38 CURVE",
"102 43 OFFCURVE",
"99 45 OFFCURVE",
"100 52 CURVE",
"114 103 OFFCURVE",
"120 163 OFFCURVE",
"135 214 CURVE",
"134 236 OFFCURVE",
"139 253 OFFCURVE",
"146 268 CURVE",
"146 285 LINE",
"159 309 OFFCURVE",
"154 351 OFFCURVE",
"168 375 CURVE",
"167 385 OFFCURVE",
"169 395 OFFCURVE",
"171 405 CURVE SMOOTH",
"173 414 OFFCURVE",
"172 427 OFFCURVE",
"180 430 CURVE",
"191 411 OFFCURVE",
"198 388 OFFCURVE",
"207 367 CURVE",
"213 358 OFFCURVE",
"215 345 OFFCURVE",
"221 336 CURVE",
"227 325 OFFCURVE",
"230 314 OFFCURVE",
"236 304 CURVE",
"243 280 OFFCURVE",
"256 263 OFFCURVE",
"264 241 CURVE",
"275 221 OFFCURVE",
"284 200 OFFCURVE",
"291 176 CURVE",
"295 171 OFFCURVE",
"299 165 OFFCURVE",
"302 159 CURVE",
"305 152 OFFCURVE",
"307 143 OFFCURVE",
"310 138 CURVE SMOOTH",
"313 133 OFFCURVE",
"314 130 OFFCURVE",
"316 124 CURVE",
"319 116 OFFCURVE",
"324 110 OFFCURVE",
"325 102 CURVE",
"332 82 OFFCURVE",
"343 66 OFFCURVE",
"348 42 CURVE",
"351 36 OFFCURVE",
"356 30 OFFCURVE",
"359 22 CURVE",
"362 15 OFFCURVE",
"364 6 OFFCURVE",
"374 6 CURVE",
"387 8 OFFCURVE",
"392 17 OFFCURVE",
"395 30 CURVE",
"400 39 OFFCURVE",
"405 49 OFFCURVE",
"409 60 CURVE",
"415 68 OFFCURVE",
"416 82 OFFCURVE",
"423 90 CURVE",
"428 100 OFFCURVE",
"431 111 OFFCURVE",
"439 118 CURVE",
"439 125 OFFCURVE",
"442 130 OFFCURVE",
"444 137 CURVE",
"460 164 OFFCURVE",
"471 198 OFFCURVE",
"488 225 CURVE",
"503 255 OFFCURVE",
"514 288 OFFCURVE",
"530 315 CURVE",
"531 324 OFFCURVE",
"535 329 OFFCURVE",
"537 337 CURVE",
"544 346 OFFCURVE",
"549 356 OFFCURVE",
"552 369 CURVE",
"558 371 OFFCURVE",
"558 379 OFFCURVE",
"559 386 CURVE",
"562 390 OFFCURVE",
"566 394 OFFCURVE",
"568 400 CURVE",
"572 409 OFFCURVE",
"571 423 OFFCURVE",
"581 425 CURVE",
"587 404 OFFCURVE",
"588 378 OFFCURVE",
"595 358 CURVE",
"595 353 OFFCURVE",
"592 351 OFFCURVE",
"593 345 CURVE",
"603 324 OFFCURVE",
"603 293 OFFCURVE",
"611 271 CURVE",
"612 264 OFFCURVE",
"608 263 OFFCURVE",
"609 257 CURVE",
"613 251 OFFCURVE",
"614 244 OFFCURVE",
"617 238 CURVE",
"616 225 OFFCURVE",
"619 217 OFFCURVE",
"622 208 CURVE",
"622 184 OFFCURVE",
"629 168 OFFCURVE",
"633 148 CURVE",
"636 128 OFFCURVE",
"646 113 OFFCURVE",
"644 88 CURVE",
"649 76 OFFCURVE",
"646 56 OFFCURVE",
"652 45 CURVE",
"651 27 OFFCURVE",
"657 16 OFFCURVE",
"666 8 CURVE",
"686 3 OFFCURVE",
"719 4 OFFCURVE",
"737 11 CURVE",
"746 24 OFFCURVE",
"738 35 OFFCURVE",
"735 49 CURVE SMOOTH",
"733 57 OFFCURVE",
"733 66 OFFCURVE",
"732 74 CURVE SMOOTH",
"731 82 OFFCURVE",
"729 90 OFFCURVE",
"727 97 CURVE",
"726 106 OFFCURVE",
"726 114 OFFCURVE",
"723 121 CURVE",
"717 153 OFFCURVE",
"706 179 OFFCURVE",
"707 217 CURVE",
"699 236 OFFCURVE",
"700 263 OFFCURVE",
"691 280 CURVE",
"692 294 OFFCURVE",
"687 300 OFFCURVE",
"688 313 CURVE",
"682 321 OFFCURVE",
"685 336 OFFCURVE",
"679 343 CURVE",
"678 356 OFFCURVE",
"674 367 OFFCURVE",
"671 376 CURVE",
"670 406 OFFCURVE",
"660 425 OFFCURVE",
"655 451 CURVE SMOOTH",
"654 457 OFFCURVE",
"657 459 OFFCURVE",
"656 465 CURVE",
"651 477 OFFCURVE",
"651 490 OFFCURVE",
"649 503 CURVE",
"646 515 OFFCURVE",
"642 529 OFFCURVE",
"642 544 CURVE",
"636 559 LINE"
);
}
);
width = 773;
}
);
unicode = 004D;
},
{
glyphname = N;
layers = (
{
layerId = "7C3BCDA4-8F92-4DF1-91BA-B714BE37B8B5";
paths = (
{
closed = 1;
nodes = (
"129 601 OFFCURVE",
"116 615 OFFCURVE",
"102 629 CURVE",
"86 640 OFFCURVE",
"79 660 OFFCURVE",
"53 662 CURVE",
"45 653 OFFCURVE",
"49 628 OFFCURVE",
"52 616 CURVE",
"52 598 OFFCURVE",
"53 588 OFFCURVE",
"48 575 CURVE",
"55 564 OFFCURVE",
"50 552 OFFCURVE",
"50 540 CURVE SMOOTH",
"50 535 OFFCURVE",
"51 529 OFFCURVE",
"52 523 CURVE",
"52 466 LINE",
"51 447 OFFCURVE",
"57 428 OFFCURVE",
"53 410 CURVE",
"56 395 OFFCURVE",
"59 381 OFFCURVE",
"58 365 CURVE",
"57 355 OFFCURVE",
"53 345 OFFCURVE",
"53 334 CURVE SMOOTH",
"53 324 OFFCURVE",
"55 314 OFFCURVE",
"55 304 CURVE",
"54 292 OFFCURVE",
"51 280 OFFCURVE",
"55 268 CURVE",
"50 250 OFFCURVE",
"54 234 OFFCURVE",
"52 213 CURVE",
"60 192 OFFCURVE",
"48 158 OFFCURVE",
"58 142 CURVE",
"52 125 OFFCURVE",
"51 101 OFFCURVE",
"55 83 CURVE",
"52 62 OFFCURVE",
"53 34 OFFCURVE",
"58 16 CURVE",
"72 4 OFFCURVE",
"118 4 OFFCURVE",
"132 16 CURVE",
"135 24 OFFCURVE",
"136 36 OFFCURVE",
"137 47 CURVE",
"137 55 OFFCURVE",
"132 58 OFFCURVE",
"132 66 CURVE",
"128 91 OFFCURVE",
"132 122 OFFCURVE",
"132 143 CURVE SMOOTH",
"132 147 OFFCURVE",
"130 150 OFFCURVE",
"130 154 CURVE",
"134 178 LINE",
"134 189 OFFCURVE",
"132 201 OFFCURVE",
"132 213 CURVE SMOOTH",
"132 220 OFFCURVE",
"135 228 OFFCURVE",
"135 236 CURVE",
"137 263 OFFCURVE",
"130 290 OFFCURVE",
"135 318 CURVE",
"130 335 OFFCURVE",
"132 364 OFFCURVE",
"135 381 CURVE",
"132 395 OFFCURVE",
"135 415 OFFCURVE",
"132 429 CURVE",
"135 433 OFFCURVE",
"137 439 OFFCURVE",
"138 444 CURVE",
"139 448 OFFCURVE",
"143 447 OFFCURVE",
"143 451 CURVE",
"147 451 OFFCURVE",
"144 458 OFFCURVE",
"149 457 CURVE",
"161 454 OFFCURVE",
"165 442 OFFCURVE",
"176 438 CURVE",
"182 428 OFFCURVE",
"193 423 OFFCURVE",
"201 416 CURVE",
"204 409 OFFCURVE",
"210 406 OFFCURVE",
"214 400 CURVE",
"216 393 OFFCURVE",
"222 390 OFFCURVE",
"228 386 CURVE",
"236 375 OFFCURVE",
"248 368 OFFCURVE",
"255 356 CURVE",
"275 338 OFFCURVE",
"296 321 OFFCURVE",
"313 299 CURVE",
"323 295 OFFCURVE",
"328 286 OFFCURVE",
"335 279 CURVE SMOOTH",
"342 272 OFFCURVE",
"351 266 OFFCURVE",
"357 258 CURVE",
"362 253 OFFCURVE",
"364 246 OFFCURVE",
"372 244 CURVE",
"379 233 OFFCURVE",
"390 225 OFFCURVE",
"400 216 CURVE",
"410 206 OFFCURVE",
"420 197 OFFCURVE",
"431 189 CURVE",
"435 180 OFFCURVE",
"443 176 OFFCURVE",
"449 168 CURVE SMOOTH",
"455 160 OFFCURVE",
"464 154 OFFCURVE",
"471 148 CURVE SMOOTH",
"479 141 OFFCURVE",
"484 133 OFFCURVE",
"491 126 CURVE",
"497 121 OFFCURVE",
"503 118 OFFCURVE",
"509 113 CURVE",
"515 101 OFFCURVE",
"526 92 OFFCURVE",
"536 83 CURVE",
"544 73 OFFCURVE",
"554 64 OFFCURVE",
"562 53 CURVE",
"584 38 OFFCURVE",
"594 9 OFFCURVE",
"624 1 CURVE",
"636 8 OFFCURVE",
"639 25 OFFCURVE",
"638 45 CURVE",
"629 72 OFFCURVE",
"636 115 OFFCURVE",
"632 146 CURVE",
"632 152 OFFCURVE",
"633 156 OFFCURVE",
"635 161 CURVE",
"630 181 OFFCURVE",
"633 203 OFFCURVE",
"633 225 CURVE SMOOTH",
"633 235 OFFCURVE",
"630 244 OFFCURVE",
"633 254 CURVE",
"631 261 OFFCURVE",
"630 268 OFFCURVE",
"630 276 CURVE SMOOTH",
"630 282 OFFCURVE",
"633 288 OFFCURVE",
"633 295 CURVE",
"634 300 OFFCURVE",
"632 305 OFFCURVE",
"632 310 CURVE SMOOTH",
"632 316 OFFCURVE",
"633 322 OFFCURVE",
"633 328 CURVE SMOOTH",
"633 351 OFFCURVE",
"630 373 OFFCURVE",
"632 397 CURVE",
"632 404 OFFCURVE",
"635 412 OFFCURVE",
"635 419 CURVE SMOOTH",
"635 433 OFFCURVE",
"631 448 OFFCURVE",
"632 463 CURVE",
"632 468 OFFCURVE",
"633 474 OFFCURVE",
"633 479 CURVE SMOOTH",
"633 487 OFFCURVE",
"630 496 OFFCURVE",
"630 504 CURVE SMOOTH",
"630 511 OFFCURVE",
"632 517 OFFCURVE",
"632 523 CURVE SMOOTH",
"632 542 OFFCURVE",
"629 562 OFFCURVE",
"635 580 CURVE",
"627 596 OFFCURVE",
"636 629 OFFCURVE",
"629 644 CURVE",
"624 650 OFFCURVE",
"615 650 OFFCURVE",
"606 651 CURVE",
"595 650 OFFCURVE",
"589 653 OFFCURVE",
"578 652 CURVE",
"572 649 OFFCURVE",
"561 650 OFFCURVE",
"556 646 CURVE",
"550 635 OFFCURVE",
"549 617 OFFCURVE",
"551 607 CURVE",
"552 605 OFFCURVE",
"550 605 OFFCURVE",
"550 605 CURVE",
"549 596 OFFCURVE",
"552 593 OFFCURVE",
"553 586 CURVE SMOOTH",
"555 572 OFFCURVE",
"552 560 OFFCURVE",
"551 547 CURVE",
"550 539 OFFCURVE",
"555 537 OFFCURVE",
"554 529 CURVE",
"555 509 OFFCURVE",
"551 488 OFFCURVE",
"554 466 CURVE SMOOTH",
"555 460 OFFCURVE",
"551 458 OFFCURVE",
"551 452 CURVE",
"554 445 OFFCURVE",
"553 435 OFFCURVE",
"554 427 CURVE",
"547 405 OFFCURVE",
"557 376 OFFCURVE",
"551 351 CURVE",
"551 344 OFFCURVE",
"555 341 OFFCURVE",
"554 334 CURVE",
"554 325 OFFCURVE",
"555 315 OFFCURVE",
"554 306 CURVE",
"554 296 OFFCURVE",
"552 285 OFFCURVE",
"554 276 CURVE",
"549 263 OFFCURVE",
"554 240 OFFCURVE",
"548 228 CURVE",
"554 220 OFFCURVE",
"533 210 OFFCURVE",
"526 216 CURVE",
"516 220 OFFCURVE",
"512 230 OFFCURVE",
"502 235 CURVE",
"495 242 OFFCURVE",
"486 247 OFFCURVE",
"479 254 CURVE",
"474 258 OFFCURVE",
"471 264 OFFCURVE",
"466 269 CURVE",
"452 285 OFFCURVE",
"436 296 OFFCURVE",
"422 310 CURVE",
"415 322 OFFCURVE",
"402 328 OFFCURVE",
"394 339 CURVE",
"385 349 OFFCURVE",
"374 358 OFFCURVE",
"362 365 CURVE",
"349 390 OFFCURVE",
"325 404 OFFCURVE",
"309 425 CURVE",
"304 429 OFFCURVE",
"297 432 OFFCURVE",
"291 435 CURVE",
"288 448 OFFCURVE",
"276 453 OFFCURVE",
"269 463 CURVE",
"261 471 OFFCURVE",
"251 479 OFFCURVE",
"242 487 CURVE",
"226 504 OFFCURVE",
"210 523 OFFCURVE",
"190 537 CURVE",
"184 554 OFFCURVE",
"169 562 OFFCURVE",
"159 575 CURVE",
"141 586 LINE"
);
}
);
width = 688;
}
);
unicode = 004E;
},
{
glyphname = O;
layers = (
{
layerId = "7C3BCDA4-8F92-4DF1-91BA-B714BE37B8B5";
paths = (
{
closed = 1;
nodes = (
"99 504 OFFCURVE",
"100 501 OFFCURVE",
"99 499 CURVE",
"98 498 OFFCURVE",
"95 497 OFFCURVE",
"94 495 CURVE",
"91 490 LINE",
"79 475 OFFCURVE",
"73 456 OFFCURVE",
"66 436 CURVE",
"63 423 OFFCURVE",
"61 410 OFFCURVE",
"56 399 CURVE",
"53 374 OFFCURVE",
"52 348 OFFCURVE",
"52 321 CURVE",
"51 312 OFFCURVE",
"50 303 OFFCURVE",
"50 295 CURVE",
"51 279 OFFCURVE",
"61 266 OFFCURVE",
"58 250 CURVE",
"64 237 OFFCURVE",
"69 223 OFFCURVE",
"72 206 CURVE",
"93 168 OFFCURVE",
"116 131 OFFCURVE",
"146 102 CURVE",
"155 91 OFFCURVE",
"169 85 OFFCURVE",
"176 72 CURVE",
"189 66 OFFCURVE",
"200 57 OFFCURVE",
"212 50 CURVE SMOOTH",
"226 42 OFFCURVE",
"241 32 OFFCURVE",
"257 27 CURVE",
"259 26 OFFCURVE",
"261 24 OFFCURVE",
"264 23 CURVE",
"270 22 OFFCURVE",
"276 21 OFFCURVE",
"282 19 CURVE",
"283 16 LINE",
"285 15 OFFCURVE",
"287 16 OFFCURVE",
"288 16 CURVE",
"296 12 OFFCURVE",
"304 10 OFFCURVE",
"312 6 CURVE",
"326 8 OFFCURVE",
"336 4 OFFCURVE",
"346 1 CURVE",
"362 2 OFFCURVE",
"375 1 OFFCURVE",
"387 -2 CURVE",
"418 1 OFFCURVE",
"453 -1 OFFCURVE",
"479 8 CURVE",
"493 12 OFFCURVE",
"509 15 OFFCURVE",
"521 22 CURVE",
"535 26 OFFCURVE",
"549 31 OFFCURVE",
"559 39 CURVE",
"574 43 OFFCURVE",
"582 54 OFFCURVE",
"597 58 CURVE",
"629 82 LINE",
"636 93 OFFCURVE",
"651 98 OFFCURVE",
"657 110 CURVE",
"676 128 OFFCURVE",
"690 152 OFFCURVE",
"706 173 CURVE",
"710 191 OFFCURVE",
"724 205 OFFCURVE",
"729 224 CURVE",
"732 231 OFFCURVE",
"731 239 OFFCURVE",
"733 247 CURVE",
"733 249 OFFCURVE",
"735 251 OFFCURVE",
"736 254 CURVE",
"738 264 OFFCURVE",
"739 274 OFFCURVE",
"742 285 CURVE",
"741 311 OFFCURVE",
"743 335 OFFCURVE",
"744 362 CURVE",
"744 363 OFFCURVE",
"743 364 OFFCURVE",
"742 364 CURVE",
"741 384 OFFCURVE",
"733 399 OFFCURVE",
"734 422 CURVE",
"728 432 OFFCURVE",
"726 445 OFFCURVE",
"720 454 CURVE",
"718 467 OFFCURVE",
"708 473 OFFCURVE",
"707 487 CURVE",
"696 500 OFFCURVE",
"688 517 OFFCURVE",
"676 529 CURVE",
"666 544 OFFCURVE",
"653 557 OFFCURVE",
"643 572 CURVE",
"632 577 OFFCURVE",
"622 583 OFFCURVE",
"614 591 CURVE",
"604 596 OFFCURVE",
"595 603 OFFCURVE",
"588 611 CURVE",
"561 618 OFFCURVE",
"549 640 OFFCURVE",
"515 640 CURVE",
"508 645 OFFCURVE",
"501 649 OFFCURVE",
"491 652 CURVE SMOOTH",
"485 654 OFFCURVE",
"476 656 OFFCURVE",
"468 657 CURVE",
"460 659 OFFCURVE",
"452 661 OFFCURVE",
"444 662 CURVE",
"440 662 OFFCURVE",
"435 661 OFFCURVE",
"430 662 CURVE",
"426 662 OFFCURVE",
"423 665 OFFCURVE",
"419 665 CURVE",
"397 667 OFFCURVE",
"381 665 OFFCURVE",
"362 663 CURVE",
"351 663 OFFCURVE",
"340 662 OFFCURVE",
"331 660 CURVE SMOOTH",
"327 659 OFFCURVE",
"323 656 OFFCURVE",
"320 656 CURVE",
"314 654 OFFCURVE",
"309 655 OFFCURVE",
"304 654 CURVE SMOOTH",
"299 653 OFFCURVE",
"296 650 OFFCURVE",
"291 649 CURVE SMOOTH",
"286 648 OFFCURVE",
"282 648 OFFCURVE",
"277 646 CURVE",
"264 638 OFFCURVE",
"247 635 OFFCURVE",
"236 626 CURVE",
"221 620 OFFCURVE",
"213 608 OFFCURVE",
"195 605 CURVE",
"180 592 OFFCURVE",
"166 579 OFFCURVE",
"148 569 CURVE",
"142 562 OFFCURVE",
"138 554 OFFCURVE",
"132 547 CURVE SMOOTH",
"126 540 OFFCURVE",
"118 535 OFFCURVE",
"113 528 CURVE",
"110 523 OFFCURVE",
"108 515 OFFCURVE",
"105 510 CURVE",
"100 506 LINE"
);
},
{
closed = 1;
nodes = (
"665 359 OFFCURVE",
"665 359 OFFCURVE",
"665 358 CURVE",
"663 351 OFFCURVE",
"665 344 OFFCURVE",
"665 337 CURVE",
"664 326 OFFCURVE",
"661 314 OFFCURVE",
"662 301 CURVE",
"657 286 OFFCURVE",
"654 271 OFFCURVE",
"654 252 CURVE",
"648 246 OFFCURVE",
"646 235 OFFCURVE",
"640 230 CURVE",
"635 223 OFFCURVE",
"632 214 OFFCURVE",
"629 206 CURVE",
"619 197 OFFCURVE",
"610 187 OFFCURVE",
"605 173 CURVE",
"597 168 OFFCURVE",
"591 161 OFFCURVE",
"586 154 CURVE",
"577 148 OFFCURVE",
"567 143 OFFCURVE",
"561 134 CURVE",
"550 129 OFFCURVE",
"541 123 OFFCURVE",
"532 116 CURVE",
"516 114 OFFCURVE",
"504 107 OFFCURVE",
"495 97 CURVE",
"479 99 OFFCURVE",
"469 95 OFFCURVE",
"460 90 CURVE",
"439 90 OFFCURVE",
"418 81 OFFCURVE",
"397 86 CURVE",
"379 80 OFFCURVE",
"354 85 OFFCURVE",
"339 91 CURVE",
"321 91 LINE",
"300 99 OFFCURVE",
"284 110 OFFCURVE",
"261 116 CURVE",
"253 122 OFFCURVE",
"246 129 OFFCURVE",
"236 132 CURVE",
"231 141 OFFCURVE",
"223 146 OFFCURVE",
"216 153 CURVE",
"205 162 OFFCURVE",
"192 174 OFFCURVE",
"181 184 CURVE",
"179 192 OFFCURVE",
"174 195 OFFCURVE",
"170 200 CURVE",
"167 215 OFFCURVE",
"158 225 OFFCURVE",
"154 239 CURVE",
"149 252 OFFCURVE",
"144 266 OFFCURVE",
"138 279 CURVE",
"135 312 LINE",
"135 321 OFFCURVE",
"133 332 OFFCURVE",
"134 340 CURVE",
"134 349 OFFCURVE",
"137 358 OFFCURVE",
"138 367 CURVE",
"140 376 OFFCURVE",
"142 385 OFFCURVE",
"143 394 CURVE",
"149 401 OFFCURVE",
"150 413 OFFCURVE",
"154 422 CURVE",
"161 431 OFFCURVE",
"160 441 OFFCURVE",
"165 451 CURVE",
"171 462 OFFCURVE",
"183 469 OFFCURVE",
"186 482 CURVE",
"198 492 OFFCURVE",
"208 504 OFFCURVE",
"217 517 CURVE",
"222 517 OFFCURVE",
"225 522 OFFCURVE",
"228 525 CURVE",
"232 528 OFFCURVE",
"242 531 OFFCURVE",
"247 536 CURVE",
"258 540 OFFCURVE",
"267 551 OFFCURVE",
"279 556 CURVE",
"289 561 OFFCURVE",
"304 563 OFFCURVE",
"318 567 CURVE",
"337 574 LINE",
"343 575 OFFCURVE",
"350 578 OFFCURVE",
"356 578 CURVE",
"366 580 OFFCURVE",
"378 579 OFFCURVE",
"389 580 CURVE SMOOTH",
"401 581 OFFCURVE",
"412 582 OFFCURVE",
"424 581 CURVE",
"434 581 OFFCURVE",
"444 577 OFFCURVE",
"455 577 CURVE",
"464 574 OFFCURVE",
"473 571 OFFCURVE",
"484 569 CURVE",
"501 563 OFFCURVE",
"514 553 OFFCURVE",
"532 548 CURVE",
"538 541 OFFCURVE",
"548 538 OFFCURVE",
"554 531 CURVE",
"580 517 OFFCURVE",
"595 494 OFFCURVE",
"616 476 CURVE",
"621 465 OFFCURVE",
"627 455 OFFCURVE",
"635 447 CURVE",
"638 436 OFFCURVE",
"645 427 OFFCURVE",
"651 417 CURVE",
"650 416 OFFCURVE",
"651 415 OFFCURVE",
"652 414 CURVE",
"653 394 OFFCURVE",
"661 381 OFFCURVE",
"663 362 CURVE",
"663 359 LINE"
);
}
);
width = 787;
}
);
unicode = 004F;
},
{
glyphname = P;
layers = (
{
layerId = "7C3BCDA4-8F92-4DF1-91BA-B714BE37B8B5";
paths = (
{
closed = 1;
nodes = (
"231 280 OFFCURVE",
"235 282 OFFCURVE",
"239 282 CURVE SMOOTH",
"253 282 LINE",
"264 286 OFFCURVE",
"277 286 OFFCURVE",
"287 288 CURVE SMOOTH",
"300 291 OFFCURVE",
"315 296 OFFCURVE",
"324 301 CURVE",
"328 304 OFFCURVE",
"334 306 OFFCURVE",
"339 307 CURVE",
"348 315 OFFCURVE",
"355 324 OFFCURVE",
"366 329 CURVE",
"375 337 OFFCURVE",
"381 347 OFFCURVE",
"391 353 CURVE",
"394 363 OFFCURVE",
"402 367 OFFCURVE",
"406 375 CURVE SMOOTH",
"410 383 OFFCURVE",
"415 391 OFFCURVE",
"420 399 CURVE",
"424 427 OFFCURVE",
"432 451 OFFCURVE",
"429 487 CURVE",
"426 497 OFFCURVE",
"426 508 OFFCURVE",
"425 518 CURVE",
"423 529 OFFCURVE",
"418 539 OFFCURVE",
"417 548 CURVE",
"403 568 OFFCURVE",
"390 588 OFFCURVE",
"374 605 CURVE",
"368 609 OFFCURVE",
"362 613 OFFCURVE",
"354 615 CURVE",
"349 623 OFFCURVE",
"341 628 OFFCURVE",
"333 633 CURVE",
"322 637 OFFCURVE",
"312 642 OFFCURVE",
"300 644 CURVE",
"294 646 OFFCURVE",
"288 646 OFFCURVE",
"281 648 CURVE",
"275 649 OFFCURVE",
"268 652 OFFCURVE",
"262 652 CURVE",
"257 653 OFFCURVE",
"252 652 OFFCURVE",
"246 652 CURVE",
"239 651 LINE",
"235 651 OFFCURVE",
"233 652 OFFCURVE",
"231 652 CURVE SMOOTH",
"219 652 OFFCURVE",
"207 653 OFFCURVE",
"196 651 CURVE",
"170 662 OFFCURVE",
"127 652 OFFCURVE",
"90 656 CURVE",
"79 655 OFFCURVE",
"75 658 OFFCURVE",
"67 654 CURVE",
"51 631 OFFCURVE",
"66 587 OFFCURVE",
"59 555 CURVE",
"58 546 OFFCURVE",
"63 544 OFFCURVE",
"62 536 CURVE",
"58 520 OFFCURVE",
"63 501 OFFCURVE",
"64 488 CURVE",
"64 485 OFFCURVE",
"62 482 OFFCURVE",
"62 479 CURVE SMOOTH",
"62 465 OFFCURVE",
"64 452 OFFCURVE",
"64 438 CURVE",
"63 412 OFFCURVE",
"65 387 OFFCURVE",
"65 361 CURVE SMOOTH",
"65 355 OFFCURVE",
"64 349 OFFCURVE",
"64 343 CURVE",
"63 329 OFFCURVE",
"65 315 OFFCURVE",
"65 301 CURVE SMOOTH",
"65 282 OFFCURVE",
"62 258 OFFCURVE",
"62 243 CURVE SMOOTH",
"62 239 OFFCURVE",
"64 235 OFFCURVE",
"64 231 CURVE",
"63 224 OFFCURVE",
"60 217 OFFCURVE",
"60 209 CURVE SMOOTH",
"60 183 OFFCURVE",
"64 157 OFFCURVE",
"64 131 CURVE",
"63 119 OFFCURVE",
"63 108 OFFCURVE",
"64 96 CURVE",
"64 83 OFFCURVE",
"63 70 OFFCURVE",
"65 58 CURVE",
"61 47 OFFCURVE",
"60 26 OFFCURVE",
"62 14 CURVE",
"66 10 OFFCURVE",
"70 8 OFFCURVE",
"73 3 CURVE",
"96 7 OFFCURVE",
"124 6 OFFCURVE",
"147 9 CURVE",
"153 30 OFFCURVE",
"150 53 OFFCURVE",
"149 74 CURVE SMOOTH",
"148 88 OFFCURVE",
"148 104 OFFCURVE",
"149 113 CURVE",
"149 117 OFFCURVE",
"147 118 OFFCURVE",
"147 121 CURVE SMOOTH",
"147 127 OFFCURVE",
"149 132 OFFCURVE",
"149 137 CURVE",
"148 155 OFFCURVE",
"146 173 OFFCURVE",
"146 190 CURVE",
"145 219 OFFCURVE",
"148 249 OFFCURVE",
"146 274 CURVE",
"151 280 OFFCURVE",
"161 283 OFFCURVE",
"174 282 CURVE",
"187 282 OFFCURVE",
"198 284 OFFCURVE",
"209 284 CURVE",
"227 280 LINE"
);
},
{
closed = 1;
nodes = (
"353 476 OFFCURVE",
"350 469 OFFCURVE",
"354 460 CURVE",
"349 456 OFFCURVE",
"350 447 OFFCURVE",
"347 441 CURVE",
"344 436 OFFCURVE",
"343 429 OFFCURVE",
"343 421 CURVE",
"340 416 OFFCURVE",
"334 414 OFFCURVE",
"335 406 CURVE",
"322 395 OFFCURVE",
"311 383 OFFCURVE",
"295 375 CURVE",
"243 358 LINE",
"223 355 OFFCURVE",
"204 358 OFFCURVE",
"185 358 CURVE SMOOTH",
"173 358 OFFCURVE",
"161 353 OFFCURVE",
"150 359 CURVE",
"149 377 OFFCURVE",
"145 397 OFFCURVE",
"146 416 CURVE",
"146 418 OFFCURVE",
"145 421 OFFCURVE",
"146 424 CURVE",
"146 424 OFFCURVE",
"149 428 OFFCURVE",
"149 429 CURVE SMOOTH",
"149 431 OFFCURVE",
"147 435 OFFCURVE",
"147 440 CURVE",
"146 454 OFFCURVE",
"147 461 OFFCURVE",
"138 468 CURVE",
"140 475 OFFCURVE",
"147 478 OFFCURVE",
"149 487 CURVE",
"147 501 OFFCURVE",
"143 520 OFFCURVE",
"149 533 CURVE",
"144 545 OFFCURVE",
"145 569 OFFCURVE",
"153 578 CURVE",
"156 578 OFFCURVE",
"159 579 OFFCURVE",
"160 581 CURVE",
"186 576 OFFCURVE",
"223 580 OFFCURVE",
"251 577 CURVE",
"278 570 OFFCURVE",
"300 557 OFFCURVE",
"320 544 CURVE",
"330 533 OFFCURVE",
"336 518 OFFCURVE",
"346 507 CURVE",
"346 499 OFFCURVE",
"350 495 OFFCURVE",
"352 488 CURVE",
"355 484 LINE"
);
}
);
width = 452;
}
);
unicode = 0050;
},
{
glyphname = Q;
layers = (
{
layerId = "7C3BCDA4-8F92-4DF1-91BA-B714BE37B8B5";
paths = (
{
closed = 1;
nodes = (
"437 665 OFFCURVE",
"430 667 OFFCURVE",
"423 670 CURVE",
"408 666 OFFCURVE",
"396 672 OFFCURVE",
"382 673 CURVE",
"374 672 OFFCURVE",
"365 669 OFFCURVE",
"355 668 CURVE SMOOTH",
"342 667 OFFCURVE",
"328 669 OFFCURVE",
"316 667 CURVE",
"309 660 OFFCURVE",
"296 660 OFFCURVE",
"286 657 CURVE",
"269 654 OFFCURVE",
"251 649 OFFCURVE",
"241 643 CURVE",
"235 639 OFFCURVE",
"227 637 OFFCURVE",
"219 635 CURVE",
"204 625 OFFCURVE",
"190 613 OFFCURVE",
"171 607 CURVE",
"166 599 OFFCURVE",
"159 595 OFFCURVE",
"152 589 CURVE",
"145 584 OFFCURVE",
"138 577 OFFCURVE",
"130 574 CURVE",
"124 562 OFFCURVE",
"115 552 OFFCURVE",
"104 545 CURVE",
"101 530 OFFCURVE",
"88 526 OFFCURVE",
"82 514 CURVE",
"68 491 OFFCURVE",
"59 463 OFFCURVE",
"46 440 CURVE",
"44 421 OFFCURVE",
"40 405 OFFCURVE",
"35 389 CURVE",
"37 378 OFFCURVE",
"32 367 OFFCURVE",
"32 356 CURVE",
"31 348 OFFCURVE",
"34 340 OFFCURVE",
"33 332 CURVE",
"33 323 OFFCURVE",
"30 315 OFFCURVE",
"30 307 CURVE",
"31 290 OFFCURVE",
"35 274 OFFCURVE",
"38 258 CURVE SMOOTH",
"43 235 LINE",
"45 228 OFFCURVE",
"51 221 OFFCURVE",
"48 213 CURVE",
"58 198 OFFCURVE",
"65 178 OFFCURVE",
"74 162 CURVE",
"85 146 OFFCURVE",
"97 132 OFFCURVE",
"108 116 CURVE",
"120 108 OFFCURVE",
"128 95 OFFCURVE",
"141 86 CURVE SMOOTH",
"147 82 OFFCURVE",
"151 76 OFFCURVE",
"160 74 CURVE",
"164 67 OFFCURVE",
"171 63 OFFCURVE",
"175 57 CURVE",
"186 54 OFFCURVE",
"192 47 OFFCURVE",
"201 42 CURVE",
"209 37 OFFCURVE",
"219 35 OFFCURVE",
"226 28 CURVE",
"233 29 OFFCURVE",
"236 25 OFFCURVE",
"243 25 CURVE",
"247 21 OFFCURVE",
"254 20 OFFCURVE",
"257 16 CURVE",
"284 8 OFFCURVE",
"310 -1 OFFCURVE",
"341 -5 CURVE",
"370 -3 OFFCURVE",
"407 -8 OFFCURVE",
"435 1 CURVE",
"443 3 OFFCURVE",
"446 -1 OFFCURVE",
"453 0 CURVE",
"475 9 OFFCURVE",
"499 16 OFFCURVE",
"524 23 CURVE",
"538 32 OFFCURVE",
"549 43 OFFCURVE",
"569 45 CURVE",
"580 41 OFFCURVE",
"589 33 OFFCURVE",
"593 22 CURVE",
"611 16 OFFCURVE",
"616 -3 OFFCURVE",
"634 -10 CURVE",
"648 -10 OFFCURVE",
"662 -9 OFFCURVE",
"673 -10 CURVE",
"684 -10 LINE SMOOTH",
"702 -10 OFFCURVE",
"719 -15 OFFCURVE",
"729 -2 CURVE",
"729 4 OFFCURVE",
"729 9 OFFCURVE",
"725 11 CURVE",
"717 20 OFFCURVE",
"708 29 OFFCURVE",
"695 34 CURVE",
"690 40 OFFCURVE",
"687 48 OFFCURVE",
"680 52 CURVE",
"676 59 OFFCURVE",
"664 59 OFFCURVE",
"662 68 CURVE",
"656 72 OFFCURVE",
"651 79 OFFCURVE",
"645 83 CURVE",
"643 87 OFFCURVE",
"640 90 OFFCURVE",
"637 93 CURVE SMOOTH",
"635 95 OFFCURVE",
"630 98 OFFCURVE",
"631 104 CURVE",
"635 114 OFFCURVE",
"646 118 OFFCURVE",
"654 124 CURVE",
"661 134 OFFCURVE",
"668 144 OFFCURVE",
"678 151 CURVE",
"681 162 OFFCURVE",
"688 169 OFFCURVE",
"694 176 CURVE",
"695 191 OFFCURVE",
"703 199 OFFCURVE",
"708 209 CURVE",
"711 225 OFFCURVE",
"716 239 OFFCURVE",
"722 252 CURVE",
"725 294 OFFCURVE",
"728 335 OFFCURVE",
"727 381 CURVE",
"722 398 OFFCURVE",
"721 415 OFFCURVE",
"716 430 CURVE SMOOTH",
"711 445 OFFCURVE",
"702 459 OFFCURVE",
"699 474 CURVE",
"689 488 OFFCURVE",
"678 501 OFFCURVE",
"672 518 CURVE",
"661 530 OFFCURVE",
"653 544 OFFCURVE",
"643 556 CURVE",
"631 565 OFFCURVE",
"621 581 OFFCURVE",
"609 586 CURVE",
"608 586 OFFCURVE",
"608 589 OFFCURVE",
"607 589 CURVE",
"606 590 OFFCURVE",
"605 589 OFFCURVE",
"604 589 CURVE",
"604 590 OFFCURVE",
"603 592 OFFCURVE",
"602 592 CURVE",
"602 593 OFFCURVE",
"600 592 OFFCURVE",
"599 592 CURVE",
"598 596 LINE",
"593 600 OFFCURVE",
"588 602 OFFCURVE",
"584 605 CURVE",
"580 607 OFFCURVE",
"576 608 OFFCURVE",
"574 611 CURVE",
"567 613 OFFCURVE",
"565 620 OFFCURVE",
"558 621 CURVE",
"549 628 OFFCURVE",
"537 633 OFFCURVE",
"527 640 CURVE",
"502 646 OFFCURVE",
"481 655 OFFCURVE",
"457 662 CURVE",
"443 662 LINE"
);
},
{
closed = 1;
nodes = (
"510 217 OFFCURVE",
"503 224 OFFCURVE",
"498 230 CURVE",
"496 232 OFFCURVE",
"495 236 OFFCURVE",
"494 238 CURVE",
"487 243 LINE",
"479 250 OFFCURVE",
"472 258 OFFCURVE",
"461 263 CURVE",
"442 263 OFFCURVE",
"421 258 OFFCURVE",
"405 265 CURVE",
"398 266 OFFCURVE",
"395 262 OFFCURVE",
"390 261 CURVE",
"376 264 OFFCURVE",
"360 264 OFFCURVE",
"357 252 CURVE",
"357 239 OFFCURVE",
"367 236 OFFCURVE",
"374 230 CURVE SMOOTH",
"381 224 OFFCURVE",
"388 218 OFFCURVE",
"393 209 CURVE",
"404 204 OFFCURVE",
"414 197 OFFCURVE",
"421 187 CURVE",
"432 181 OFFCURVE",
"440 172 OFFCURVE",
"448 164 CURVE",
"456 155 OFFCURVE",
"467 149 OFFCURVE",
"475 140 CURVE",
"481 138 OFFCURVE",
"484 132 OFFCURVE",
"489 129 CURVE",
"492 125 OFFCURVE",
"501 125 OFFCURVE",
"500 116 CURVE",
"501 109 OFFCURVE",
"495 110 OFFCURVE",
"492 107 CURVE",
"487 107 OFFCURVE",
"486 101 OFFCURVE",
"480 102 CURVE",
"471 100 OFFCURVE",
"463 96 OFFCURVE",
"456 93 CURVE",
"442 89 OFFCURVE",
"422 91 OFFCURVE",
"409 86 CURVE",
"397 85 OFFCURVE",
"388 88 OFFCURVE",
"379 88 CURVE SMOOTH",
"372 88 OFFCURVE",
"368 86 OFFCURVE",
"361 86 CURVE",
"346 87 OFFCURVE",
"332 95 OFFCURVE",
"314 93 CURVE",
"296 98 OFFCURVE",
"280 104 OFFCURVE",
"264 112 CURVE",
"256 115 OFFCURVE",
"248 118 OFFCURVE",
"240 123 CURVE",
"235 127 LINE",
"230 130 OFFCURVE",
"223 132 OFFCURVE",
"218 135 CURVE",
"206 143 OFFCURVE",
"197 156 OFFCURVE",
"186 165 CURVE",
"184 168 OFFCURVE",
"179 169 OFFCURVE",
"177 172 CURVE",
"174 176 LINE",
"169 182 OFFCURVE",
"164 191 OFFCURVE",
"158 197 CURVE",
"156 208 OFFCURVE",
"149 214 OFFCURVE",
"144 222 CURVE",
"143 233 OFFCURVE",
"136 237 OFFCURVE",
"134 247 CURVE",
"134 256 OFFCURVE",
"127 263 OFFCURVE",
"125 272 CURVE SMOOTH",
"122 284 OFFCURVE",
"124 297 OFFCURVE",
"119 307 CURVE",
"118 324 OFFCURVE",
"118 333 OFFCURVE",
"119 350 CURVE",
"122 366 OFFCURVE",
"124 384 OFFCURVE",
"128 400 CURVE",
"133 414 OFFCURVE",
"140 427 OFFCURVE",
"145 441 CURVE",
"152 449 OFFCURVE",
"158 458 OFFCURVE",
"164 466 CURVE",
"164 474 OFFCURVE",
"171 474 OFFCURVE",
"172 481 CURVE",
"177 483 OFFCURVE",
"177 489 OFFCURVE",
"180 493 CURVE",
"196 502 OFFCURVE",
"207 518 OFFCURVE",
"223 528 CURVE",
"236 539 OFFCURVE",
"254 547 OFFCURVE",
"268 558 CURVE",
"281 559 OFFCURVE",
"291 567 OFFCURVE",
"305 570 CURVE",
"313 573 OFFCURVE",
"321 572 OFFCURVE",
"330 574 CURVE",
"341 575 OFFCURVE",
"352 580 OFFCURVE",
"363 581 CURVE",
"390 579 OFFCURVE",
"418 578 OFFCURVE",
"443 574 CURVE",
"464 568 OFFCURVE",
"481 560 OFFCURVE",
"502 555 CURVE",
"513 546 OFFCURVE",
"528 540 OFFCURVE",
"538 529 CURVE",
"552 523 OFFCURVE",
"559 510 OFFCURVE",
"573 504 CURVE",
"581 490 OFFCURVE",
"591 478 OFFCURVE",
"602 466 CURVE",
"610 450 OFFCURVE",
"621 436 OFFCURVE",
"628 417 CURVE",
"629 415 OFFCURVE",
"628 412 OFFCURVE",
"629 410 CURVE",
"635 396 OFFCURVE",
"639 372 OFFCURVE",
"642 353 CURVE",
"643 337 OFFCURVE",
"639 324 OFFCURVE",
"642 312 CURVE",
"637 298 OFFCURVE",
"635 282 OFFCURVE",
"631 268 CURVE",
"625 256 OFFCURVE",
"621 242 OFFCURVE",
"615 230 CURVE",
"605 203 OFFCURVE",
"594 179 OFFCURVE",
"573 164 CURVE",
"564 165 OFFCURVE",
"562 173 OFFCURVE",
"555 176 CURVE",
"552 183 OFFCURVE",
"544 184 OFFCURVE",
"543 192 CURVE",
"535 194 OFFCURVE",
"532 202 OFFCURVE",
"527 206 CURVE",
"524 209 OFFCURVE",
"520 209 OFFCURVE",
"517 211 CURVE",
"516 214 LINE"
);
}
);
width = 776;
}
);
unicode = 0051;
},
{
glyphname = R;
layers = (
{
layerId = "7C3BCDA4-8F92-4DF1-91BA-B714BE37B8B5";
paths = (
{
closed = 1;
nodes = (
"258 171 OFFCURVE",
"271 151 OFFCURVE",
"287 135 CURVE",
"292 127 OFFCURVE",
"298 117 OFFCURVE",
"301 110 CURVE",
"305 109 LINE",
"306 105 OFFCURVE",
"307 100 OFFCURVE",
"309 97 CURVE",
"314 91 OFFCURVE",
"323 87 OFFCURVE",
"325 79 CURVE",
"330 71 OFFCURVE",
"337 66 OFFCURVE",
"341 58 CURVE SMOOTH",
"345 50 OFFCURVE",
"351 44 OFFCURVE",
"357 38 CURVE",
"358 33 OFFCURVE",
"363 32 OFFCURVE",
"364 28 CURVE",
"370 27 OFFCURVE",
"367 18 OFFCURVE",
"374 19 CURVE",
"379 15 OFFCURVE",
"387 14 OFFCURVE",
"393 11 CURVE",
"415 14 OFFCURVE",
"442 13 OFFCURVE",
"454 27 CURVE",
"454 32 OFFCURVE",
"457 33 OFFCURVE",
"456 39 CURVE",
"455 41 OFFCURVE",
"454 42 OFFCURVE",
"454 45 CURVE",
"427 66 OFFCURVE",
"411 98 OFFCURVE",
"390 124 CURVE",
"386 127 OFFCURVE",
"385 132 OFFCURVE",
"383 135 CURVE",
"377 148 OFFCURVE",
"367 156 OFFCURVE",
"360 167 CURVE",
"354 174 OFFCURVE",
"351 183 OFFCURVE",
"344 187 CURVE",
"343 198 OFFCURVE",
"333 200 OFFCURVE",
"328 208 CURVE",
"326 214 OFFCURVE",
"322 218 OFFCURVE",
"320 224 CURVE",
"309 231 OFFCURVE",
"303 243 OFFCURVE",
"295 254 CURVE",
"289 257 OFFCURVE",
"288 266 OFFCURVE",
"282 269 CURVE",
"278 275 OFFCURVE",
"273 279 OFFCURVE",
"273 288 CURVE",
"279 293 OFFCURVE",
"287 294 OFFCURVE",
"297 295 CURVE",
"311 303 OFFCURVE",
"329 308 OFFCURVE",
"344 317 CURVE",
"344 318 OFFCURVE",
"345 318 OFFCURVE",
"347 318 CURVE",
"356 333 OFFCURVE",
"368 343 OFFCURVE",
"382 353 CURVE",
"395 377 OFFCURVE",
"406 404 OFFCURVE",
"415 433 CURVE",
"413 445 OFFCURVE",
"417 452 OFFCURVE",
"418 462 CURVE",
"416 473 OFFCURVE",
"415 490 OFFCURVE",
"420 499 CURVE",
"415 504 OFFCURVE",
"416 515 OFFCURVE",
"412 522 CURVE",
"411 531 OFFCURVE",
"404 535 OFFCURVE",
"405 547 CURVE",
"388 572 LINE",
"385 574 LINE",
"383 578 LINE",
"383 579 OFFCURVE",
"381 579 OFFCURVE",
"380 580 CURVE SMOOTH",
"379 581 OFFCURVE",
"380 583 OFFCURVE",
"379 585 CURVE",
"373 592 OFFCURVE",
"365 597 OFFCURVE",
"358 602 CURVE",
"341 616 LINE",
"331 624 LINE",
"316 630 OFFCURVE",
"307 637 OFFCURVE",
"292 641 CURVE SMOOTH",
"282 644 OFFCURVE",
"275 646 OFFCURVE",
"265 648 CURVE SMOOTH",
"260 649 OFFCURVE",
"255 651 OFFCURVE",
"251 651 CURVE SMOOTH",
"237 651 OFFCURVE",
"221 645 OFFCURVE",
"208 654 CURVE",
"203 653 OFFCURVE",
"200 650 OFFCURVE",
"194 649 CURVE",
"180 654 OFFCURVE",
"166 650 OFFCURVE",
"152 651 CURVE",
"145 651 OFFCURVE",
"137 654 OFFCURVE",
"130 654 CURVE SMOOTH",
"119 654 OFFCURVE",
"109 651 OFFCURVE",
"98 652 CURVE",
"84 647 OFFCURVE",
"63 649 OFFCURVE",
"57 635 CURVE",
"56 624 OFFCURVE",
"60 618 OFFCURVE",
"60 608 CURVE",
"57 595 OFFCURVE",
"58 581 OFFCURVE",
"59 569 CURVE",
"59 566 OFFCURVE",
"57 565 OFFCURVE",
"57 563 CURVE SMOOTH",
"57 560 OFFCURVE",
"59 557 OFFCURVE",
"59 555 CURVE",
"57 521 OFFCURVE",
"56 488 OFFCURVE",
"60 455 CURVE",
"61 449 OFFCURVE",
"58 445 OFFCURVE",
"57 440 CURVE",
"58 434 OFFCURVE",
"62 431 OFFCURVE",
"62 424 CURVE",
"59 411 OFFCURVE",
"56 397 OFFCURVE",
"57 383 CURVE",
"57 375 OFFCURVE",
"60 368 OFFCURVE",
"60 361 CURVE",
"61 351 OFFCURVE",
"59 343 OFFCURVE",
"57 334 CURVE",
"60 326 OFFCURVE",
"59 312 OFFCURVE",
"57 304 CURVE",
"59 299 OFFCURVE",
"61 293 OFFCURVE",
"62 287 CURVE",
"62 267 OFFCURVE",
"58 243 OFFCURVE",
"62 222 CURVE",
"56 200 OFFCURVE",
"61 166 OFFCURVE",
"55 143 CURVE",
"55 136 OFFCURVE",
"59 133 OFFCURVE",
"59 126 CURVE",
"60 99 OFFCURVE",
"56 77 OFFCURVE",
"57 50 CURVE",
"55 39 OFFCURVE",
"53 33 OFFCURVE",
"57 23 CURVE",
"66 5 OFFCURVE",
"102 6 OFFCURVE",
"128 9 CURVE",
"135 14 OFFCURVE",
"139 21 OFFCURVE",
"144 28 CURVE",
"141 53 OFFCURVE",
"144 81 OFFCURVE",
"142 109 CURVE",
"142 119 OFFCURVE",
"139 129 OFFCURVE",
"139 138 CURVE SMOOTH",
"139 153 OFFCURVE",
"143 166 OFFCURVE",
"137 178 CURVE",
"138 185 OFFCURVE",
"144 187 OFFCURVE",
"144 195 CURVE",
"141 204 OFFCURVE",
"139 211 OFFCURVE",
"141 219 CURVE",
"142 231 OFFCURVE",
"145 239 OFFCURVE",
"146 249 CURVE",
"146 259 OFFCURVE",
"146 264 OFFCURVE",
"152 274 CURVE",
"165 275 OFFCURVE",
"176 273 OFFCURVE",
"180 265 CURVE",
"185 256 OFFCURVE",
"193 251 OFFCURVE",
"200 246 CURVE",
"204 238 OFFCURVE",
"210 233 OFFCURVE",
"215 227 CURVE",
"220 220 OFFCURVE",
"225 214 OFFCURVE",
"229 206 CURVE",
"246 190 LINE"
);
},
{
closed = 1;
nodes = (
"253 579 OFFCURVE",
"259 570 OFFCURVE",
"276 572 CURVE",
"282 565 OFFCURVE",
"290 561 OFFCURVE",
"301 559 CURVE",
"312 544 OFFCURVE",
"327 532 OFFCURVE",
"336 515 CURVE",
"339 504 OFFCURVE",
"343 494 OFFCURVE",
"347 484 CURVE",
"347 447 OFFCURVE",
"330 427 OFFCURVE",
"319 402 CURVE",
"313 398 OFFCURVE",
"308 395 OFFCURVE",
"305 389 CURVE",
"290 383 LINE",
"284 382 OFFCURVE",
"284 376 OFFCURVE",
"278 375 CURVE",
"267 372 OFFCURVE",
"262 364 OFFCURVE",
"253 359 CURVE",
"215 361 OFFCURVE",
"188 354 OFFCURVE",
"155 359 CURVE",
"144 372 LINE",
"143 385 OFFCURVE",
"144 406 OFFCURVE",
"141 421 CURVE",
"142 431 OFFCURVE",
"143 442 OFFCURVE",
"145 452 CURVE",
"142 463 OFFCURVE",
"141 477 OFFCURVE",
"137 488 CURVE",
"139 511 OFFCURVE",
"137 529 OFFCURVE",
"142 548 CURVE",
"141 559 OFFCURVE",
"139 564 OFFCURVE",
"141 575 CURVE",
"152 584 OFFCURVE",
"169 581 OFFCURVE",
"188 581 CURVE SMOOTH",
"240 581 LINE"
);
}
);
width = 495;
}
);
unicode = 0052;
},
{
glyphname = S;
layers = (
{
layerId = "7C3BCDA4-8F92-4DF1-91BA-B714BE37B8B5";
paths = (
{
closed = 1;
nodes = (
"128 166 OFFCURVE",
"126 173 OFFCURVE",
"125 179 CURVE",
"121 183 OFFCURVE",
"124 194 OFFCURVE",
"116 194 CURVE",
"107 199 OFFCURVE",
"94 187 OFFCURVE",
"86 192 CURVE",
"75 190 OFFCURVE",
"64 188 OFFCURVE",
"55 184 CURVE",
"49 172 OFFCURVE",
"53 157 OFFCURVE",
"55 143 CURVE",
"58 137 OFFCURVE",
"63 132 OFFCURVE",
"64 123 CURVE",
"67 115 OFFCURVE",
"72 110 OFFCURVE",
"73 101 CURVE",
"80 96 OFFCURVE",
"84 89 OFFCURVE",
"89 83 CURVE SMOOTH",
"94 77 OFFCURVE",
"101 73 OFFCURVE",
"103 64 CURVE",
"123 58 OFFCURVE",
"132 41 OFFCURVE",
"149 33 CURVE",
"165 23 OFFCURVE",
"186 18 OFFCURVE",
"203 9 CURVE",
"213 10 OFFCURVE",
"220 8 OFFCURVE",
"228 6 CURVE",
"262 5 OFFCURVE",
"278 7 OFFCURVE",
"310 8 CURVE",
"323 11 OFFCURVE",
"333 17 OFFCURVE",
"349 17 CURVE",
"357 24 OFFCURVE",
"369 26 OFFCURVE",
"376 33 CURVE",
"386 38 OFFCURVE",
"394 45 OFFCURVE",
"403 50 CURVE",
"407 55 OFFCURVE",
"410 61 OFFCURVE",
"416 64 CURVE",
"415 69 OFFCURVE",
"420 70 OFFCURVE",
"422 72 CURVE SMOOTH",
"426 76 OFFCURVE",
"429 79 OFFCURVE",
"431 83 CURVE",
"434 88 OFFCURVE",
"435 93 OFFCURVE",
"438 97 CURVE",
"444 101 OFFCURVE",
"446 109 OFFCURVE",
"450 115 CURVE",
"453 121 OFFCURVE",
"453 128 OFFCURVE",
"455 134 CURVE SMOOTH",
"457 140 OFFCURVE",
"461 144 OFFCURVE",
"463 151 CURVE",
"464 156 OFFCURVE",
"465 166 OFFCURVE",
"464 170 CURVE",
"460 190 OFFCURVE",
"476 214 OFFCURVE",
"466 237 CURVE",
"469 255 OFFCURVE",
"450 272 OFFCURVE",
"447 291 CURVE",
"433 307 OFFCURVE",
"420 324 OFFCURVE",
"404 339 CURVE",
"392 346 OFFCURVE",
"381 356 OFFCURVE",
"368 362 CURVE",
"363 367 OFFCURVE",
"357 371 OFFCURVE",
"349 373 CURVE",
"342 377 OFFCURVE",
"336 381 OFFCURVE",
"329 384 CURVE",
"307 390 OFFCURVE",
"289 399 OFFCURVE",
"269 406 CURVE SMOOTH",
"249 413 OFFCURVE",
"233 425 OFFCURVE",
"211 430 CURVE",
"198 441 OFFCURVE",
"181 448 OFFCURVE",
"170 460 CURVE",
"166 470 OFFCURVE",
"162 480 OFFCURVE",
"160 492 CURVE",
"164 517 OFFCURVE",
"174 535 OFFCURVE",
"184 555 CURVE",
"201 572 OFFCURVE",
"222 584 OFFCURVE",
"250 591 CURVE",
"262 590 OFFCURVE",
"273 591 OFFCURVE",
"283 592 CURVE",
"304 588 OFFCURVE",
"321 581 OFFCURVE",
"338 574 CURVE",
"340 571 OFFCURVE",
"341 569 OFFCURVE",
"345 569 CURVE",
"350 562 OFFCURVE",
"356 557 OFFCURVE",
"360 550 CURVE",
"367 545 OFFCURVE",
"368 533 OFFCURVE",
"379 533 CURVE",
"395 532 OFFCURVE",
"401 540 OFFCURVE",
"409 547 CURVE",
"419 552 OFFCURVE",
"432 554 OFFCURVE",
"434 566 CURVE",
"434 589 OFFCURVE",
"418 598 OFFCURVE",
"409 613 CURVE",
"403 613 OFFCURVE",
"401 620 OFFCURVE",
"397 622 CURVE",
"392 625 OFFCURVE",
"386 626 OFFCURVE",
"381 629 CURVE",
"380 629 OFFCURVE",
"380 631 OFFCURVE",
"379 632 CURVE SMOOTH",
"378 633 OFFCURVE",
"376 633 OFFCURVE",
"375 633 CURVE",
"367 639 OFFCURVE",
"361 645 OFFCURVE",
"354 649 CURVE",
"340 646 OFFCURVE",
"334 654 OFFCURVE",
"327 656 CURVE",
"321 657 OFFCURVE",
"316 654 OFFCURVE",
"311 659 CURVE",
"298 657 OFFCURVE",
"290 661 OFFCURVE",
"280 662 CURVE",
"258 660 OFFCURVE",
"247 663 OFFCURVE",
"226 662 CURVE",
"219 660 OFFCURVE",
"215 653 OFFCURVE",
"207 651 CURVE",
"196 650 OFFCURVE",
"190 644 OFFCURVE",
"179 643 CURVE",
"172 635 OFFCURVE",
"162 629 OFFCURVE",
"151 626 CURVE",
"148 621 OFFCURVE",
"145 617 OFFCURVE",
"138 616 CURVE",
"132 605 OFFCURVE",
"122 596 OFFCURVE",
"113 588 CURVE",
"111 576 OFFCURVE",
"100 570 OFFCURVE",
"96 559 CURVE",
"94 557 OFFCURVE",
"95 553 OFFCURVE",
"94 550 CURVE",
"94 549 OFFCURVE",
"91 548 OFFCURVE",
"91 547 CURVE",
"88 537 OFFCURVE",
"89 530 OFFCURVE",
"86 522 CURVE",
"87 505 OFFCURVE",
"84 493 OFFCURVE",
"85 477 CURVE",
"87 458 OFFCURVE",
"92 442 OFFCURVE",
"97 425 CURVE",
"108 410 OFFCURVE",
"121 397 OFFCURVE",
"133 384 CURVE",
"147 380 OFFCURVE",
"158 372 OFFCURVE",
"168 364 CURVE",
"179 361 OFFCURVE",
"188 356 OFFCURVE",
"196 350 CURVE",
"214 347 OFFCURVE",
"224 338 OFFCURVE",
"242 337 CURVE",
"258 327 OFFCURVE",
"280 322 OFFCURVE",
"296 312 CURVE SMOOTH",
"312 302 OFFCURVE",
"327 291 OFFCURVE",
"345 282 CURVE",
"352 272 OFFCURVE",
"363 265 OFFCURVE",
"370 254 CURVE",
"371 248 OFFCURVE",
"374 245 OFFCURVE",
"376 241 CURVE",
"377 225 OFFCURVE",
"386 217 OFFCURVE",
"387 202 CURVE",
"387 184 OFFCURVE",
"377 177 OFFCURVE",
"378 159 CURVE",
"372 149 OFFCURVE",
"368 136 OFFCURVE",
"362 126 CURVE",
"353 118 OFFCURVE",
"343 113 OFFCURVE",
"335 104 CURVE",
"316 98 OFFCURVE",
"299 87 OFFCURVE",
"275 85 CURVE SMOOTH",
"262 84 OFFCURVE",
"248 86 OFFCURVE",
"231 85 CURVE",
"211 90 OFFCURVE",
"195 99 OFFCURVE",
"173 102 CURVE",
"170 108 OFFCURVE",
"162 109 OFFCURVE",
"160 116 CURVE",
"157 119 OFFCURVE",
"157 123 OFFCURVE",
"155 127 CURVE",
"147 134 OFFCURVE",
"140 141 OFFCURVE",
"135 151 CURVE SMOOTH",
"130 161 LINE"
);
}
);
width = 499;
}
);
unicode = 0053;
},
{
glyphname = T;
layers = (
{
layerId = "7C3BCDA4-8F92-4DF1-91BA-B714BE37B8B5";
paths = (
{
closed = 1;
nodes = (
"426 643 OFFCURVE",
"417 645 OFFCURVE",
"410 649 CURVE",
"398 649 OFFCURVE",
"387 651 OFFCURVE",
"374 651 CURVE SMOOTH",
"361 651 OFFCURVE",
"349 649 OFFCURVE",
"336 649 CURVE",
"322 650 OFFCURVE",
"309 651 OFFCURVE",
"295 651 CURVE SMOOTH",
"281 651 OFFCURVE",
"268 649 OFFCURVE",
"254 649 CURVE",
"246 650 OFFCURVE",
"237 653 OFFCURVE",
"229 652 CURVE",
"219 652 OFFCURVE",
"212 650 OFFCURVE",
"204 649 CURVE",
"188 652 OFFCURVE",
"171 650 OFFCURVE",
"153 649 CURVE",
"151 649 OFFCURVE",
"151 651 OFFCURVE",
"149 651 CURVE SMOOTH",
"146 651 OFFCURVE",
"146 649 OFFCURVE",
"142 649 CURVE SMOOTH",
"129 649 OFFCURVE",
"115 652 OFFCURVE",
"101 652 CURVE SMOOTH",
"82 652 OFFCURVE",
"66 648 OFFCURVE",
"52 644 CURVE SMOOTH",
"44 642 OFFCURVE",
"36 641 OFFCURVE",
"30 635 CURVE",
"28 615 OFFCURVE",
"31 589 OFFCURVE",
"41 577 CURVE",
"47 573 OFFCURVE",
"53 575 OFFCURVE",
"60 575 CURVE SMOOTH",
"67 575 OFFCURVE",
"75 574 OFFCURVE",
"82 574 CURVE SMOOTH",
"95 574 OFFCURVE",
"110 577 OFFCURVE",
"120 577 CURVE SMOOTH",
"125 577 OFFCURVE",
"129 575 OFFCURVE",
"133 575 CURVE",
"151 576 OFFCURVE",
"167 577 OFFCURVE",
"183 575 CURVE",
"190 569 OFFCURVE",
"190 560 OFFCURVE",
"191 550 CURVE SMOOTH",
"194 520 OFFCURVE",
"191 482 OFFCURVE",
"193 455 CURVE",
"191 444 OFFCURVE",
"189 432 OFFCURVE",
"190 419 CURVE",
"190 411 OFFCURVE",
"193 403 OFFCURVE",
"194 394 CURVE SMOOTH",
"195 386 OFFCURVE",
"194 376 OFFCURVE",
"194 367 CURVE SMOOTH",
"194 359 OFFCURVE",
"196 349 OFFCURVE",
"196 342 CURVE",
"195 336 OFFCURVE",
"191 331 OFFCURVE",
"193 326 CURVE",
"195 314 OFFCURVE",
"196 294 OFFCURVE",
"193 282 CURVE",
"197 264 OFFCURVE",
"196 247 OFFCURVE",
"197 230 CURVE",
"188 195 OFFCURVE",
"202 156 OFFCURVE",
"194 123 CURVE",
"196 117 OFFCURVE",
"198 112 OFFCURVE",
"199 105 CURVE",
"196 87 OFFCURVE",
"197 62 OFFCURVE",
"197 47 CURVE",
"198 42 OFFCURVE",
"195 38 OFFCURVE",
"196 34 CURVE",
"197 27 OFFCURVE",
"201 21 OFFCURVE",
"204 16 CURVE",
"220 9 OFFCURVE",
"247 14 OFFCURVE",
"265 16 CURVE",
"278 30 OFFCURVE",
"278 55 OFFCURVE",
"278 79 CURVE SMOOTH",
"278 114 OFFCURVE",
"273 151 OFFCURVE",
"276 183 CURVE",
"273 193 OFFCURVE",
"268 202 OFFCURVE",
"267 214 CURVE",
"266 222 OFFCURVE",
"273 221 OFFCURVE",
"271 230 CURVE",
"271 242 OFFCURVE",
"271 254 OFFCURVE",
"275 261 CURVE",
"273 279 OFFCURVE",
"270 298 OFFCURVE",
"270 317 CURVE SMOOTH",
"270 328 OFFCURVE",
"272 339 OFFCURVE",
"268 350 CURVE",
"270 379 OFFCURVE",
"273 411 OFFCURVE",
"270 436 CURVE",
"273 446 OFFCURVE",
"275 457 OFFCURVE",
"275 468 CURVE",
"274 482 OFFCURVE",
"268 496 OFFCURVE",
"267 509 CURVE",
"272 518 OFFCURVE",
"268 536 OFFCURVE",
"273 545 CURVE",
"273 560 OFFCURVE",
"275 572 OFFCURVE",
"284 577 CURVE",
"307 579 OFFCURVE",
"344 574 OFFCURVE",
"368 580 CURVE",
"388 578 OFFCURVE",
"418 572 OFFCURVE",
"431 585 CURVE",
"437 595 OFFCURVE",
"433 615 OFFCURVE",
"434 630 CURVE",
"431 637 LINE"
);
}
);
width = 471;
}
);
unicode = 0054;
},
{
glyphname = U;
layers = (
{
layerId = "7C3BCDA4-8F92-4DF1-91BA-B714BE37B8B5";
paths = (
{
closed = 1;
nodes = (
"333 3 OFFCURVE",
"355 5 OFFCURVE",
"373 11 CURVE",
"390 18 OFFCURVE",
"403 28 OFFCURVE",
"422 33 CURVE",
"441 48 OFFCURVE",
"460 64 OFFCURVE",
"480 79 CURVE",
"482 86 OFFCURVE",
"488 90 OFFCURVE",
"490 97 CURVE",
"494 103 OFFCURVE",
"499 107 OFFCURVE",
"501 115 CURVE",
"509 126 OFFCURVE",
"509 144 OFFCURVE",
"518 154 CURVE",
"529 183 OFFCURVE",
"529 217 OFFCURVE",
"532 250 CURVE",
"529 257 OFFCURVE",
"532 271 OFFCURVE",
"529 277 CURVE",
"535 289 OFFCURVE",
"529 306 OFFCURVE",
"532 318 CURVE",
"532 320 OFFCURVE",
"530 320 OFFCURVE",
"531 323 CURVE",
"528 336 OFFCURVE",
"529 357 OFFCURVE",
"531 370 CURVE",
"526 384 OFFCURVE",
"529 405 OFFCURVE",
"526 421 CURVE",
"527 431 OFFCURVE",
"527 436 OFFCURVE",
"529 447 CURVE",
"529 476 OFFCURVE",
"525 514 OFFCURVE",
"531 544 CURVE",
"529 554 OFFCURVE",
"524 562 OFFCURVE",
"523 574 CURVE",
"529 593 OFFCURVE",
"532 623 OFFCURVE",
"523 643 CURVE",
"507 655 OFFCURVE",
"468 654 OFFCURVE",
"450 643 CURVE",
"442 627 OFFCURVE",
"446 606 OFFCURVE",
"446 586 CURVE",
"442 528 LINE",
"444 522 OFFCURVE",
"444 514 OFFCURVE",
"446 509 CURVE",
"443 487 OFFCURVE",
"445 462 OFFCURVE",
"446 444 CURVE SMOOTH",
"447 405 OFFCURVE",
"445 363 OFFCURVE",
"446 323 CURVE SMOOTH",
"446 312 OFFCURVE",
"447 301 OFFCURVE",
"447 290 CURVE SMOOTH",
"447 280 OFFCURVE",
"444 271 OFFCURVE",
"444 261 CURVE SMOOTH",
"444 254 OFFCURVE",
"446 246 OFFCURVE",
"446 239 CURVE",
"445 223 OFFCURVE",
"440 209 OFFCURVE",
"441 194 CURVE",
"437 190 OFFCURVE",
"435 183 OFFCURVE",
"434 176 CURVE",
"430 167 OFFCURVE",
"421 163 OFFCURVE",
"417 153 CURVE",
"416 140 OFFCURVE",
"405 138 OFFCURVE",
"401 127 CURVE",
"394 123 OFFCURVE",
"386 119 OFFCURVE",
"381 112 CURVE",
"370 108 OFFCURVE",
"363 101 OFFCURVE",
"352 97 CURVE",
"340 92 OFFCURVE",
"325 90 OFFCURVE",
"312 85 CURVE",
"286 82 OFFCURVE",
"268 86 OFFCURVE",
"244 88 CURVE",
"231 93 OFFCURVE",
"219 99 OFFCURVE",
"204 102 CURVE",
"189 113 OFFCURVE",
"174 123 OFFCURVE",
"162 137 CURVE",
"148 155 OFFCURVE",
"140 179 OFFCURVE",
"130 202 CURVE",
"130 216 OFFCURVE",
"130 229 OFFCURVE",
"129 243 CURVE SMOOTH",
"128 255 OFFCURVE",
"124 267 OFFCURVE",
"122 279 CURVE",
"132 308 OFFCURVE",
"124 350 OFFCURVE",
"121 381 CURVE",
"127 392 OFFCURVE",
"126 404 OFFCURVE",
"126 416 CURVE",
"125 421 OFFCURVE",
"127 425 OFFCURVE",
"127 430 CURVE SMOOTH",
"127 440 OFFCURVE",
"125 450 OFFCURVE",
"126 460 CURVE",
"126 474 OFFCURVE",
"128 489 OFFCURVE",
"127 503 CURVE SMOOTH",
"126 517 OFFCURVE",
"124 531 OFFCURVE",
"124 545 CURVE SMOOTH",
"124 564 OFFCURVE",
"125 586 OFFCURVE",
"126 603 CURVE",
"126 613 OFFCURVE",
"127 624 OFFCURVE",
"126 632 CURVE",
"124 640 OFFCURVE",
"119 645 OFFCURVE",
"113 651 CURVE",
"94 651 OFFCURVE",
"62 654 OFFCURVE",
"50 644 CURVE",
"47 643 OFFCURVE",
"47 639 OFFCURVE",
"45 637 CURVE",
"43 633 OFFCURVE",
"39 632 OFFCURVE",
"40 627 CURVE",
"38 619 OFFCURVE",
"43 611 OFFCURVE",
"44 602 CURVE",
"44 597 OFFCURVE",
"42 593 OFFCURVE",
"42 588 CURVE SMOOTH",
"42 583 OFFCURVE",
"43 577 OFFCURVE",
"44 572 CURVE",
"44 572 OFFCURVE",
"42 568 OFFCURVE",
"42 566 CURVE",
"43 539 OFFCURVE",
"41 511 OFFCURVE",
"42 485 CURVE SMOOTH",
"43 466 OFFCURVE",
"41 447 OFFCURVE",
"45 430 CURVE",
"38 397 OFFCURVE",
"49 359 OFFCURVE",
"40 326 CURVE",
"45 297 OFFCURVE",
"46 268 OFFCURVE",
"42 239 CURVE",
"43 233 OFFCURVE",
"48 230 OFFCURVE",
"48 222 CURVE",
"45 193 OFFCURVE",
"55 165 OFFCURVE",
"59 138 CURVE",
"69 126 OFFCURVE",
"77 111 OFFCURVE",
"86 97 CURVE SMOOTH",
"95 83 OFFCURVE",
"107 74 OFFCURVE",
"118 61 CURVE",
"129 56 OFFCURVE",
"137 48 OFFCURVE",
"146 41 CURVE",
"158 36 OFFCURVE",
"168 29 OFFCURVE",
"178 22 CURVE",
"193 19 OFFCURVE",
"203 11 OFFCURVE",
"220 9 CURVE",
"234 5 OFFCURVE",
"250 3 OFFCURVE",
"264 -2 CURVE",
"315 -2 LINE"
);
}
);
width = 590;
}
);
unicode = 0055;
},
{
glyphname = V;
layers = (
{
layerId = "7C3BCDA4-8F92-4DF1-91BA-B714BE37B8B5";
paths = (
{
closed = 1;
nodes = (
"622 656 OFFCURVE",
"613 654 OFFCURVE",
"605 654 CURVE SMOOTH",
"586 654 OFFCURVE",
"566 657 OFFCURVE",
"545 654 CURVE",
"534 648 OFFCURVE",
"533 634 OFFCURVE",
"528 622 CURVE",
"524 610 OFFCURVE",
"517 598 OFFCURVE",
"514 586 CURVE",
"508 576 OFFCURVE",
"504 562 OFFCURVE",
"498 551 CURVE",
"498 543 OFFCURVE",
"495 538 OFFCURVE",
"490 534 CURVE",
"490 526 OFFCURVE",
"486 521 OFFCURVE",
"486 514 CURVE",
"481 506 OFFCURVE",
"477 498 OFFCURVE",
"473 490 CURVE",
"472 478 OFFCURVE",
"465 473 OFFCURVE",
"462 463 CURVE",
"460 459 OFFCURVE",
"460 452 OFFCURVE",
"459 447 CURVE",
"453 442 OFFCURVE",
"451 434 OFFCURVE",
"446 429 CURVE",
"446 421 OFFCURVE",
"441 414 OFFCURVE",
"440 410 CURVE",
"437 401 OFFCURVE",
"435 397 OFFCURVE",
"432 391 CURVE",
"430 386 OFFCURVE",
"429 381 OFFCURVE",
"427 377 CURVE",
"424 368 OFFCURVE",
"418 361 OFFCURVE",
"415 353 CURVE",
"414 351 OFFCURVE",
"414 348 OFFCURVE",
"413 347 CURVE",
"411 339 OFFCURVE",
"408 334 OFFCURVE",
"404 328 CURVE",
"403 309 OFFCURVE",
"393 300 OFFCURVE",
"388 287 CURVE",
"385 271 OFFCURVE",
"374 262 OFFCURVE",
"371 247 CURVE",
"368 240 OFFCURVE",
"366 232 OFFCURVE",
"366 222 CURVE",
"361 218 OFFCURVE",
"360 210 OFFCURVE",
"358 203 CURVE",
"353 199 OFFCURVE",
"355 189 OFFCURVE",
"347 187 CURVE",
"339 189 OFFCURVE",
"338 198 OFFCURVE",
"336 205 CURVE",
"333 212 OFFCURVE",
"330 219 OFFCURVE",
"330 227 CURVE",
"316 251 OFFCURVE",
"311 283 OFFCURVE",
"295 304 CURVE",
"293 319 OFFCURVE",
"286 330 OFFCURVE",
"281 342 CURVE",
"263 378 LINE",
"257 389 OFFCURVE",
"255 405 OFFCURVE",
"248 414 CURVE",
"244 428 OFFCURVE",
"234 436 OFFCURVE",
"233 454 CURVE",
"227 459 OFFCURVE",
"222 467 OFFCURVE",
"221 477 CURVE",
"215 484 OFFCURVE",
"213 494 OFFCURVE",
"208 501 CURVE",
"202 519 OFFCURVE",
"193 535 OFFCURVE",
"186 553 CURVE",
"180 560 OFFCURVE",
"178 569 OFFCURVE",
"175 578 CURVE",
"170 585 OFFCURVE",
"165 592 OFFCURVE",
"164 604 CURVE",
"156 614 OFFCURVE",
"155 631 OFFCURVE",
"145 640 CURVE",
"143 644 OFFCURVE",
"143 650 OFFCURVE",
"137 651 CURVE",
"130 653 OFFCURVE",
"119 653 OFFCURVE",
"112 656 CURVE",
"95 650 OFFCURVE",
"65 659 OFFCURVE",
"55 643 CURVE",
"50 623 OFFCURVE",
"67 613 OFFCURVE",
"69 596 CURVE",
"76 581 OFFCURVE",
"84 567 OFFCURVE",
"91 553 CURVE",
"92 546 OFFCURVE",
"96 541 OFFCURVE",
"96 534 CURVE",
"105 519 OFFCURVE",
"113 504 OFFCURVE",
"118 485 CURVE",
"121 481 OFFCURVE",
"123 475 OFFCURVE",
"125 471 CURVE",
"125 471 OFFCURVE",
"127 470 OFFCURVE",
"128 470 CURVE",
"129 467 OFFCURVE",
"128 464 OFFCURVE",
"129 462 CURVE SMOOTH",
"133 454 OFFCURVE",
"139 446 OFFCURVE",
"139 435 CURVE",
"149 421 OFFCURVE",
"155 401 OFFCURVE",
"162 384 CURVE",
"172 370 OFFCURVE",
"176 349 OFFCURVE",
"186 334 CURVE",
"188 324 OFFCURVE",
"194 318 OFFCURVE",
"197 309 CURVE",
"210 280 LINE",
"210 278 OFFCURVE",
"211 277 OFFCURVE",
"211 276 CURVE",
"218 261 OFFCURVE",
"228 248 OFFCURVE",
"230 230 CURVE",
"236 223 OFFCURVE",
"241 214 OFFCURVE",
"246 206 CURVE",
"247 193 OFFCURVE",
"252 183 OFFCURVE",
"259 175 CURVE",
"260 162 OFFCURVE",
"267 154 OFFCURVE",
"270 142 CURVE",
"283 123 OFFCURVE",
"289 96 OFFCURVE",
"300 74 CURVE",
"306 69 OFFCURVE",
"306 58 OFFCURVE",
"311 52 CURVE",
"312 42 OFFCURVE",
"316 35 OFFCURVE",
"317 25 CURVE",
"327 13 OFFCURVE",
"328 -7 OFFCURVE",
"352 -5 CURVE",
"363 0 OFFCURVE",
"364 14 OFFCURVE",
"369 25 CURVE",
"376 34 OFFCURVE",
"377 48 OFFCURVE",
"386 55 CURVE",
"385 65 OFFCURVE",
"389 69 OFFCURVE",
"389 77 CURVE",
"397 90 OFFCURVE",
"403 105 OFFCURVE",
"410 120 CURVE",
"415 141 OFFCURVE",
"427 154 OFFCURVE",
"430 176 CURVE",
"434 182 OFFCURVE",
"439 187 OFFCURVE",
"441 194 CURVE",
"444 200 OFFCURVE",
"447 206 OFFCURVE",
"448 214 CURVE",
"461 231 OFFCURVE",
"464 257 OFFCURVE",
"478 274 CURVE",
"483 302 OFFCURVE",
"498 320 OFFCURVE",
"503 348 CURVE",
"510 358 OFFCURVE",
"515 370 OFFCURVE",
"520 383 CURVE",
"523 389 OFFCURVE",
"524 396 OFFCURVE",
"527 402 CURVE",
"529 408 OFFCURVE",
"534 413 OFFCURVE",
"536 419 CURVE",
"541 431 OFFCURVE",
"544 445 OFFCURVE",
"552 455 CURVE",
"556 468 OFFCURVE",
"560 481 OFFCURVE",
"566 493 CURVE",
"571 505 OFFCURVE",
"575 519 OFFCURVE",
"580 531 CURVE",
"586 543 OFFCURVE",
"592 554 OFFCURVE",
"596 567 CURVE",
"603 578 OFFCURVE",
"608 590 OFFCURVE",
"612 603 CURVE",
"618 615 OFFCURVE",
"627 625 OFFCURVE",
"626 644 CURVE",
"623 649 LINE"
);
}
);
width = 666;
}
);
unicode = 0056;
},
{
glyphname = W;
layers = (
{
layerId = "7C3BCDA4-8F92-4DF1-91BA-B714BE37B8B5";
paths = (
{
closed = 1;
nodes = (
"570 296 OFFCURVE",
"575 274 OFFCURVE",
"584 257 CURVE",
"588 247 OFFCURVE",
"590 235 OFFCURVE",
"597 228 CURVE",
"598 216 OFFCURVE",
"603 208 OFFCURVE",
"604 195 CURVE",
"612 185 OFFCURVE",
"616 171 OFFCURVE",
"622 159 CURVE",
"627 145 OFFCURVE",
"634 135 OFFCURVE",
"634 116 CURVE",
"640 110 OFFCURVE",
"653 77 OFFCURVE",
"655 68 CURVE SMOOTH",
"657 58 OFFCURVE",
"664 54 OFFCURVE",
"663 41 CURVE",
"667 36 OFFCURVE",
"671 31 OFFCURVE",
"674 25 CURVE",
"679 14 OFFCURVE",
"678 -2 OFFCURVE",
"693 -3 CURVE SMOOTH",
"703 -4 OFFCURVE",
"708 1 OFFCURVE",
"710 9 CURVE SMOOTH",
"712 17 OFFCURVE",
"717 23 OFFCURVE",
"718 31 CURVE",
"723 42 OFFCURVE",
"727 53 OFFCURVE",
"732 61 CURVE SMOOTH",
"734 64 OFFCURVE",
"738 66 OFFCURVE",
"738 71 CURVE",
"739 80 OFFCURVE",
"742 89 OFFCURVE",
"743 97 CURVE",
"749 108 OFFCURVE",
"754 119 OFFCURVE",
"760 129 CURVE",
"761 137 OFFCURVE",
"765 140 OFFCURVE",
"765 148 CURVE",
"775 162 OFFCURVE",
"781 179 OFFCURVE",
"786 198 CURVE",
"790 202 OFFCURVE",
"791 210 OFFCURVE",
"795 214 CURVE",
"800 243 OFFCURVE",
"817 260 OFFCURVE",
"822 290 CURVE",
"831 302 OFFCURVE",
"838 314 OFFCURVE",
"841 332 CURVE",
"844 338 OFFCURVE",
"848 342 OFFCURVE",
"850 348 CURVE SMOOTH",
"854 361 OFFCURVE",
"858 373 OFFCURVE",
"865 383 CURVE",
"869 394 OFFCURVE",
"873 406 OFFCURVE",
"880 416 CURVE",
"884 439 OFFCURVE",
"898 453 OFFCURVE",
"901 477 CURVE",
"908 490 OFFCURVE",
"917 499 OFFCURVE",
"918 517 CURVE",
"922 522 OFFCURVE",
"925 527 OFFCURVE",
"929 531 CURVE",
"928 539 OFFCURVE",
"930 542 OFFCURVE",
"932 545 CURVE",
"935 548 LINE",
"937 551 OFFCURVE",
"936 555 OFFCURVE",
"937 558 CURVE SMOOTH",
"938 561 OFFCURVE",
"942 562 OFFCURVE",
"942 566 CURVE",
"947 576 OFFCURVE",
"950 590 OFFCURVE",
"958 599 CURVE",
"958 613 OFFCURVE",
"966 619 OFFCURVE",
"969 632 CURVE",
"969 648 LINE",
"966 652 OFFCURVE",
"963 655 OFFCURVE",
"961 659 CURVE",
"947 662 OFFCURVE",
"932 660 OFFCURVE",
"920 657 CURVE",
"908 660 OFFCURVE",
"890 659 OFFCURVE",
"880 656 CURVE",
"871 648 OFFCURVE",
"870 631 OFFCURVE",
"865 619 CURVE",
"858 608 OFFCURVE",
"856 594 OFFCURVE",
"849 583 CURVE",
"845 569 OFFCURVE",
"839 558 OFFCURVE",
"835 545 CURVE",
"830 532 OFFCURVE",
"827 517 OFFCURVE",
"819 507 CURVE",
"818 501 OFFCURVE",
"816 496 OFFCURVE",
"816 490 CURVE",
"810 482 OFFCURVE",
"807 471 OFFCURVE",
"800 465 CURVE",
"800 450 OFFCURVE",
"791 444 OFFCURVE",
"787 433 CURVE",
"784 421 OFFCURVE",
"778 413 OFFCURVE",
"775 402 CURVE",
"765 378 LINE",
"762 370 OFFCURVE",
"760 362 OFFCURVE",
"754 356 CURVE",
"751 342 OFFCURVE",
"744 328 OFFCURVE",
"738 315 CURVE",
"733 301 OFFCURVE",
"729 288 OFFCURVE",
"721 276 CURVE",
"712 241 LINE",
"705 232 OFFCURVE",
"711 212 OFFCURVE",
"696 211 CURVE",
"683 215 OFFCURVE",
"687 237 OFFCURVE",
"677 244 CURVE",
"675 260 OFFCURVE",
"666 269 OFFCURVE",
"664 285 CURVE",
"661 291 OFFCURVE",
"656 294 OFFCURVE",
"655 301 CURVE",
"653 309 OFFCURVE",
"649 316 OFFCURVE",
"649 326 CURVE",
"641 336 OFFCURVE",
"639 350 OFFCURVE",
"631 359 CURVE",
"624 382 OFFCURVE",
"613 403 OFFCURVE",
"604 425 CURVE",
"600 437 OFFCURVE",
"597 449 OFFCURVE",
"592 460 CURVE SMOOTH",
"587 471 OFFCURVE",
"581 481 OFFCURVE",
"578 493 CURVE",
"561 539 OFFCURVE",
"542 583 OFFCURVE",
"524 627 CURVE",
"521 642 OFFCURVE",
"521 661 OFFCURVE",
"504 662 CURVE",
"493 659 OFFCURVE",
"494 645 OFFCURVE",
"491 635 CURVE",
"485 628 OFFCURVE",
"484 614 OFFCURVE",
"478 607 CURVE",
"477 596 OFFCURVE",
"472 586 OFFCURVE",
"469 577 CURVE",
"465 567 OFFCURVE",
"463 556 OFFCURVE",
"458 547 CURVE",
"450 528 OFFCURVE",
"445 506 OFFCURVE",
"436 488 CURVE SMOOTH",
"427 469 OFFCURVE",
"424 446 OFFCURVE",
"412 430 CURVE",
"411 416 OFFCURVE",
"405 408 OFFCURVE",
"403 395 CURVE",
"396 386 OFFCURVE",
"392 374 OFFCURVE",
"385 364 CURVE",
"386 352 OFFCURVE",
"379 347 OFFCURVE",
"379 336 CURVE",
"371 326 OFFCURVE",
"368 310 OFFCURVE",
"362 298 CURVE",
"361 280 OFFCURVE",
"350 271 OFFCURVE",
"346 257 CURVE SMOOTH",
"338 227 LINE",
"334 218 OFFCURVE",
"336 203 OFFCURVE",
"324 203 CURVE SMOOTH",
"316 203 OFFCURVE",
"315 209 OFFCURVE",
"313 214 CURVE",
"309 218 OFFCURVE",
"309 226 OFFCURVE",
"307 231 CURVE",
"304 244 OFFCURVE",
"298 254 OFFCURVE",
"295 266 CURVE",
"287 288 OFFCURVE",
"278 310 OFFCURVE",
"267 329 CURVE",
"261 353 OFFCURVE",
"250 372 OFFCURVE",
"240 392 CURVE",
"241 400 OFFCURVE",
"237 403 OFFCURVE",
"237 410 CURVE",
"231 419 OFFCURVE",
"225 429 OFFCURVE",
"223 443 CURVE",
"215 451 OFFCURVE",
"213 465 OFFCURVE",
"206 474 CURVE",
"198 499 OFFCURVE",
"187 521 OFFCURVE",
"176 542 CURVE",
"169 565 OFFCURVE",
"159 583 OFFCURVE",
"149 602 CURVE",
"148 612 OFFCURVE",
"142 620 OFFCURVE",
"138 629 CURVE SMOOTH",
"134 638 OFFCURVE",
"133 647 OFFCURVE",
"125 654 CURVE",
"124 654 OFFCURVE",
"122 654 OFFCURVE",
"122 656 CURVE",
"107 658 OFFCURVE",
"92 659 OFFCURVE",
"78 656 CURVE",
"66 658 OFFCURVE",
"56 659 OFFCURVE",
"46 654 CURVE",
"41 647 OFFCURVE",
"44 632 OFFCURVE",
"43 621 CURVE",
"52 607 OFFCURVE",
"58 590 OFFCURVE",
"65 575 CURVE SMOOTH",
"73 559 OFFCURVE",
"80 543 OFFCURVE",
"84 525 CURVE",
"90 514 OFFCURVE",
"97 505 OFFCURVE",
"100 492 CURVE",
"106 481 OFFCURVE",
"112 470 OFFCURVE",
"114 455 CURVE",
"130 434 OFFCURVE",
"138 405 OFFCURVE",
"152 381 CURVE",
"158 359 OFFCURVE",
"169 341 OFFCURVE",
"179 321 CURVE",
"181 318 OFFCURVE",
"179 310 OFFCURVE",
"182 307 CURVE",
"184 300 OFFCURVE",
"189 297 OFFCURVE",
"191 290 CURVE",
"200 264 OFFCURVE",
"211 241 OFFCURVE",
"223 219 CURVE",
"224 212 OFFCURVE",
"227 209 OFFCURVE",
"228 202 CURVE",
"241 183 OFFCURVE",
"250 160 OFFCURVE",
"256 134 CURVE",
"262 128 OFFCURVE",
"265 119 OFFCURVE",
"270 112 CURVE",
"278 90 OFFCURVE",
"288 70 OFFCURVE",
"295 49 CURVE",
"301 40 OFFCURVE",
"303 27 OFFCURVE",
"310 19 CURVE",
"313 7 OFFCURVE",
"317 -3 OFFCURVE",
"332 -3 CURVE",
"344 0 OFFCURVE",
"345 16 OFFCURVE",
"349 28 CURVE",
"357 39 OFFCURVE",
"358 57 OFFCURVE",
"365 69 CURVE",
"366 77 OFFCURVE",
"369 83 OFFCURVE",
"373 90 CURVE",
"373 99 OFFCURVE",
"377 105 OFFCURVE",
"381 110 CURVE",
"385 125 OFFCURVE",
"389 140 OFFCURVE",
"396 151 CURVE",
"398 169 OFFCURVE",
"406 181 OFFCURVE",
"412 194 CURVE",
"417 224 OFFCURVE",
"432 244 OFFCURVE",
"439 272 CURVE",
"448 281 OFFCURVE",
"450 298 OFFCURVE",
"456 309 CURVE",
"460 323 OFFCURVE",
"465 336 OFFCURVE",
"472 347 CURVE",
"474 365 OFFCURVE",
"481 380 OFFCURVE",
"488 394 CURVE",
"488 406 OFFCURVE",
"492 415 OFFCURVE",
"494 425 CURVE",
"500 433 OFFCURVE",
"498 448 OFFCURVE",
"505 454 CURVE",
"517 451 OFFCURVE",
"519 438 OFFCURVE",
"519 424 CURVE",
"527 413 OFFCURVE",
"530 398 OFFCURVE",
"532 381 CURVE",
"542 365 OFFCURVE",
"545 343 OFFCURVE",
"556 328 CURVE",
"559 312 LINE"
);
}
);
width = 1005;
}
);
unicode = 0057;
},
{
glyphname = X;
layers = (
{
layerId = "7C3BCDA4-8F92-4DF1-91BA-B714BE37B8B5";
paths = (
{
closed = 1;
nodes = (
"425 475 OFFCURVE",
"435 493 OFFCURVE",
"448 509 CURVE",
"455 532 OFFCURVE",
"471 547 OFFCURVE",
"482 566 CURVE",
"492 579 OFFCURVE",
"498 595 OFFCURVE",
"509 607 CURVE",
"512 612 OFFCURVE",
"514 617 OFFCURVE",
"519 621 CURVE",
"520 634 OFFCURVE",
"530 643 OFFCURVE",
"523 656 CURVE",
"514 666 OFFCURVE",
"495 658 OFFCURVE",
"479 659 CURVE",
"460 659 OFFCURVE",
"440 666 OFFCURVE",
"426 657 CURVE",
"411 627 OFFCURVE",
"396 596 OFFCURVE",
"374 574 CURVE",
"372 564 OFFCURVE",
"365 560 OFFCURVE",
"364 550 CURVE",
"357 542 OFFCURVE",
"350 532 OFFCURVE",
"345 522 CURVE",
"340 511 OFFCURVE",
"333 502 OFFCURVE",
"328 492 CURVE",
"320 484 OFFCURVE",
"314 474 OFFCURVE",
"309 463 CURVE",
"306 458 OFFCURVE",
"302 455 OFFCURVE",
"300 449 CURVE",
"296 444 OFFCURVE",
"295 437 OFFCURVE",
"287 436 CURVE",
"275 439 OFFCURVE",
"272 451 OFFCURVE",
"268 462 CURVE",
"255 475 OFFCURVE",
"246 492 OFFCURVE",
"236 509 CURVE",
"224 524 OFFCURVE",
"218 544 OFFCURVE",
"205 558 CURVE",
"198 577 OFFCURVE",
"183 590 OFFCURVE",
"175 608 CURVE",
"163 623 OFFCURVE",
"157 644 OFFCURVE",
"143 657 CURVE",
"123 661 OFFCURVE",
"101 655 OFFCURVE",
"77 657 CURVE",
"67 657 OFFCURVE",
"54 659 OFFCURVE",
"52 651 CURVE",
"45 636 OFFCURVE",
"60 628 OFFCURVE",
"65 619 CURVE",
"70 608 OFFCURVE",
"76 596 OFFCURVE",
"84 586 CURVE",
"89 574 OFFCURVE",
"98 566 OFFCURVE",
"106 556 CURVE",
"116 541 OFFCURVE",
"124 525 OFFCURVE",
"134 510 CURVE",
"135 507 OFFCURVE",
"136 505 OFFCURVE",
"136 499 CURVE",
"144 494 OFFCURVE",
"147 484 OFFCURVE",
"154 477 CURVE",
"159 457 OFFCURVE",
"176 450 OFFCURVE",
"181 430 CURVE",
"196 418 OFFCURVE",
"203 399 OFFCURVE",
"214 383 CURVE",
"218 378 OFFCURVE",
"220 372 OFFCURVE",
"224 367 CURVE",
"229 364 OFFCURVE",
"233 359 OFFCURVE",
"233 351 CURVE",
"234 339 OFFCURVE",
"225 336 OFFCURVE",
"225 324 CURVE",
"209 308 OFFCURVE",
"202 282 OFFCURVE",
"184 266 CURVE",
"183 258 OFFCURVE",
"179 252 OFFCURVE",
"177 244 CURVE",
"170 238 OFFCURVE",
"165 230 OFFCURVE",
"158 224 CURVE",
"156 214 OFFCURVE",
"149 211 OFFCURVE",
"148 200 CURVE",
"130 181 OFFCURVE",
"120 153 OFFCURVE",
"102 134 CURVE",
"103 127 OFFCURVE",
"99 126 OFFCURVE",
"99 120 CURVE",
"85 101 OFFCURVE",
"73 82 OFFCURVE",
"61 61 CURVE",
"52 51 OFFCURVE",
"39 46 OFFCURVE",
"36 30 CURVE",
"40 10 OFFCURVE",
"59 5 OFFCURVE",
"77 0 CURVE",
"94 5 OFFCURVE",
"111 1 OFFCURVE",
"129 3 CURVE",
"142 13 OFFCURVE",
"152 26 OFFCURVE",
"158 44 CURVE",
"168 53 OFFCURVE",
"173 65 OFFCURVE",
"180 77 CURVE SMOOTH",
"189 93 LINE",
"195 105 LINE",
"199 112 OFFCURVE",
"204 119 OFFCURVE",
"205 127 CURVE",
"217 143 OFFCURVE",
"227 161 OFFCURVE",
"240 176 CURVE",
"242 187 OFFCURVE",
"251 192 OFFCURVE",
"255 202 CURVE",
"262 209 OFFCURVE",
"265 221 OFFCURVE",
"271 228 CURVE",
"273 235 OFFCURVE",
"274 242 OFFCURVE",
"277 247 CURVE",
"282 251 OFFCURVE",
"282 261 OFFCURVE",
"290 261 CURVE",
"304 243 OFFCURVE",
"319 222 OFFCURVE",
"326 198 CURVE",
"344 176 OFFCURVE",
"356 149 OFFCURVE",
"374 127 CURVE",
"375 122 OFFCURVE",
"378 117 OFFCURVE",
"380 112 CURVE",
"391 99 OFFCURVE",
"399 84 OFFCURVE",
"407 68 CURVE",
"411 62 OFFCURVE",
"418 57 OFFCURVE",
"421 50 CURVE",
"425 39 OFFCURVE",
"430 30 OFFCURVE",
"435 20 CURVE",
"442 15 OFFCURVE",
"447 8 OFFCURVE",
"456 4 CURVE",
"492 4 LINE",
"496 5 OFFCURVE",
"500 0 OFFCURVE",
"503 4 CURVE",
"521 5 OFFCURVE",
"542 2 OFFCURVE",
"544 19 CURVE",
"544 22 OFFCURVE",
"542 22 OFFCURVE",
"542 25 CURVE",
"537 43 OFFCURVE",
"522 53 OFFCURVE",
"517 72 CURVE",
"510 76 OFFCURVE",
"509 84 OFFCURVE",
"504 90 CURVE",
"502 97 OFFCURVE",
"495 100 OFFCURVE",
"492 107 CURVE",
"489 115 OFFCURVE",
"481 123 OFFCURVE",
"478 129 CURVE",
"467 147 OFFCURVE",
"454 161 OFFCURVE",
"448 183 CURVE",
"430 199 OFFCURVE",
"419 223 OFFCURVE",
"404 243 CURVE SMOOTH",
"397 253 OFFCURVE",
"391 265 OFFCURVE",
"385 276 CURVE",
"384 277 OFFCURVE",
"382 277 OFFCURVE",
"381 279 CURVE SMOOTH",
"378 285 OFFCURVE",
"375 292 OFFCURVE",
"372 296 CURVE SMOOTH",
"369 300 OFFCURVE",
"363 301 OFFCURVE",
"363 307 CURVE",
"356 321 OFFCURVE",
"348 333 OFFCURVE",
"342 347 CURVE",
"347 361 OFFCURVE",
"358 371 OFFCURVE",
"364 381 CURVE",
"367 385 OFFCURVE",
"368 390 OFFCURVE",
"372 394 CURVE",
"381 411 OFFCURVE",
"394 423 OFFCURVE",
"400 443 CURVE",
"415 457 LINE"
);
}
);
width = 582;
}
);
unicode = 0058;
},
{
glyphname = Y;
layers = (
{
layerId = "7C3BCDA4-8F92-4DF1-91BA-B714BE37B8B5";
paths = (
{
closed = 1;
nodes = (
"420 426 OFFCURVE",
"434 447 OFFCURVE",
"442 470 CURVE",
"452 477 OFFCURVE",
"457 490 OFFCURVE",
"464 501 CURVE",
"473 510 OFFCURVE",
"479 522 OFFCURVE",
"484 534 CURVE",
"498 548 OFFCURVE",
"507 566 OFFCURVE",
"516 585 CURVE",
"521 593 OFFCURVE",
"525 603 OFFCURVE",
"532 610 CURVE",
"536 627 OFFCURVE",
"551 634 OFFCURVE",
"549 657 CURVE",
"548 662 OFFCURVE",
"543 664 OFFCURVE",
"541 668 CURVE",
"527 669 OFFCURVE",
"515 668 OFFCURVE",
"503 667 CURVE",
"486 671 OFFCURVE",
"465 669 OFFCURVE",
"450 665 CURVE",
"444 654 OFFCURVE",
"434 647 OFFCURVE",
"434 630 CURVE",
"426 622 OFFCURVE",
"420 612 OFFCURVE",
"415 600 CURVE",
"406 593 OFFCURVE",
"401 581 OFFCURVE",
"398 567 CURVE",
"390 558 OFFCURVE",
"379 534 OFFCURVE",
"379 534 CURVE SMOOTH",
"379 534 OFFCURVE",
"347 493 OFFCURVE",
"344 476 CURVE",
"334 467 OFFCURVE",
"332 449 OFFCURVE",
"320 441 CURVE",
"317 427 LINE",
"307 421 OFFCURVE",
"305 406 OFFCURVE",
"289 406 CURVE",
"281 408 OFFCURVE",
"281 416 OFFCURVE",
"278 422 CURVE",
"268 425 OFFCURVE",
"264 434 OFFCURVE",
"259 443 CURVE",
"253 443 OFFCURVE",
"254 451 OFFCURVE",
"251 454 CURVE",
"249 458 OFFCURVE",
"244 460 OFFCURVE",
"241 465 CURVE",
"242 471 OFFCURVE",
"240 475 OFFCURVE",
"238 479 CURVE",
"232 487 OFFCURVE",
"224 493 OFFCURVE",
"219 503 CURVE",
"217 512 OFFCURVE",
"211 517 OFFCURVE",
"210 528 CURVE",
"204 530 OFFCURVE",
"204 537 OFFCURVE",
"199 539 CURVE",
"192 555 OFFCURVE",
"182 568 OFFCURVE",
"174 581 CURVE",
"171 584 OFFCURVE",
"173 592 OFFCURVE",
"171 594 CURVE SMOOTH",
"162 603 OFFCURVE",
"155 614 OFFCURVE",
"148 626 CURVE",
"146 632 OFFCURVE",
"142 637 OFFCURVE",
"139 643 CURVE",
"132 646 OFFCURVE",
"133 656 OFFCURVE",
"126 659 CURVE SMOOTH",
"111 665 OFFCURVE",
"85 661 OFFCURVE",
"68 667 CURVE",
"56 662 OFFCURVE",
"36 665 OFFCURVE",
"29 656 CURVE",
"26 648 OFFCURVE",
"29 643 OFFCURVE",
"29 633 CURVE",
"33 623 OFFCURVE",
"43 617 OFFCURVE",
"48 607 CURVE",
"54 586 OFFCURVE",
"70 574 OFFCURVE",
"82 559 CURVE",
"91 545 OFFCURVE",
"98 529 OFFCURVE",
"104 512 CURVE",
"110 506 OFFCURVE",
"116 500 OFFCURVE",
"120 493 CURVE",
"131 466 OFFCURVE",
"150 447 OFFCURVE",
"161 421 CURVE",
"177 403 LINE",
"177 398 OFFCURVE",
"179 394 OFFCURVE",
"180 389 CURVE",
"193 376 OFFCURVE",
"201 358 OFFCURVE",
"213 343 CURVE",
"219 328 LINE",
"225 321 OFFCURVE",
"230 314 OFFCURVE",
"234 306 CURVE SMOOTH",
"238 298 OFFCURVE",
"245 292 OFFCURVE",
"248 283 CURVE",
"248 249 OFFCURVE",
"247 213 OFFCURVE",
"241 179 CURVE",
"242 164 OFFCURVE",
"249 148 OFFCURVE",
"249 132 CURVE SMOOTH",
"249 126 OFFCURVE",
"247 120 OFFCURVE",
"246 113 CURVE SMOOTH",
"244 99 OFFCURVE",
"246 86 OFFCURVE",
"246 74 CURVE SMOOTH",
"246 54 OFFCURVE",
"238 35 OFFCURVE",
"243 16 CURVE",
"246 15 OFFCURVE",
"246 11 OFFCURVE",
"248 9 CURVE SMOOTH",
"253 4 OFFCURVE",
"263 4 OFFCURVE",
"271 3 CURVE SMOOTH",
"296 -1 OFFCURVE",
"321 0 OFFCURVE",
"338 11 CURVE",
"342 17 OFFCURVE",
"342 24 OFFCURVE",
"342 33 CURVE SMOOTH",
"342 41 OFFCURVE",
"339 51 OFFCURVE",
"339 58 CURVE",
"348 81 OFFCURVE",
"340 109 OFFCURVE",
"334 131 CURVE",
"337 142 OFFCURVE",
"339 160 OFFCURVE",
"336 173 CURVE",
"339 181 OFFCURVE",
"334 250 OFFCURVE",
"336 282 CURVE",
"341 294 OFFCURVE",
"348 305 OFFCURVE",
"352 318 CURVE SMOOTH",
"354 324 OFFCURVE",
"366 338 OFFCURVE",
"368 340 CURVE",
"369 343 OFFCURVE",
"376 354 OFFCURVE",
"377 358 CURVE",
"378 361 OFFCURVE",
"380 364 OFFCURVE",
"382 367 CURVE",
"385 374 OFFCURVE",
"386 381 OFFCURVE",
"390 388 CURVE",
"392 392 OFFCURVE",
"396 395 OFFCURVE",
"399 399 CURVE",
"405 408 LINE"
);
}
);
width = 578;
}
);
unicode = 0059;
},
{
glyphname = Z;
layers = (
{
layerId = "7C3BCDA4-8F92-4DF1-91BA-B714BE37B8B5";
paths = (
{
closed = 1;
nodes = (
"239 6 OFFCURVE",
"255 7 OFFCURVE",
"267 8 CURVE",
"276 8 OFFCURVE",
"285 6 OFFCURVE",
"294 6 CURVE SMOOTH",
"318 6 OFFCURVE",
"346 10 OFFCURVE",
"365 4 CURVE",
"372 6 OFFCURVE",
"379 9 OFFCURVE",
"387 9 CURVE SMOOTH",
"394 9 OFFCURVE",
"401 8 OFFCURVE",
"408 8 CURVE SMOOTH",
"422 8 OFFCURVE",
"437 11 OFFCURVE",
"452 11 CURVE SMOOTH",
"471 11 OFFCURVE",
"492 5 OFFCURVE",
"504 17 CURVE",
"509 21 OFFCURVE",
"506 33 OFFCURVE",
"508 39 CURVE",
"504 47 OFFCURVE",
"511 63 OFFCURVE",
"505 69 CURVE",
"508 76 OFFCURVE",
"504 81 OFFCURVE",
"502 90 CURVE",
"496 94 OFFCURVE",
"474 89 OFFCURVE",
"463 90 CURVE",
"453 93 OFFCURVE",
"424 87 OFFCURVE",
"415 88 CURVE SMOOTH",
"406 89 OFFCURVE",
"401 86 OFFCURVE",
"393 86 CURVE",
"380 92 OFFCURVE",
"334 88 OFFCURVE",
"326 86 CURVE",
"318 86 OFFCURVE",
"310 89 OFFCURVE",
"302 90 CURVE",
"299 90 OFFCURVE",
"296 88 OFFCURVE",
"293 88 CURVE SMOOTH",
"289 88 OFFCURVE",
"285 90 OFFCURVE",
"282 90 CURVE SMOOTH",
"266 90 OFFCURVE",
"251 89 OFFCURVE",
"237 86 CURVE",
"232 88 OFFCURVE",
"187 89 OFFCURVE",
"176 90 CURVE",
"170 117 OFFCURVE",
"194 127 OFFCURVE",
"203 145 CURVE",
"209 153 OFFCURVE",
"212 163 OFFCURVE",
"220 170 CURVE",
"222 182 OFFCURVE",
"265 248 OFFCURVE",
"269 257 CURVE",
"273 265 OFFCURVE",
"277 275 OFFCURVE",
"285 280 CURVE",
"286 289 OFFCURVE",
"291 293 OFFCURVE",
"293 301 CURVE",
"298 307 OFFCURVE",
"314 330 OFFCURVE",
"315 337 CURVE",
"321 344 OFFCURVE",
"333 368 OFFCURVE",
"335 370 CURVE",
"345 379 OFFCURVE",
"350 393 OFFCURVE",
"359 402 CURVE",
"361 405 OFFCURVE",
"360 411 OFFCURVE",
"362 414 CURVE",
"369 419 OFFCURVE",
"372 429 OFFCURVE",
"378 435 CURVE",
"381 458 OFFCURVE",
"398 468 OFFCURVE",
"403 490 CURVE",
"407 493 OFFCURVE",
"409 499 OFFCURVE",
"414 501 CURVE",
"417 519 OFFCURVE",
"431 526 OFFCURVE",
"434 544 CURVE",
"441 550 OFFCURVE",
"445 559 OFFCURVE",
"452 566 CURVE",
"454 573 OFFCURVE",
"457 579 OFFCURVE",
"460 586 CURVE",
"466 593 OFFCURVE",
"472 599 OFFCURVE",
"477 607 CURVE",
"479 616 OFFCURVE",
"488 623 OFFCURVE",
"491 632 CURVE",
"492 634 OFFCURVE",
"493 638 OFFCURVE",
"493 638 CURVE",
"495 646 OFFCURVE",
"494 650 OFFCURVE",
"491 657 CURVE",
"481 666 OFFCURVE",
"451 661 OFFCURVE",
"451 661 CURVE SMOOTH",
"451 661 OFFCURVE",
"421 661 OFFCURVE",
"409 660 CURVE",
"402 660 OFFCURVE",
"394 662 OFFCURVE",
"387 662 CURVE SMOOTH",
"359 662 OFFCURVE",
"334 660 OFFCURVE",
"307 662 CURVE",
"300 662 OFFCURVE",
"297 659 OFFCURVE",
"291 659 CURVE",
"267 665 OFFCURVE",
"242 662 OFFCURVE",
"217 662 CURVE SMOOTH",
"210 662 OFFCURVE",
"204 663 OFFCURVE",
"198 663 CURVE SMOOTH",
"189 663 OFFCURVE",
"181 660 OFFCURVE",
"171 660 CURVE SMOOTH",
"155 660 OFFCURVE",
"138 663 OFFCURVE",
"122 663 CURVE SMOOTH",
"114 663 OFFCURVE",
"106 662 OFFCURVE",
"97 662 CURVE SMOOTH",
"88 662 OFFCURVE",
"76 667 OFFCURVE",
"67 660 CURVE",
"60 649 OFFCURVE",
"68 633 OFFCURVE",
"66 616 CURVE",
"64 609 OFFCURVE",
"65 588 OFFCURVE",
"67 585 CURVE",
"84 576 OFFCURVE",
"105 581 OFFCURVE",
"124 581 CURVE",
"137 582 OFFCURVE",
"150 582 OFFCURVE",
"163 581 CURVE",
"201 580 OFFCURVE",
"238 581 OFFCURVE",
"275 580 CURVE",
"287 585 OFFCURVE",
"301 582 OFFCURVE",
"313 581 CURVE",
"324 581 OFFCURVE",
"338 586 OFFCURVE",
"343 577 CURVE",
"336 555 OFFCURVE",
"328 534 OFFCURVE",
"313 520 CURVE",
"307 504 OFFCURVE",
"296 493 OFFCURVE",
"291 476 CURVE",
"274 460 OFFCURVE",
"269 432 OFFCURVE",
"252 417 CURVE",
"249 403 OFFCURVE",
"240 395 OFFCURVE",
"237 381 CURVE",
"222 365 OFFCURVE",
"214 342 OFFCURVE",
"200 324 CURVE",
"188 304 OFFCURVE",
"179 282 OFFCURVE",
"163 266 CURVE",
"162 256 OFFCURVE",
"157 250 OFFCURVE",
"151 244 CURVE",
"147 226 OFFCURVE",
"135 215 OFFCURVE",
"129 200 CURVE",
"127 191 OFFCURVE",
"119 187 OFFCURVE",
"116 179 CURVE SMOOTH",
"112 168 OFFCURVE",
"103 160 OFFCURVE",
"97 150 CURVE",
"91 139 OFFCURVE",
"88 126 OFFCURVE",
"80 116 CURVE",
"72 102 OFFCURVE",
"63 88 OFFCURVE",
"51 77 CURVE",
"51 64 OFFCURVE",
"40 61 OFFCURVE",
"40 47 CURVE",
"35 39 OFFCURVE",
"29 31 OFFCURVE",
"28 19 CURVE",
"32 8 OFFCURVE",
"42 5 OFFCURVE",
"53 1 CURVE",
"66 5 OFFCURVE",
"76 2 OFFCURVE",
"89 6 CURVE",
"133 8 OFFCURVE",
"164 5 OFFCURVE",
"209 6 CURVE",
"225 9 LINE"
);
}
);
width = 550;
}
);
unicode = 005A;
},
{
glyphname = bracketleft;
layers = (
{
layerId = "7C3BCDA4-8F92-4DF1-91BA-B714BE37B8B5";
paths = (
{
closed = 1;
nodes = (
"174 86 OFFCURVE",
"175 97 OFFCURVE",
"174 110 CURVE",
"174 119 OFFCURVE",
"176 129 OFFCURVE",
"176 138 CURVE SMOOTH",
"176 158 OFFCURVE",
"174 179 OFFCURVE",
"174 200 CURVE SMOOTH",
"174 283 LINE",
"173 336 OFFCURVE",
"173 385 OFFCURVE",
"174 431 CURVE SMOOTH",
"174 449 OFFCURVE",
"172 467 OFFCURVE",
"172 485 CURVE SMOOTH",
"173 537 OFFCURVE",
"172 588 OFFCURVE",
"172 636 CURVE SMOOTH",
"172 647 OFFCURVE",
"170 659 OFFCURVE",
"177 669 CURVE",
"199 670 OFFCURVE",
"217 666 OFFCURVE",
"234 661 CURVE",
"254 663 OFFCURVE",
"274 664 OFFCURVE",
"281 679 CURVE",
"280 688 OFFCURVE",
"280 699 OFFCURVE",
"280 709 CURVE",
"279 719 OFFCURVE",
"279 728 OFFCURVE",
"276 735 CURVE",
"266 745 OFFCURVE",
"243 745 OFFCURVE",
"228 740 CURVE",
"200 741 OFFCURVE",
"169 741 OFFCURVE",
"142 740 CURVE",
"127 740 OFFCURVE",
"111 741 OFFCURVE",
"101 732 CURVE",
"101 707 OFFCURVE",
"98 674 OFFCURVE",
"103 646 CURVE",
"101 538 LINE SMOOTH",
"101 535 OFFCURVE",
"103 532 OFFCURVE",
"103 529 CURVE SMOOTH",
"103 525 OFFCURVE",
"101 522 OFFCURVE",
"101 518 CURVE",
"102 504 OFFCURVE",
"102 490 OFFCURVE",
"105 479 CURVE",
"102 473 OFFCURVE",
"103 466 OFFCURVE",
"101 460 CURVE",
"107 440 OFFCURVE",
"104 417 OFFCURVE",
"103 393 CURVE SMOOTH",
"102 365 OFFCURVE",
"107 337 OFFCURVE",
"101 315 CURVE",
"107 283 OFFCURVE",
"102 252 OFFCURVE",
"103 220 CURVE SMOOTH",
"103 206 OFFCURVE",
"104 188 OFFCURVE",
"103 177 CURVE",
"103 174 OFFCURVE",
"105 172 OFFCURVE",
"105 168 CURVE SMOOTH",
"103 -18 LINE SMOOTH",
"103 -24 OFFCURVE",
"101 -28 OFFCURVE",
"100 -32 CURVE",
"103 -51 OFFCURVE",
"102 -70 OFFCURVE",
"101 -89 CURVE",
"103 -97 OFFCURVE",
"107 -102 OFFCURVE",
"106 -113 CURVE",
"109 -124 OFFCURVE",
"94 -125 OFFCURVE",
"100 -135 CURVE",
"103 -145 OFFCURVE",
"113 -149 OFFCURVE",
"127 -149 CURVE",
"138 -151 OFFCURVE",
"150 -153 OFFCURVE",
"165 -152 CURVE",
"172 -151 OFFCURVE",
"182 -149 OFFCURVE",
"190 -150 CURVE",
"192 -154 OFFCURVE",
"194 -151 OFFCURVE",
"196 -150 CURVE",
"208 -150 OFFCURVE",
"224 -151 OFFCURVE",
"234 -154 CURVE",
"248 -150 OFFCURVE",
"259 -152 OFFCURVE",
"273 -147 CURVE",
"285 -140 OFFCURVE",
"282 -125 OFFCURVE",
"281 -108 CURVE",
"281 -98 OFFCURVE",
"283 -86 OFFCURVE",
"278 -79 CURVE",
"270 -70 OFFCURVE",
"254 -71 OFFCURVE",
"240 -75 CURVE",
"227 -74 OFFCURVE",
"210 -76 OFFCURVE",
"199 -73 CURVE",
"193 -76 OFFCURVE",
"181 -79 OFFCURVE",
"176 -76 CURVE",
"171 -52 OFFCURVE",
"176 -27 OFFCURVE",
"176 -2 CURVE SMOOTH",
"176 7 OFFCURVE",
"174 15 OFFCURVE",
"174 25 CURVE SMOOTH",
"174 37 OFFCURVE",
"175 49 OFFCURVE",
"174 58 CURVE",
"174 72 LINE SMOOTH"
);
}
);
width = 307;
}
);
unicode = 005B;
},
{
glyphname = backslash;
layers = (
{
layerId = "7C3BCDA4-8F92-4DF1-91BA-B714BE37B8B5";
paths = (
{
closed = 1;
nodes = (
"177 431 OFFCURVE",
"169 453 OFFCURVE",
"159 473 CURVE",
"158 484 OFFCURVE",
"149 497 OFFCURVE",
"143 508 CURVE",
"142 510 OFFCURVE",
"144 510 OFFCURVE",
"143 512 CURVE SMOOTH",
"136 527 OFFCURVE",
"129 541 OFFCURVE",
"126 555 CURVE",
"123 562 OFFCURVE",
"118 565 OFFCURVE",
"115 572 CURVE",
"93 630 OFFCURVE",
"117 568 OFFCURVE",
"92 626 CURVE SMOOTH",
"89 633 OFFCURVE",
"91 642 OFFCURVE",
"86 647 CURVE",
"83 653 OFFCURVE",
"86 661 OFFCURVE",
"78 667 CURVE",
"66 683 OFFCURVE",
"65 682 OFFCURVE",
"44 683 CURVE SMOOTH",
"24 684 OFFCURVE",
"5 681 OFFCURVE",
"4 666 CURVE",
"8 657 OFFCURVE",
"14 650 OFFCURVE",
"19 642 CURVE",
"22 631 OFFCURVE",
"28 619 OFFCURVE",
"35 608 CURVE",
"45 580 OFFCURVE",
"77 524 OFFCURVE",
"89 487 CURVE",
"105 451 OFFCURVE",
"131 403 OFFCURVE",
"141 366 CURVE",
"151 350 OFFCURVE",
"153 333 OFFCURVE",
"165 317 CURVE",
"167 301 OFFCURVE",
"180 285 OFFCURVE",
"184 268 CURVE SMOOTH",
"187 253 LINE",
"198 243 OFFCURVE",
"228 166 OFFCURVE",
"234 153 CURVE SMOOTH",
"240 141 OFFCURVE",
"244 130 OFFCURVE",
"250 117 CURVE",
"256 102 LINE",
"268 78 OFFCURVE",
"283 41 OFFCURVE",
"293 14 CURVE",
"300 -3 OFFCURVE",
"308 -19 OFFCURVE",
"313 -36 CURVE",
"319 -51 OFFCURVE",
"320 -67 OFFCURVE",
"333 -81 CURVE",
"351 -87 OFFCURVE",
"342 -84 OFFCURVE",
"358 -84 CURVE SMOOTH",
"371 -84 OFFCURVE",
"386 -87 OFFCURVE",
"395 -82 CURVE",
"401 -74 OFFCURVE",
"391 -53 OFFCURVE",
"381 -40 CURVE",
"370 -13 OFFCURVE",
"361 6 OFFCURVE",
"356 29 CURVE",
"353 39 OFFCURVE",
"346 40 OFFCURVE",
"343 48 CURVE",
"320 100 OFFCURVE",
"298 142 OFFCURVE",
"282 190 CURVE",
"282 192 OFFCURVE",
"274 200 OFFCURVE",
"277 202 CURVE",
"279 205 OFFCURVE",
"249 269 OFFCURVE",
"249 269 CURVE",
"238 285 OFFCURVE",
"233 301 OFFCURVE",
"226 319 CURVE SMOOTH",
"220 333 OFFCURVE",
"216 349 OFFCURVE",
"207 366 CURVE SMOOTH",
"204 372 OFFCURVE",
"198 380 OFFCURVE",
"195 386 CURVE",
"187 408 LINE"
);
}
);
width = 390;
}
);
unicode = 005C;
},
{
glyphname = bracketright;
layers = (
{
layerId = "7C3BCDA4-8F92-4DF1-91BA-B714BE37B8B5";
paths = (
{
closed = 1;
nodes = (
"216 -97 OFFCURVE",
"220 -66 OFFCURVE",
"220 -36 CURVE SMOOTH",
"220 -13 OFFCURVE",
"217 10 OFFCURVE",
"217 33 CURVE SMOOTH",
"217 45 OFFCURVE",
"218 56 OFFCURVE",
"218 68 CURVE SMOOTH",
"218 80 OFFCURVE",
"217 92 OFFCURVE",
"217 104 CURVE SMOOTH",
"217 182 OFFCURVE",
"215 291 OFFCURVE",
"217 371 CURVE SMOOTH",
"217 380 LINE",
"216 401 OFFCURVE",
"215 431 OFFCURVE",
"215 456 CURVE SMOOTH",
"215 480 OFFCURVE",
"217 505 OFFCURVE",
"217 528 CURVE",
"216 587 OFFCURVE",
"214 643 OFFCURVE",
"218 698 CURVE",
"220 708 OFFCURVE",
"222 730 OFFCURVE",
"214 738 CURVE",
"209 740 OFFCURVE",
"205 744 OFFCURVE",
"196 743 CURVE",
"187 741 OFFCURVE",
"182 744 OFFCURVE",
"176 746 CURVE",
"172 744 OFFCURVE",
"168 742 OFFCURVE",
"162 743 CURVE SMOOTH",
"141 746 LINE",
"131 744 OFFCURVE",
"121 741 OFFCURVE",
"110 741 CURVE SMOOTH",
"101 741 OFFCURVE",
"95 743 OFFCURVE",
"89 746 CURVE",
"75 743 OFFCURVE",
"54 747 OFFCURVE",
"43 738 CURVE",
"36 729 OFFCURVE",
"37 711 OFFCURVE",
"35 695 CURVE",
"39 687 OFFCURVE",
"39 674 OFFCURVE",
"46 669 CURVE",
"54 665 OFFCURVE",
"61 661 OFFCURVE",
"73 662 CURVE",
"82 666 OFFCURVE",
"94 662 OFFCURVE",
"102 664 CURVE",
"112 668 OFFCURVE",
"135 667 OFFCURVE",
"144 667 CURVE",
"141 649 OFFCURVE",
"144 632 OFFCURVE",
"144 616 CURVE SMOOTH",
"144 606 OFFCURVE",
"142 598 OFFCURVE",
"143 588 CURVE",
"143 581 OFFCURVE",
"145 575 OFFCURVE",
"146 568 CURVE",
"146 559 OFFCURVE",
"144 550 OFFCURVE",
"144 541 CURVE SMOOTH",
"144 531 OFFCURVE",
"146 522 OFFCURVE",
"146 512 CURVE SMOOTH",
"146 494 OFFCURVE",
"144 476 OFFCURVE",
"144 457 CURVE SMOOTH",
"144 446 OFFCURVE",
"146 436 OFFCURVE",
"146 424 CURVE SMOOTH",
"146 413 OFFCURVE",
"144 401 OFFCURVE",
"144 389 CURVE SMOOTH",
"144 375 OFFCURVE",
"147 361 OFFCURVE",
"147 347 CURVE SMOOTH",
"147 332 OFFCURVE",
"146 317 OFFCURVE",
"146 301 CURVE",
"145 277 OFFCURVE",
"144 251 OFFCURVE",
"144 224 CURVE SMOOTH",
"144 212 OFFCURVE",
"146 201 OFFCURVE",
"146 189 CURVE SMOOTH",
"146 154 OFFCURVE",
"143 119 OFFCURVE",
"147 90 CURVE",
"146 83 OFFCURVE",
"142 78 OFFCURVE",
"143 68 CURVE",
"151 29 OFFCURVE",
"143 -17 OFFCURVE",
"147 -58 CURVE SMOOTH",
"148 -67 OFFCURVE",
"147 -75 OFFCURVE",
"141 -77 CURVE",
"127 -78 OFFCURVE",
"121 -72 OFFCURVE",
"110 -71 CURVE",
"90 -74 OFFCURVE",
"74 -66 OFFCURVE",
"54 -71 CURVE",
"49 -76 OFFCURVE",
"42 -79 OFFCURVE",
"39 -85 CURVE",
"38 -97 OFFCURVE",
"35 -118 OFFCURVE",
"39 -134 CURVE",
"38 -140 OFFCURVE",
"38 -147 OFFCURVE",
"42 -150 CURVE",
"46 -158 OFFCURVE",
"60 -158 OFFCURVE",
"67 -164 CURVE",
"107 -162 OFFCURVE",
"148 -154 OFFCURVE",
"185 -161 CURVE",
"191 -157 OFFCURVE",
"199 -155 OFFCURVE",
"207 -153 CURVE",
"214 -150 OFFCURVE",
"218 -144 OFFCURVE",
"223 -139 CURVE",
"223 -124 LINE"
);
}
);
width = 302;
}
);
unicode = 005D;
},
{
glyphname = a;
layers = (
{
layerId = "7C3BCDA4-8F92-4DF1-91BA-B714BE37B8B5";
paths = (
{
closed = 1;
nodes = (
"456 262 OFFCURVE",
"459 293 OFFCURVE",
"454 317 CURVE",
"460 350 OFFCURVE",
"462 395 OFFCURVE",
"448 421 CURVE",
"426 425 OFFCURVE",
"394 427 OFFCURVE",
"377 416 CURVE",
"372 402 OFFCURVE",
"381 373 OFFCURVE",
"369 366 CURVE",
"354 371 OFFCURVE",
"348 385 OFFCURVE",
"339 396 CURVE",
"325 404 OFFCURVE",
"310 415 OFFCURVE",
"295 420 CURVE",
"279 424 LINE",
"271 428 LINE",
"254 431 OFFCURVE",
"236 427 OFFCURVE",
"218 428 CURVE",
"212 428 OFFCURVE",
"207 429 OFFCURVE",
"202 429 CURVE SMOOTH",
"193 429 OFFCURVE",
"181 424 OFFCURVE",
"175 423 CURVE SMOOTH",
"164 421 LINE",
"152 418 OFFCURVE",
"142 410 OFFCURVE",
"131 409 CURVE",
"120 400 OFFCURVE",
"110 391 OFFCURVE",
"98 383 CURVE",
"93 376 OFFCURVE",
"87 370 OFFCURVE",
"81 363 CURVE",
"75 355 OFFCURVE",
"71 347 OFFCURVE",
"65 341 CURVE",
"63 331 OFFCURVE",
"60 323 OFFCURVE",
"54 317 CURVE",
"53 306 OFFCURVE",
"47 300 OFFCURVE",
"44 290 CURVE",
"41 276 OFFCURVE",
"44 256 OFFCURVE",
"37 246 CURVE",
"41 232 OFFCURVE",
"36 216 OFFCURVE",
"33 204 CURVE",
"39 183 OFFCURVE",
"37 153 OFFCURVE",
"41 131 CURVE",
"47 121 OFFCURVE",
"53 112 OFFCURVE",
"54 96 CURVE",
"63 90 OFFCURVE",
"68 80 OFFCURVE",
"71 68 CURVE",
"79 63 OFFCURVE",
"83 56 OFFCURVE",
"87 48 CURVE",
"94 44 OFFCURVE",
"100 40 OFFCURVE",
"103 32 CURVE",
"112 30 OFFCURVE",
"117 24 OFFCURVE",
"123 19 CURVE",
"132 17 OFFCURVE",
"138 12 OFFCURVE",
"144 7 CURVE",
"154 5 OFFCURVE",
"163 2 OFFCURVE",
"172 -1 CURVE",
"196 -1 OFFCURVE",
"219 -7 OFFCURVE",
"242 -6 CURVE",
"246 -6 OFFCURVE",
"252 -4 OFFCURVE",
"257 -3 CURVE",
"277 0 OFFCURVE",
"291 2 OFFCURVE",
"308 7 CURVE",
"314 12 OFFCURVE",
"321 16 OFFCURVE",
"331 18 CURVE",
"336 27 OFFCURVE",
"345 31 OFFCURVE",
"352 38 CURVE",
"360 44 OFFCURVE",
"363 55 OFFCURVE",
"374 57 CURVE",
"381 52 OFFCURVE",
"377 41 OFFCURVE",
"377 30 CURVE SMOOTH",
"377 18 OFFCURVE",
"377 9 OFFCURVE",
"385 3 CURVE",
"397 5 OFFCURVE",
"402 4 OFFCURVE",
"415 3 CURVE",
"430 11 OFFCURVE",
"447 17 OFFCURVE",
"457 30 CURVE",
"459 52 OFFCURVE",
"455 83 OFFCURVE",
"459 106 CURVE",
"452 123 OFFCURVE",
"459 144 OFFCURVE",
"459 163 CURVE SMOOTH",
"459 181 OFFCURVE",
"453 199 OFFCURVE",
"457 216 CURVE",
"454 235 LINE"
);
},
{
closed = 1;
nodes = (
"380 254 OFFCURVE",
"380 238 CURVE",
"382 239 OFFCURVE",
"382 238 OFFCURVE",
"382 237 CURVE SMOOTH",
"383 185 OFFCURVE",
"381 136 OFFCURVE",
"350 117 CURVE",
"346 112 OFFCURVE",
"343 105 OFFCURVE",
"339 100 CURVE",
"332 96 OFFCURVE",
"325 93 OFFCURVE",
"320 87 CURVE",
"314 86 OFFCURVE",
"309 84 OFFCURVE",
"305 81 CURVE",
"299 80 OFFCURVE",
"292 82 OFFCURVE",
"289 79 CURVE",
"281 80 OFFCURVE",
"280 73 OFFCURVE",
"273 73 CURVE",
"266 72 OFFCURVE",
"262 70 OFFCURVE",
"254 70 CURVE",
"242 69 OFFCURVE",
"239 76 OFFCURVE",
"227 74 CURVE",
"219 76 OFFCURVE",
"212 80 OFFCURVE",
"201 79 CURVE",
"189 86 OFFCURVE",
"178 92 OFFCURVE",
"169 101 CURVE",
"161 111 OFFCURVE",
"148 116 OFFCURVE",
"139 125 CURVE",
"136 135 OFFCURVE",
"130 142 OFFCURVE",
"131 156 CURVE",
"127 165 OFFCURVE",
"124 174 OFFCURVE",
"120 182 CURVE",
"121 192 OFFCURVE",
"119 199 OFFCURVE",
"117 207 CURVE",
"118 221 OFFCURVE",
"122 232 OFFCURVE",
"122 248 CURVE",
"126 257 OFFCURVE",
"129 267 OFFCURVE",
"133 278 CURVE SMOOTH",
"136 287 OFFCURVE",
"143 294 OFFCURVE",
"145 305 CURVE",
"159 312 OFFCURVE",
"167 323 OFFCURVE",
"178 333 CURVE",
"190 338 OFFCURVE",
"201 345 OFFCURVE",
"215 349 CURVE",
"229 350 OFFCURVE",
"240 354 OFFCURVE",
"256 353 CURVE",
"271 353 OFFCURVE",
"280 347 OFFCURVE",
"295 347 CURVE",
"301 342 OFFCURVE",
"311 339 OFFCURVE",
"319 336 CURVE",
"331 327 OFFCURVE",
"341 316 OFFCURVE",
"353 308 CURVE",
"355 302 OFFCURVE",
"360 298 OFFCURVE",
"363 294 CURVE",
"366 289 OFFCURVE",
"368 284 OFFCURVE",
"372 279 CURVE",
"376 266 OFFCURVE"
);
}
);
width = 499;
}
);
unicode = 0061;
},
{
glyphname = b;
layers = (
{
layerId = "7C3BCDA4-8F92-4DF1-91BA-B714BE37B8B5";
paths = (
{
closed = 1;
nodes = (
"400 16 OFFCURVE",
"408 29 OFFCURVE",
"422 33 CURVE",
"425 40 OFFCURVE",
"432 45 OFFCURVE",
"436 50 CURVE SMOOTH",
"441 56 OFFCURVE",
"444 63 OFFCURVE",
"449 69 CURVE",
"456 83 OFFCURVE",
"463 97 OFFCURVE",
"473 109 CURVE",
"471 118 OFFCURVE",
"476 121 OFFCURVE",
"477 127 CURVE",
"477 137 OFFCURVE",
"480 144 OFFCURVE",
"479 154 CURVE",
"482 155 OFFCURVE",
"479 156 OFFCURVE",
"479 159 CURVE SMOOTH",
"479 175 OFFCURVE",
"478 192 OFFCURVE",
"477 208 CURVE",
"477 225 OFFCURVE",
"478 243 OFFCURVE",
"476 260 CURVE SMOOTH",
"475 272 OFFCURVE",
"469 288 OFFCURVE",
"466 296 CURVE",
"464 303 OFFCURVE",
"462 311 OFFCURVE",
"458 317 CURVE",
"457 321 OFFCURVE",
"453 324 OFFCURVE",
"451 328 CURVE",
"449 330 OFFCURVE",
"449 332 OFFCURVE",
"447 334 CURVE",
"440 345 LINE",
"435 352 OFFCURVE",
"432 356 OFFCURVE",
"429 362 CURVE",
"426 364 OFFCURVE",
"422 366 OFFCURVE",
"422 370 CURVE",
"418 372 OFFCURVE",
"416 375 OFFCURVE",
"413 378 CURVE SMOOTH",
"410 381 OFFCURVE",
"405 383 OFFCURVE",
"402 386 CURVE",
"395 391 OFFCURVE",
"389 399 OFFCURVE",
"381 403 CURVE",
"368 411 OFFCURVE",
"350 412 OFFCURVE",
"339 424 CURVE",
"326 423 OFFCURVE",
"318 429 OFFCURVE",
"307 430 CURVE SMOOTH",
"299 431 OFFCURVE",
"297 425 OFFCURVE",
"288 425 CURVE",
"267 426 OFFCURVE",
"254 420 OFFCURVE",
"233 421 CURVE",
"222 416 OFFCURVE",
"210 411 OFFCURVE",
"197 408 CURVE",
"190 399 OFFCURVE",
"180 393 OFFCURVE",
"172 386 CURVE",
"161 380 OFFCURVE",
"158 368 OFFCURVE",
"143 367 CURVE",
"136 376 OFFCURVE",
"140 385 OFFCURVE",
"140 394 CURVE SMOOTH",
"140 397 OFFCURVE",
"138 401 OFFCURVE",
"139 405 CURVE",
"139 418 OFFCURVE",
"141 432 OFFCURVE",
"142 446 CURVE",
"142 453 OFFCURVE",
"140 460 OFFCURVE",
"140 468 CURVE SMOOTH",
"140 504 OFFCURVE",
"141 544 OFFCURVE",
"140 575 CURVE",
"140 602 OFFCURVE",
"139 628 OFFCURVE",
"140 654 CURVE SMOOTH",
"141 677 OFFCURVE",
"142 699 OFFCURVE",
"145 717 CURVE",
"140 729 OFFCURVE",
"142 740 OFFCURVE",
"140 752 CURVE",
"134 756 OFFCURVE",
"126 759 OFFCURVE",
"116 760 CURVE",
"109 760 OFFCURVE",
"101 756 OFFCURVE",
"94 756 CURVE SMOOTH",
"80 756 OFFCURVE",
"64 763 OFFCURVE",
"55 753 CURVE",
"52 741 OFFCURVE",
"55 730 OFFCURVE",
"57 717 CURVE",
"56 632 OFFCURVE",
"59 546 OFFCURVE",
"60 462 CURVE SMOOTH",
"60 418 OFFCURVE",
"56 376 OFFCURVE",
"61 336 CURVE",
"55 319 OFFCURVE",
"57 302 OFFCURVE",
"58 282 CURVE SMOOTH",
"60 251 OFFCURVE",
"63 218 OFFCURVE",
"63 187 CURVE SMOOTH",
"63 181 OFFCURVE",
"61 176 OFFCURVE",
"61 170 CURVE SMOOTH",
"61 165 OFFCURVE",
"63 158 OFFCURVE",
"63 153 CURVE SMOOTH",
"63 138 OFFCURVE",
"58 124 OFFCURVE",
"64 113 CURVE",
"59 89 OFFCURVE",
"64 65 OFFCURVE",
"63 36 CURVE",
"59 21 OFFCURVE",
"58 3 OFFCURVE",
"68 -7 CURVE",
"89 -10 OFFCURVE",
"118 -7 OFFCURVE",
"137 -7 CURVE",
"141 -2 OFFCURVE",
"146 4 OFFCURVE",
"145 14 CURVE",
"145 25 OFFCURVE",
"142 30 OFFCURVE",
"146 38 CURVE",
"155 38 OFFCURVE",
"155 30 OFFCURVE",
"161 28 CURVE",
"163 23 OFFCURVE",
"169 21 OFFCURVE",
"173 17 CURVE",
"182 10 OFFCURVE",
"191 3 OFFCURVE",
"202 -2 CURVE",
"220 -6 OFFCURVE",
"239 -11 OFFCURVE",
"258 -14 CURVE",
"276 -9 OFFCURVE",
"292 -11 OFFCURVE",
"310 -13 CURVE",
"328 -13 OFFCURVE",
"339 -6 OFFCURVE",
"356 -5 CURVE",
"360 -1 OFFCURVE",
"365 1 OFFCURVE",
"370 3 CURVE",
"388 9 LINE"
);
},
{
closed = 1;
nodes = (
"392 254 OFFCURVE",
"394 230 CURVE",
"395 230 OFFCURVE",
"395 229 OFFCURVE",
"395 228 CURVE",
"394 211 OFFCURVE",
"397 195 OFFCURVE",
"395 181 CURVE",
"394 170 OFFCURVE",
"388 160 OFFCURVE",
"389 150 CURVE",
"382 138 OFFCURVE",
"377 125 OFFCURVE",
"372 112 CURVE",
"364 103 OFFCURVE",
"356 94 OFFCURVE",
"347 86 CURVE",
"323 80 OFFCURVE",
"303 66 OFFCURVE",
"274 64 CURVE",
"263 64 OFFCURVE",
"253 66 OFFCURVE",
"239 66 CURVE",
"231 67 OFFCURVE",
"227 74 OFFCURVE",
"216 72 CURVE",
"207 83 OFFCURVE",
"194 89 OFFCURVE",
"179 94 CURVE",
"167 109 OFFCURVE",
"158 127 OFFCURVE",
"146 143 CURVE",
"144 153 OFFCURVE",
"142 164 OFFCURVE",
"139 173 CURVE",
"141 182 OFFCURVE",
"138 190 OFFCURVE",
"139 198 CURVE",
"139 204 OFFCURVE",
"141 209 OFFCURVE",
"142 214 CURVE",
"142 221 OFFCURVE",
"138 227 OFFCURVE",
"140 235 CURVE",
"144 246 OFFCURVE",
"147 259 OFFCURVE",
"150 272 CURVE",
"158 284 OFFCURVE",
"169 293 OFFCURVE",
"175 307 CURVE",
"192 317 OFFCURVE",
"207 330 OFFCURVE",
"225 339 CURVE",
"236 338 OFFCURVE",
"244 340 OFFCURVE",
"250 343 CURVE",
"266 343 OFFCURVE",
"287 341 OFFCURVE",
"307 340 CURVE",
"325 329 OFFCURVE",
"343 316 OFFCURVE",
"361 304 CURVE",
"364 298 OFFCURVE",
"368 293 OFFCURVE",
"373 288 CURVE",
"378 267 OFFCURVE"
);
}
);
width = 523;
}
);
unicode = 0062;
},
{
glyphname = c;
layers = (
{
layerId = "7C3BCDA4-8F92-4DF1-91BA-B714BE37B8B5";
paths = (
{
closed = 1;
nodes = (
"43 152 OFFCURVE",
"44 150 OFFCURVE",
"44 146 CURVE",
"47 140 OFFCURVE",
"47 134 OFFCURVE",
"50 127 CURVE",
"52 121 OFFCURVE",
"57 116 OFFCURVE",
"58 109 CURVE",
"63 87 OFFCURVE",
"79 76 OFFCURVE",
"89 58 CURVE",
"101 53 OFFCURVE",
"107 43 OFFCURVE",
"114 33 CURVE",
"128 22 OFFCURVE",
"145 15 OFFCURVE",
"157 3 CURVE",
"187 -2 LINE",
"188 -2 OFFCURVE",
"190 -5 OFFCURVE",
"192 -5 CURVE",
"194 -6 OFFCURVE",
"198 -4 OFFCURVE",
"201 -5 CURVE",
"206 -6 OFFCURVE",
"211 -9 OFFCURVE",
"215 -10 CURVE",
"228 -9 OFFCURVE",
"236 -12 OFFCURVE",
"248 -11 CURVE",
"264 -8 OFFCURVE",
"275 -9 OFFCURVE",
"294 -8 CURVE",
"310 -4 OFFCURVE",
"330 -4 OFFCURVE",
"346 0 CURVE",
"353 3 OFFCURVE",
"358 9 OFFCURVE",
"364 14 CURVE",
"367 21 OFFCURVE",
"376 23 OFFCURVE",
"378 33 CURVE",
"377 41 OFFCURVE",
"379 52 OFFCURVE",
"376 58 CURVE",
"373 80 OFFCURVE",
"381 105 OFFCURVE",
"368 118 CURVE",
"354 117 OFFCURVE",
"350 106 OFFCURVE",
"341 99 CURVE SMOOTH",
"326 87 OFFCURVE",
"307 80 OFFCURVE",
"285 75 CURVE",
"270 76 OFFCURVE",
"257 74 OFFCURVE",
"245 72 CURVE",
"238 75 OFFCURVE",
"231 78 OFFCURVE",
"220 77 CURVE",
"213 81 OFFCURVE",
"205 85 OFFCURVE",
"195 86 CURVE",
"182 97 OFFCURVE",
"166 105 OFFCURVE",
"154 116 CURVE",
"141 141 OFFCURVE",
"126 163 OFFCURVE",
"119 194 CURVE",
"119 226 OFFCURVE",
"129 248 OFFCURVE",
"137 272 CURVE",
"141 278 OFFCURVE",
"146 282 OFFCURVE",
"148 290 CURVE",
"158 298 OFFCURVE",
"166 309 OFFCURVE",
"176 317 CURVE",
"180 322 OFFCURVE",
"187 324 OFFCURVE",
"192 328 CURVE",
"199 330 OFFCURVE",
"201 337 OFFCURVE",
"209 339 CURVE",
"252 348 LINE",
"262 345 OFFCURVE",
"270 344 OFFCURVE",
"282 345 CURVE",
"290 342 OFFCURVE",
"297 336 OFFCURVE",
"310 337 CURVE",
"319 330 OFFCURVE",
"332 327 OFFCURVE",
"340 320 CURVE",
"352 316 OFFCURVE",
"354 301 OFFCURVE",
"371 302 CURVE",
"379 310 OFFCURVE",
"375 322 OFFCURVE",
"375 332 CURVE",
"373 353 OFFCURVE",
"373 374 OFFCURVE",
"375 392 CURVE",
"373 393 OFFCURVE",
"373 395 OFFCURVE",
"373 397 CURVE",
"367 407 OFFCURVE",
"355 413 OFFCURVE",
"341 416 CURVE",
"332 423 OFFCURVE",
"315 423 OFFCURVE",
"304 429 CURVE",
"267 433 OFFCURVE",
"243 423 OFFCURVE",
"204 427 CURVE",
"195 424 OFFCURVE",
"187 421 OFFCURVE",
"176 419 CURVE",
"169 412 OFFCURVE",
"158 409 OFFCURVE",
"148 405 CURVE",
"139 395 OFFCURVE",
"127 388 OFFCURVE",
"114 383 CURVE",
"105 371 OFFCURVE",
"93 362 OFFCURVE",
"85 350 CURVE",
"81 343 OFFCURVE",
"75 338 OFFCURVE",
"70 332 CURVE",
"68 324 OFFCURVE",
"64 318 OFFCURVE",
"58 313 CURVE",
"56 305 OFFCURVE",
"55 296 OFFCURVE",
"50 290 CURVE",
"46 283 OFFCURVE",
"45 273 OFFCURVE",
"42 265 CURVE",
"41 242 OFFCURVE",
"38 223 OFFCURVE",
"39 198 CURVE",
"39 190 OFFCURVE",
"41 180 OFFCURVE",
"42 173 CURVE",
"42 154 LINE"
);
}
);
width = 415;
}
);
unicode = 0063;
},
{
glyphname = d;
layers = (
{
layerId = "7C3BCDA4-8F92-4DF1-91BA-B714BE37B8B5";
paths = (
{
closed = 1;
nodes = (
"453 47 OFFCURVE",
"455 50 OFFCURVE",
"454 52 CURVE",
"454 52 OFFCURVE",
"453 54 OFFCURVE",
"453 57 CURVE",
"449 84 OFFCURVE",
"455 112 OFFCURVE",
"450 135 CURVE",
"452 139 OFFCURVE",
"452 145 OFFCURVE",
"453 150 CURVE",
"449 192 OFFCURVE",
"454 237 OFFCURVE",
"451 276 CURVE SMOOTH",
"450 298 OFFCURVE",
"453 329 OFFCURVE",
"453 351 CURVE",
"452 431 OFFCURVE",
"453 520 OFFCURVE",
"451 596 CURVE",
"451 598 OFFCURVE",
"453 599 OFFCURVE",
"453 600 CURVE SMOOTH",
"453 605 OFFCURVE",
"452 616 OFFCURVE",
"451 622 CURVE",
"451 667 LINE SMOOTH",
"451 683 OFFCURVE",
"449 699 OFFCURVE",
"450 715 CURVE",
"450 730 OFFCURVE",
"454 744 OFFCURVE",
"448 758 CURVE",
"433 770 OFFCURVE",
"412 760 OFFCURVE",
"393 764 CURVE",
"386 760 OFFCURVE",
"372 762 OFFCURVE",
"366 756 CURVE",
"359 732 OFFCURVE",
"368 704 OFFCURVE",
"369 676 CURVE SMOOTH",
"370 661 OFFCURVE",
"369 646 OFFCURVE",
"369 630 CURVE SMOOTH",
"369 611 LINE SMOOTH",
"369 604 OFFCURVE",
"370 596 OFFCURVE",
"368 589 CURVE",
"372 570 OFFCURVE",
"369 550 OFFCURVE",
"368 529 CURVE",
"369 522 OFFCURVE",
"372 516 OFFCURVE",
"372 507 CURVE",
"369 487 LINE",
"371 451 OFFCURVE",
"371 417 OFFCURVE",
"372 380 CURVE SMOOTH",
"372 372 OFFCURVE",
"373 364 OFFCURVE",
"368 361 CURVE",
"360 363 OFFCURVE",
"355 368 OFFCURVE",
"350 373 CURVE",
"347 380 OFFCURVE",
"339 383 OFFCURVE",
"335 389 CURVE",
"321 398 OFFCURVE",
"306 406 OFFCURVE",
"294 416 CURVE",
"287 417 OFFCURVE",
"281 419 OFFCURVE",
"275 421 CURVE",
"268 424 OFFCURVE",
"265 427 OFFCURVE",
"257 429 CURVE",
"252 429 OFFCURVE",
"246 427 OFFCURVE",
"238 427 CURVE SMOOTH",
"231 427 OFFCURVE",
"224 430 OFFCURVE",
"216 429 CURVE",
"203 426 OFFCURVE",
"189 424 OFFCURVE",
"175 422 CURVE",
"160 417 OFFCURVE",
"147 409 OFFCURVE",
"130 405 CURVE",
"113 390 OFFCURVE",
"95 378 OFFCURVE",
"79 362 CURVE",
"76 355 OFFCURVE",
"72 350 OFFCURVE",
"68 343 CURVE",
"67 334 OFFCURVE",
"58 333 OFFCURVE",
"56 324 CURVE",
"53 318 OFFCURVE",
"50 311 OFFCURVE",
"49 302 CURVE",
"43 297 OFFCURVE",
"41 288 OFFCURVE",
"37 280 CURVE",
"37 264 OFFCURVE",
"33 246 OFFCURVE",
"32 228 CURVE",
"31 219 OFFCURVE",
"32 208 OFFCURVE",
"32 198 CURVE",
"31 188 OFFCURVE",
"30 178 OFFCURVE",
"30 168 CURVE",
"32 154 OFFCURVE",
"37 140 OFFCURVE",
"38 126 CURVE",
"49 105 OFFCURVE",
"58 83 OFFCURVE",
"68 63 CURVE",
"81 52 OFFCURVE",
"91 39 OFFCURVE",
"100 25 CURVE",
"115 19 OFFCURVE",
"128 11 OFFCURVE",
"141 3 CURVE",
"149 2 OFFCURVE",
"156 -1 OFFCURVE",
"163 -5 CURVE",
"178 -6 OFFCURVE",
"193 -10 OFFCURVE",
"210 -11 CURVE SMOOTH",
"236 -13 OFFCURVE",
"260 -11 OFFCURVE",
"281 -8 CURVE SMOOTH",
"293 -6 OFFCURVE",
"304 -4 OFFCURVE",
"314 -3 CURVE",
"315 -1 OFFCURVE",
"318 0 OFFCURVE",
"322 0 CURVE",
"331 8 OFFCURVE",
"338 17 OFFCURVE",
"349 23 CURVE",
"350 30 OFFCURVE",
"355 33 OFFCURVE",
"358 38 CURVE SMOOTH",
"361 43 OFFCURVE",
"372 49 OFFCURVE",
"372 49 CURVE SMOOTH",
"372 49 OFFCURVE",
"371 18 OFFCURVE",
"371 3 CURVE",
"380 -6 OFFCURVE",
"397 -10 OFFCURVE",
"412 -5 CURVE",
"426 -9 OFFCURVE",
"441 -5 OFFCURVE",
"451 0 CURVE",
"457 7 OFFCURVE",
"457 17 OFFCURVE",
"456 23 CURVE",
"453 47 LINE"
);
},
{
closed = 1;
nodes = (
"128 142 OFFCURVE",
"122 148 OFFCURVE",
"120 156 CURVE",
"117 174 OFFCURVE",
"115 196 OFFCURVE",
"115 220 CURVE",
"119 231 OFFCURVE",
"121 243 OFFCURVE",
"123 254 CURVE",
"126 264 OFFCURVE",
"130 273 OFFCURVE",
"134 282 CURVE",
"143 291 OFFCURVE",
"152 299 OFFCURVE",
"158 310 CURVE",
"171 318 OFFCURVE",
"181 327 OFFCURVE",
"193 336 CURVE",
"199 337 OFFCURVE",
"206 339 OFFCURVE",
"210 343 CURVE",
"222 343 OFFCURVE",
"233 344 OFFCURVE",
"240 348 CURVE",
"249 344 OFFCURVE",
"263 346 OFFCURVE",
"273 343 CURVE",
"283 342 OFFCURVE",
"289 335 OFFCURVE",
"300 334 CURVE",
"307 329 OFFCURVE",
"313 323 OFFCURVE",
"322 320 CURVE",
"330 310 OFFCURVE",
"338 300 OFFCURVE",
"349 293 CURVE",
"352 288 OFFCURVE",
"352 280 OFFCURVE",
"355 276 CURVE",
"369 263 OFFCURVE",
"372 238 OFFCURVE",
"374 214 CURVE SMOOTH",
"376 190 OFFCURVE",
"375 162 OFFCURVE",
"366 142 CURVE SMOOTH",
"363 135 OFFCURVE",
"359 130 OFFCURVE",
"355 124 CURVE SMOOTH",
"351 118 OFFCURVE",
"347 113 OFFCURVE",
"344 107 CURVE",
"336 100 OFFCURVE",
"327 94 OFFCURVE",
"320 85 CURVE",
"313 84 OFFCURVE",
"308 81 OFFCURVE",
"303 77 CURVE",
"300 72 OFFCURVE",
"290 74 OFFCURVE",
"287 69 CURVE",
"270 67 OFFCURVE",
"252 65 OFFCURVE",
"232 66 CURVE",
"221 67 OFFCURVE",
"212 73 OFFCURVE",
"202 75 CURVE",
"196 77 OFFCURVE",
"190 77 OFFCURVE",
"185 79 CURVE",
"184 79 OFFCURVE",
"180 81 OFFCURVE",
"179 82 CURVE",
"164 89 OFFCURVE",
"154 105 OFFCURVE",
"141 115 CURVE",
"131 135 LINE"
);
}
);
width = 511;
}
);
unicode = 0064;
},
{
glyphname = e;
layers = (
{
layerId = "7C3BCDA4-8F92-4DF1-91BA-B714BE37B8B5";
paths = (
{
closed = 1;
nodes = (
"49 258 OFFCURVE",
"49 249 OFFCURVE",
"53 239 CURVE",
"52 233 OFFCURVE",
"47 232 OFFCURVE",
"48 224 CURVE",
"48 187 LINE",
"51 174 OFFCURVE",
"52 159 OFFCURVE",
"54 145 CURVE",
"64 125 OFFCURVE",
"70 98 OFFCURVE",
"81 83 CURVE SMOOTH",
"84 79 OFFCURVE",
"86 78 OFFCURVE",
"89 75 CURVE",
"96 69 OFFCURVE",
"100 61 OFFCURVE",
"105 53 CURVE",
"117 46 OFFCURVE",
"125 34 OFFCURVE",
"135 23 CURVE",
"149 14 OFFCURVE",
"168 10 OFFCURVE",
"184 1 CURVE",
"197 1 OFFCURVE",
"210 -3 OFFCURVE",
"223 -3 CURVE",
"232 -4 OFFCURVE",
"241 -2 OFFCURVE",
"251 -2 CURVE SMOOTH",
"261 -2 OFFCURVE",
"270 -4 OFFCURVE",
"278 -3 CURVE",
"291 -3 OFFCURVE",
"301 1 OFFCURVE",
"311 1 CURVE",
"323 7 OFFCURVE",
"337 11 OFFCURVE",
"351 16 CURVE",
"369 27 OFFCURVE",
"386 41 OFFCURVE",
"403 55 CURVE",
"414 78 OFFCURVE",
"441 84 OFFCURVE",
"439 118 CURVE",
"431 125 OFFCURVE",
"423 131 OFFCURVE",
"412 135 CURVE",
"404 142 OFFCURVE",
"396 150 OFFCURVE",
"381 150 CURVE",
"368 124 LINE",
"352 109 OFFCURVE",
"336 95 OFFCURVE",
"318 82 CURVE",
"307 80 OFFCURVE",
"299 76 OFFCURVE",
"291 72 CURVE",
"274 68 OFFCURVE",
"255 67 OFFCURVE",
"234 68 CURVE",
"218 70 OFFCURVE",
"207 77 OFFCURVE",
"193 82 CURVE",
"185 89 OFFCURVE",
"177 96 OFFCURVE",
"166 101 CURVE",
"156 116 OFFCURVE",
"142 125 OFFCURVE",
"136 138 CURVE SMOOTH",
"130 152 OFFCURVE",
"127 166 OFFCURVE",
"132 176 CURVE",
"130 183 OFFCURVE",
"126 190 OFFCURVE",
"130 197 CURVE",
"140 203 OFFCURVE",
"152 199 OFFCURVE",
"163 200 CURVE SMOOTH",
"193 202 OFFCURVE",
"223 201 OFFCURVE",
"254 203 CURVE",
"261 203 OFFCURVE",
"265 200 OFFCURVE",
"272 200 CURVE",
"304 198 OFFCURVE",
"336 205 OFFCURVE",
"366 200 CURVE",
"387 205 OFFCURVE",
"420 202 OFFCURVE",
"444 203 CURVE",
"451 208 OFFCURVE",
"450 221 OFFCURVE",
"450 233 CURVE",
"444 245 OFFCURVE",
"446 265 OFFCURVE",
"444 280 CURVE",
"438 295 OFFCURVE",
"431 309 OFFCURVE",
"428 326 CURVE",
"419 340 OFFCURVE",
"411 351 OFFCURVE",
"401 362 CURVE",
"398 370 OFFCURVE",
"393 378 OFFCURVE",
"390 386 CURVE",
"376 388 OFFCURVE",
"371 399 OFFCURVE",
"362 406 CURVE",
"351 408 OFFCURVE",
"347 408 OFFCURVE",
"336 411 CURVE",
"330 414 OFFCURVE",
"331 423 OFFCURVE",
"322 424 CURVE",
"307 430 OFFCURVE",
"286 431 OFFCURVE",
"267 435 CURVE",
"251 433 OFFCURVE",
"240 435 OFFCURVE",
"226 432 CURVE",
"215 435 OFFCURVE",
"209 429 OFFCURVE",
"198 432 CURVE",
"187 426 OFFCURVE",
"169 427 OFFCURVE",
"160 419 CURVE",
"146 416 OFFCURVE",
"140 405 OFFCURVE",
"127 402 CURVE",
"122 395 OFFCURVE",
"115 391 OFFCURVE",
"111 384 CURVE",
"103 381 OFFCURVE",
"100 373 OFFCURVE",
"92 369 CURVE",
"87 349 OFFCURVE",
"65 338 OFFCURVE",
"70 313 CURVE",
"62 309 OFFCURVE",
"59 300 OFFCURVE",
"56 290 CURVE",
"51 269 LINE"
);
},
{
closed = 1;
nodes = (
"360 279 OFFCURVE",
"362 274 CURVE",
"351 266 OFFCURVE",
"334 266 OFFCURVE",
"318 266 CURVE SMOOTH",
"303 266 OFFCURVE",
"289 269 OFFCURVE",
"278 265 CURVE",
"266 268 OFFCURVE",
"252 268 OFFCURVE",
"236 268 CURVE SMOOTH",
"233 268 OFFCURVE",
"229 266 OFFCURVE",
"226 266 CURVE SMOOTH",
"222 266 OFFCURVE",
"220 268 OFFCURVE",
"217 268 CURVE",
"209 267 OFFCURVE",
"202 265 OFFCURVE",
"195 265 CURVE",
"185 264 OFFCURVE",
"175 266 OFFCURVE",
"165 266 CURVE SMOOTH",
"155 266 OFFCURVE",
"143 264 OFFCURVE",
"135 271 CURVE",
"133 292 OFFCURVE",
"143 300 OFFCURVE",
"147 315 CURVE",
"155 324 OFFCURVE",
"164 329 OFFCURVE",
"169 340 CURVE",
"174 341 OFFCURVE",
"177 345 OFFCURVE",
"180 348 CURVE",
"185 352 OFFCURVE",
"194 354 OFFCURVE",
"199 359 CURVE",
"214 360 OFFCURVE",
"227 367 OFFCURVE",
"242 367 CURVE SMOOTH",
"253 367 OFFCURVE",
"264 362 OFFCURVE",
"277 364 CURVE",
"285 360 OFFCURVE",
"294 357 OFFCURVE",
"305 356 CURVE",
"311 351 OFFCURVE",
"318 347 OFFCURVE",
"325 343 CURVE",
"336 332 OFFCURVE",
"346 320 OFFCURVE",
"355 307 CURVE",
"355 296 OFFCURVE",
"361 291 OFFCURVE",
"363 282 CURVE SMOOTH",
"364 278 OFFCURVE"
);
}
);
width = 483;
}
);
unicode = 0065;
},
{
glyphname = f;
layers = (
{
layerId = "7C3BCDA4-8F92-4DF1-91BA-B714BE37B8B5";
paths = (
{
closed = 1;
nodes = (
"144 761 OFFCURVE",
"138 762 OFFCURVE",
"134 760 CURVE",
"131 758 OFFCURVE",
"131 754 OFFCURVE",
"127 756 CURVE",
"116 746 OFFCURVE",
"106 733 OFFCURVE",
"93 725 CURVE",
"91 714 OFFCURVE",
"81 706 OFFCURVE",
"77 697 CURVE",
"72 679 LINE",
"66 663 LINE",
"66 655 OFFCURVE",
"64 648 OFFCURVE",
"63 641 CURVE",
"65 621 OFFCURVE",
"62 604 OFFCURVE",
"59 586 CURVE",
"61 581 OFFCURVE",
"63 576 OFFCURVE",
"64 570 CURVE",
"63 567 OFFCURVE",
"60 564 OFFCURVE",
"61 558 CURVE SMOOTH",
"63 545 OFFCURVE",
"62 530 OFFCURVE",
"63 515 CURVE",
"63 504 OFFCURVE",
"65 490 OFFCURVE",
"64 482 CURVE",
"64 478 OFFCURVE",
"62 475 OFFCURVE",
"63 471 CURVE",
"63 465 OFFCURVE",
"64 458 OFFCURVE",
"64 452 CURVE SMOOTH",
"64 447 OFFCURVE",
"62 441 OFFCURVE",
"61 436 CURVE SMOOTH",
"60 431 OFFCURVE",
"63 424 OFFCURVE",
"58 421 CURVE",
"50 418 OFFCURVE",
"41 417 OFFCURVE",
"29 418 CURVE",
"19 399 OFFCURVE",
"19 360 OFFCURVE",
"29 340 CURVE",
"36 334 OFFCURVE",
"53 340 OFFCURVE",
"59 334 CURVE",
"65 321 OFFCURVE",
"65 306 OFFCURVE",
"66 293 CURVE",
"66 288 OFFCURVE",
"64 283 OFFCURVE",
"64 277 CURVE SMOOTH",
"64 267 OFFCURVE",
"66 257 OFFCURVE",
"66 246 CURVE SMOOTH",
"66 217 OFFCURVE",
"64 182 OFFCURVE",
"66 150 CURVE",
"67 111 OFFCURVE",
"66 75 OFFCURVE",
"67 42 CURVE",
"65 31 OFFCURVE",
"60 19 OFFCURVE",
"64 6 CURVE",
"78 -12 OFFCURVE",
"109 3 OFFCURVE",
"135 -3 CURVE",
"147 -5 OFFCURVE",
"151 2 OFFCURVE",
"157 6 CURVE",
"154 57 OFFCURVE",
"152 117 OFFCURVE",
"152 167 CURVE",
"149 187 LINE",
"157 236 OFFCURVE",
"147 285 OFFCURVE",
"152 337 CURVE",
"183 340 OFFCURVE",
"218 337 OFFCURVE",
"253 334 CURVE",
"257 339 OFFCURVE",
"264 341 OFFCURVE",
"266 348 CURVE",
"267 356 OFFCURVE",
"267 365 OFFCURVE",
"269 372 CURVE",
"263 384 OFFCURVE",
"270 410 OFFCURVE",
"261 419 CURVE",
"253 424 OFFCURVE",
"241 420 OFFCURVE",
"228 419 CURVE SMOOTH",
"215 418 OFFCURVE",
"201 419 OFFCURVE",
"187 419 CURVE SMOOTH",
"174 419 OFFCURVE",
"161 419 OFFCURVE",
"154 424 CURVE",
"150 433 OFFCURVE",
"150 445 OFFCURVE",
"149 455 CURVE",
"149 474 LINE SMOOTH",
"149 480 OFFCURVE",
"150 489 OFFCURVE",
"151 492 CURVE",
"151 493 OFFCURVE",
"149 494 OFFCURVE",
"149 495 CURVE",
"147 543 OFFCURVE",
"150 586 OFFCURVE",
"149 633 CURVE",
"157 650 OFFCURVE",
"160 671 OFFCURVE",
"174 681 CURVE",
"186 680 OFFCURVE",
"192 685 OFFCURVE",
"201 685 CURVE",
"226 688 OFFCURVE",
"243 679 OFFCURVE",
"263 685 CURVE",
"265 693 OFFCURVE",
"269 698 OFFCURVE",
"269 708 CURVE",
"263 721 OFFCURVE",
"268 745 OFFCURVE",
"264 760 CURVE",
"260 769 OFFCURVE",
"246 770 OFFCURVE",
"238 775 CURVE",
"225 773 OFFCURVE",
"206 773 OFFCURVE",
"193 775 CURVE",
"185 770 OFFCURVE",
"174 770 OFFCURVE",
"163 767 CURVE SMOOTH",
"149 763 LINE"
);
}
);
width = 283;
}
);
unicode = 0066;
},
{
glyphname = h;
layers = (
{
layerId = "7C3BCDA4-8F92-4DF1-91BA-B714BE37B8B5";
paths = (
{
closed = 1;
nodes = (
"134 476 OFFCURVE",
"136 484 OFFCURVE",
"136 492 CURVE SMOOTH",
"136 499 OFFCURVE",
"135 506 OFFCURVE",
"134 514 CURVE",
"143 544 OFFCURVE",
"130 580 OFFCURVE",
"138 610 CURVE",
"136 616 OFFCURVE",
"135 623 OFFCURVE",
"134 630 CURVE",
"134 642 OFFCURVE",
"137 661 OFFCURVE",
"134 668 CURVE",
"134 670 OFFCURVE",
"136 671 OFFCURVE",
"136 671 CURVE",
"136 687 LINE",
"135 694 OFFCURVE",
"133 699 OFFCURVE",
"131 706 CURVE",
"137 718 OFFCURVE",
"140 739 OFFCURVE",
"138 755 CURVE",
"131 765 OFFCURVE",
"114 764 OFFCURVE",
"98 764 CURVE",
"83 765 OFFCURVE",
"66 767 OFFCURVE",
"56 761 CURVE",
"50 742 OFFCURVE",
"53 719 OFFCURVE",
"52 697 CURVE",
"52 674 OFFCURVE",
"53 653 OFFCURVE",
"51 633 CURVE",
"55 620 OFFCURVE",
"53 607 OFFCURVE",
"52 594 CURVE",
"52 574 LINE",
"53 553 OFFCURVE",
"52 534 OFFCURVE",
"52 514 CURVE",
"53 497 OFFCURVE",
"56 474 OFFCURVE",
"56 455 CURVE SMOOTH",
"56 429 OFFCURVE",
"56 402 OFFCURVE",
"52 380 CURVE",
"56 362 OFFCURVE",
"54 344 OFFCURVE",
"54 329 CURVE SMOOTH",
"54 324 OFFCURVE",
"55 319 OFFCURVE",
"56 313 CURVE",
"57 279 OFFCURVE",
"57 248 OFFCURVE",
"57 214 CURVE",
"53 198 OFFCURVE",
"55 174 OFFCURVE",
"52 156 CURVE",
"54 149 OFFCURVE",
"57 142 OFFCURVE",
"57 134 CURVE SMOOTH",
"57 128 OFFCURVE",
"56 122 OFFCURVE",
"56 115 CURVE",
"55 92 OFFCURVE",
"59 69 OFFCURVE",
"57 50 CURVE",
"56 35 OFFCURVE",
"51 21 OFFCURVE",
"60 11 CURVE",
"68 6 OFFCURVE",
"84 8 OFFCURVE",
"97 8 CURVE",
"109 3 OFFCURVE",
"129 3 OFFCURVE",
"138 11 CURVE",
"145 22 OFFCURVE",
"138 40 OFFCURVE",
"136 52 CURVE",
"138 68 OFFCURVE",
"134 86 OFFCURVE",
"134 104 CURVE",
"135 117 OFFCURVE",
"134 136 OFFCURVE",
"136 151 CURVE",
"136 159 OFFCURVE",
"131 162 OFFCURVE",
"131 170 CURVE",
"134 177 OFFCURVE",
"134 191 OFFCURVE",
"131 198 CURVE",
"139 214 OFFCURVE",
"135 245 OFFCURVE",
"138 263 CURVE",
"138 274 LINE",
"139 284 OFFCURVE",
"142 291 OFFCURVE",
"142 299 CURVE",
"153 318 OFFCURVE",
"167 335 OFFCURVE",
"186 345 CURVE SMOOTH",
"211 358 OFFCURVE",
"257 359 OFFCURVE",
"286 348 CURVE",
"303 336 OFFCURVE",
"319 323 OFFCURVE",
"327 301 CURVE",
"327 290 OFFCURVE",
"326 279 OFFCURVE",
"327 266 CURVE",
"327 245 OFFCURVE",
"329 222 OFFCURVE",
"328 200 CURVE",
"328 188 OFFCURVE",
"326 177 OFFCURVE",
"327 165 CURVE",
"328 142 OFFCURVE",
"330 118 OFFCURVE",
"330 96 CURVE SMOOTH",
"330 88 OFFCURVE",
"328 79 OFFCURVE",
"328 72 CURVE SMOOTH",
"328 62 OFFCURVE",
"331 53 OFFCURVE",
"330 44 CURVE SMOOTH",
"329 31 OFFCURVE",
"321 24 OFFCURVE",
"327 16 CURVE",
"334 3 OFFCURVE",
"356 9 OFFCURVE",
"374 9 CURVE SMOOTH",
"385 9 OFFCURVE",
"393 7 OFFCURVE",
"402 9 CURVE",
"410 14 OFFCURVE",
"416 26 OFFCURVE",
"412 38 CURVE",
"406 98 OFFCURVE",
"406 163 OFFCURVE",
"409 222 CURVE",
"405 236 OFFCURVE",
"404 260 OFFCURVE",
"407 276 CURVE",
"403 294 OFFCURVE",
"403 319 OFFCURVE",
"404 339 CURVE",
"399 352 OFFCURVE",
"392 363 OFFCURVE",
"387 375 CURVE",
"374 384 OFFCURVE",
"364 399 OFFCURVE",
"352 406 CURVE",
"344 412 OFFCURVE",
"333 412 OFFCURVE",
"325 419 CURVE",
"313 421 OFFCURVE",
"307 427 OFFCURVE",
"297 430 CURVE",
"267 432 OFFCURVE",
"233 437 OFFCURVE",
"207 429 CURVE",
"201 426 OFFCURVE",
"195 422 OFFCURVE",
"188 419 CURVE SMOOTH",
"181 416 OFFCURVE",
"172 415 OFFCURVE",
"166 411 CURVE",
"156 406 OFFCURVE",
"149 393 OFFCURVE",
"138 395 CURVE",
"133 413 OFFCURVE",
"138 431 OFFCURVE",
"138 447 CURVE",
"134 468 LINE"
);
}
);
width = 463;
}
);
unicode = 0068;
},
{
glyphname = g;
layers = (
{
layerId = "7C3BCDA4-8F92-4DF1-91BA-B714BE37B8B5";
paths = (
{
closed = 1;
nodes = (
"436 -40 OFFCURVE",
"434 -30 OFFCURVE",
"434 -21 CURVE",
"435 -13 OFFCURVE",
"436 -6 OFFCURVE",
"436 1 CURVE SMOOTH",
"436 8 OFFCURVE",
"437 21 OFFCURVE",
"436 27 CURVE",
"434 49 OFFCURVE",
"437 73 OFFCURVE",
"436 96 CURVE SMOOTH",
"435 128 OFFCURVE",
"436 156 OFFCURVE",
"436 187 CURVE",
"437 213 OFFCURVE",
"433 240 OFFCURVE",
"434 266 CURVE",
"436 291 OFFCURVE",
"435 317 OFFCURVE",
"436 342 CURVE SMOOTH",
"437 367 OFFCURVE",
"437 393 OFFCURVE",
"431 418 CURVE",
"422 425 OFFCURVE",
"408 422 OFFCURVE",
"394 422 CURVE SMOOTH",
"380 422 OFFCURVE",
"364 425 OFFCURVE",
"356 416 CURVE",
"352 406 OFFCURVE",
"361 383 OFFCURVE",
"351 377 CURVE",
"338 375 OFFCURVE",
"336 385 OFFCURVE",
"329 389 CURVE",
"324 396 OFFCURVE",
"314 398 OFFCURVE",
"310 406 CURVE",
"296 410 OFFCURVE",
"288 420 OFFCURVE",
"275 425 CURVE",
"264 427 OFFCURVE",
"252 425 OFFCURVE",
"242 427 CURVE",
"235 428 OFFCURVE",
"230 431 OFFCURVE",
"223 432 CURVE",
"216 432 OFFCURVE",
"209 430 OFFCURVE",
"201 430 CURVE SMOOTH",
"176 430 LINE",
"153 424 OFFCURVE",
"133 416 OFFCURVE",
"113 406 CURVE",
"103 396 OFFCURVE",
"92 387 OFFCURVE",
"80 378 CURVE",
"76 368 OFFCURVE",
"68 363 OFFCURVE",
"64 353 CURVE",
"57 348 OFFCURVE",
"50 344 OFFCURVE",
"44 339 CURVE",
"37 314 OFFCURVE",
"24 296 OFFCURVE",
"21 268 CURVE",
"19 237 OFFCURVE",
"17 217 OFFCURVE",
"18 183 CURVE",
"21 172 OFFCURVE",
"22 161 OFFCURVE",
"21 148 CURVE",
"44 90 LINE",
"49 83 OFFCURVE",
"55 76 OFFCURVE",
"61 69 CURVE",
"64 59 OFFCURVE",
"73 56 OFFCURVE",
"77 47 CURVE",
"86 42 OFFCURVE",
"94 34 OFFCURVE",
"103 28 CURVE",
"119 20 LINE",
"133 11 LINE",
"150 10 OFFCURVE",
"158 0 OFFCURVE",
"176 1 CURVE",
"182 -2 OFFCURVE",
"190 -2 OFFCURVE",
"198 -3 CURVE",
"218 -7 OFFCURVE",
"236 -6 OFFCURVE",
"258 -5 CURVE",
"265 -5 OFFCURVE",
"263 3 OFFCURVE",
"271 1 CURVE",
"286 5 LINE",
"300 15 OFFCURVE",
"312 26 OFFCURVE",
"329 33 CURVE",
"332 38 OFFCURVE",
"336 42 OFFCURVE",
"340 47 CURVE",
"345 49 OFFCURVE",
"348 59 OFFCURVE",
"354 55 CURVE",
"357 51 OFFCURVE",
"356 46 OFFCURVE",
"356 41 CURVE SMOOTH",
"356 28 LINE SMOOTH",
"356 1 OFFCURVE",
"357 -32 OFFCURVE",
"356 -63 CURVE SMOOTH",
"355 -78 OFFCURVE",
"358 -92 OFFCURVE",
"353 -104 CURVE",
"333 -114 OFFCURVE",
"310 -110 OFFCURVE",
"286 -111 CURVE",
"233 -111 LINE",
"214 -110 OFFCURVE",
"195 -109 OFFCURVE",
"176 -109 CURVE SMOOTH",
"157 -109 OFFCURVE",
"138 -111 OFFCURVE",
"119 -111 CURVE",
"100 -110 OFFCURVE",
"83 -107 OFFCURVE",
"66 -109 CURVE",
"60 -119 OFFCURVE",
"64 -131 OFFCURVE",
"64 -144 CURVE SMOOTH",
"64 -154 OFFCURVE",
"60 -165 OFFCURVE",
"64 -174 CURVE",
"75 -185 OFFCURVE",
"95 -180 OFFCURVE",
"111 -180 CURVE SMOOTH",
"122 -180 OFFCURVE",
"132 -182 OFFCURVE",
"143 -182 CURVE",
"151 -181 OFFCURVE",
"159 -180 OFFCURVE",
"167 -180 CURVE SMOOTH",
"307 -180 LINE SMOOTH",
"352 -180 OFFCURVE",
"388 -182 OFFCURVE",
"427 -180 CURVE",
"436 -171 OFFCURVE",
"438 -164 OFFCURVE",
"436 -150 CURVE",
"435 -138 OFFCURVE",
"436 -128 OFFCURVE",
"436 -117 CURVE SMOOTH",
"436 -49 LINE SMOOTH"
);
},
{
closed = 1;
nodes = (
"111 262 OFFCURVE",
"111 267 OFFCURVE",
"113 271 CURVE",
"114 275 OFFCURVE",
"118 278 OFFCURVE",
"119 282 CURVE",
"121 286 OFFCURVE",
"121 291 OFFCURVE",
"122 295 CURVE",
"123 296 OFFCURVE",
"125 296 OFFCURVE",
"126 298 CURVE SMOOTH",
"128 302 OFFCURVE",
"134 310 OFFCURVE",
"138 315 CURVE",
"139 316 OFFCURVE",
"142 315 OFFCURVE",
"143 317 CURVE",
"144 318 OFFCURVE",
"144 319 OFFCURVE",
"144 320 CURVE",
"146 322 OFFCURVE",
"148 324 OFFCURVE",
"149 326 CURVE",
"160 330 OFFCURVE",
"166 337 OFFCURVE",
"176 342 CURVE",
"202 347 OFFCURVE",
"229 356 OFFCURVE",
"258 351 CURVE SMOOTH",
"276 348 OFFCURVE",
"289 337 OFFCURVE",
"307 332 CURVE",
"320 320 OFFCURVE",
"331 305 OFFCURVE",
"343 291 CURVE",
"345 282 OFFCURVE",
"348 274 OFFCURVE",
"353 268 CURVE",
"352 260 OFFCURVE",
"355 256 OFFCURVE",
"356 249 CURVE",
"357 249 OFFCURVE",
"357 248 OFFCURVE",
"357 247 CURVE SMOOTH",
"357 231 OFFCURVE",
"358 216 OFFCURVE",
"357 202 CURVE",
"357 188 OFFCURVE",
"352 175 OFFCURVE",
"353 162 CURVE",
"346 154 OFFCURVE",
"346 144 OFFCURVE",
"341 135 CURVE",
"339 131 OFFCURVE",
"334 126 OFFCURVE",
"330 121 CURVE",
"323 111 OFFCURVE",
"315 104 OFFCURVE",
"305 94 CURVE",
"294 90 OFFCURVE",
"286 83 OFFCURVE",
"274 80 CURVE",
"264 75 OFFCURVE",
"250 75 OFFCURVE",
"241 69 CURVE",
"234 69 OFFCURVE",
"228 72 OFFCURVE",
"222 69 CURVE",
"207 73 OFFCURVE",
"192 76 OFFCURVE",
"179 82 CURVE",
"165 87 OFFCURVE",
"155 97 OFFCURVE",
"143 104 CURVE",
"138 115 OFFCURVE",
"129 123 OFFCURVE",
"122 132 CURVE",
"119 144 OFFCURVE",
"115 156 OFFCURVE",
"108 165 CURVE",
"109 175 OFFCURVE",
"106 180 OFFCURVE",
"103 186 CURVE",
"107 207 OFFCURVE",
"101 227 OFFCURVE",
"105 246 CURVE",
"110 258 LINE"
);
}
);
width = 499;
}
);
unicode = 0067;
},
{
glyphname = i;
layers = (
{
layerId = "7C3BCDA4-8F92-4DF1-91BA-B714BE37B8B5";
paths = (
{
closed = 1;
nodes = (
"145 633 OFFCURVE",
"129 648 CURVE",
"118 654 OFFCURVE",
"100 654 OFFCURVE",
"85 657 CURVE",
"77 653 OFFCURVE",
"68 649 OFFCURVE",
"60 644 CURVE",
"54 631 OFFCURVE",
"47 620 OFFCURVE",
"46 602 CURVE",
"47 589 OFFCURVE",
"53 581 OFFCURVE",
"60 574 CURVE",
"65 564 OFFCURVE",
"73 557 OFFCURVE",
"82 551 CURVE",
"95 553 OFFCURVE",
"104 550 OFFCURVE",
"115 550 CURVE",
"129 556 OFFCURVE",
"141 564 OFFCURVE",
"148 577 CURVE",
"149 608 OFFCURVE"
);
},
{
closed = 1;
nodes = (
"60 171 OFFCURVE",
"65 142 OFFCURVE",
"65 114 CURVE SMOOTH",
"65 104 OFFCURVE",
"61 94 OFFCURVE",
"61 84 CURVE",
"62 59 OFFCURVE",
"65 34 OFFCURVE",
"61 9 CURVE",
"73 -5 OFFCURVE",
"100 -2 OFFCURVE",
"120 2 CURVE",
"128 6 OFFCURVE",
"129 16 OFFCURVE",
"136 21 CURVE",
"136 26 OFFCURVE",
"140 28 OFFCURVE",
"143 31 CURVE",
"145 35 OFFCURVE",
"142 76 OFFCURVE",
"142 84 CURVE SMOOTH",
"142 86 OFFCURVE",
"144 86 OFFCURVE",
"143 89 CURVE",
"143 102 OFFCURVE",
"140 116 OFFCURVE",
"140 130 CURVE SMOOTH",
"140 136 OFFCURVE",
"142 142 OFFCURVE",
"142 149 CURVE SMOOTH",
"142 155 OFFCURVE",
"140 161 OFFCURVE",
"140 168 CURVE SMOOTH",
"141 202 OFFCURVE",
"142 238 OFFCURVE",
"142 272 CURVE SMOOTH",
"142 295 OFFCURVE",
"139 318 OFFCURVE",
"139 340 CURVE SMOOTH",
"139 364 OFFCURVE",
"144 388 OFFCURVE",
"140 410 CURVE",
"123 425 OFFCURVE",
"88 418 OFFCURVE",
"63 415 CURVE",
"58 400 OFFCURVE",
"60 383 OFFCURVE",
"60 366 CURVE SMOOTH",
"60 350 OFFCURVE",
"58 333 OFFCURVE",
"58 316 CURVE SMOOTH",
"58 306 OFFCURVE",
"61 294 OFFCURVE",
"61 284 CURVE",
"62 273 OFFCURVE",
"63 262 OFFCURVE",
"63 251 CURVE SMOOTH",
"63 241 OFFCURVE",
"61 231 OFFCURVE",
"61 221 CURVE",
"65 201 LINE"
);
}
);
width = 199;
}
);
unicode = 0069;
},
{
glyphname = j;
layers = (
{
layerId = "7C3BCDA4-8F92-4DF1-91BA-B714BE37B8B5";
paths = (
{
closed = 1;
nodes = (
"155 612 OFFCURVE",
"155 613 OFFCURVE",
"153 613 CURVE",
"153 614 OFFCURVE",
"153 616 OFFCURVE",
"152 616 CURVE",
"145 635 OFFCURVE",
"134 650 OFFCURVE",
"115 657 CURVE SMOOTH",
"107 660 OFFCURVE",
"94 658 OFFCURVE",
"85 660 CURVE",
"77 657 OFFCURVE",
"71 652 OFFCURVE",
"62 649 CURVE",
"59 640 OFFCURVE",
"50 637 OFFCURVE",
"48 627 CURVE",
"39 604 OFFCURVE",
"49 577 OFFCURVE",
"60 564 CURVE",
"66 561 OFFCURVE",
"71 557 OFFCURVE",
"76 553 CURVE",
"96 548 OFFCURVE",
"125 548 OFFCURVE",
"139 558 CURVE",
"146 567 OFFCURVE",
"150 580 OFFCURVE",
"155 591 CURVE",
"155 611 LINE SMOOTH"
);
},
{
closed = 1;
nodes = (
"149 -163 OFFCURVE",
"149 -158 CURVE",
"148 -156 OFFCURVE",
"147 -156 OFFCURVE",
"147 -153 CURVE",
"142 -110 OFFCURVE",
"146 -66 OFFCURVE",
"145 -22 CURVE",
"145 -3 OFFCURVE",
"142 17 OFFCURVE",
"142 36 CURVE SMOOTH",
"142 44 OFFCURVE",
"144 51 OFFCURVE",
"144 58 CURVE SMOOTH",
"144 69 OFFCURVE",
"141 80 OFFCURVE",
"141 91 CURVE SMOOTH",
"141 96 OFFCURVE",
"142 100 OFFCURVE",
"142 105 CURVE SMOOTH",
"142 135 OFFCURVE",
"141 165 OFFCURVE",
"142 197 CURVE SMOOTH",
"142 208 OFFCURVE",
"141 219 OFFCURVE",
"141 230 CURVE",
"140 269 OFFCURVE",
"140 305 OFFCURVE",
"142 342 CURVE",
"140 348 OFFCURVE",
"139 354 OFFCURVE",
"139 362 CURVE SMOOTH",
"139 382 OFFCURVE",
"146 405 OFFCURVE",
"139 421 CURVE",
"131 427 OFFCURVE",
"117 427 OFFCURVE",
"103 427 CURVE SMOOTH",
"89 427 OFFCURVE",
"73 428 OFFCURVE",
"63 427 CURVE",
"53 404 OFFCURVE",
"60 371 OFFCURVE",
"60 340 CURVE SMOOTH",
"60 331 OFFCURVE",
"59 322 OFFCURVE",
"59 313 CURVE SMOOTH",
"59 303 OFFCURVE",
"60 292 OFFCURVE",
"60 282 CURVE SMOOTH",
"60 272 OFFCURVE",
"58 261 OFFCURVE",
"62 252 CURVE",
"59 242 OFFCURVE",
"60 231 OFFCURVE",
"60 220 CURVE",
"61 210 OFFCURVE",
"60 199 OFFCURVE",
"60 189 CURVE SMOOTH",
"61 149 OFFCURVE",
"63 107 OFFCURVE",
"62 68 CURVE",
"61 53 OFFCURVE",
"60 38 OFFCURVE",
"60 23 CURVE SMOOTH",
"60 15 OFFCURVE",
"63 6 OFFCURVE",
"63 -2 CURVE",
"64 -15 OFFCURVE",
"62 -27 OFFCURVE",
"62 -40 CURVE SMOOTH",
"62 -70 OFFCURVE",
"63 -98 OFFCURVE",
"60 -126 CURVE",
"60 -130 OFFCURVE",
"61 -134 OFFCURVE",
"60 -139 CURVE",
"60 -143 OFFCURVE",
"57 -146 OFFCURVE",
"57 -150 CURVE SMOOTH",
"57 -158 OFFCURVE",
"57 -165 OFFCURVE",
"62 -172 CURVE",
"70 -182 OFFCURVE",
"90 -178 OFFCURVE",
"104 -182 CURVE",
"113 -176 OFFCURVE",
"131 -180 OFFCURVE",
"139 -177 CURVE",
"142 -175 OFFCURVE",
"143 -172 OFFCURVE",
"147 -170 CURVE",
"148 -167 OFFCURVE"
);
}
);
width = 195;
}
);
unicode = 006A;
},
{
glyphname = k;
layers = (
{
layerId = "7C3BCDA4-8F92-4DF1-91BA-B714BE37B8B5";
paths = (
{
closed = 1;
nodes = (
"394 42 OFFCURVE",
"384 59 OFFCURVE",
"373 68 CURVE",
"372 68 OFFCURVE",
"369 68 OFFCURVE",
"368 69 CURVE SMOOTH",
"367 70 OFFCURVE",
"367 73 OFFCURVE",
"367 74 CURVE",
"363 78 OFFCURVE",
"359 81 OFFCURVE",
"357 85 CURVE",
"347 92 OFFCURVE",
"344 106 OFFCURVE",
"333 112 CURVE",
"326 122 OFFCURVE",
"318 130 OFFCURVE",
"311 142 CURVE",
"286 167 OFFCURVE",
"264 196 OFFCURVE",
"239 222 CURVE",
"233 234 OFFCURVE",
"221 239 OFFCURVE",
"218 254 CURVE",
"220 266 OFFCURVE",
"234 267 OFFCURVE",
"234 280 CURVE",
"245 278 OFFCURVE",
"246 285 OFFCURVE",
"251 288 CURVE",
"256 293 OFFCURVE",
"262 296 OFFCURVE",
"267 299 CURVE",
"281 317 OFFCURVE",
"299 331 OFFCURVE",
"315 347 CURVE",
"318 351 OFFCURVE",
"322 355 OFFCURVE",
"327 358 CURVE",
"334 359 OFFCURVE",
"334 366 OFFCURVE",
"340 369 CURVE SMOOTH",
"350 374 OFFCURVE",
"356 384 OFFCURVE",
"363 392 CURVE",
"375 399 OFFCURVE",
"392 407 OFFCURVE",
"387 425 CURVE",
"386 432 OFFCURVE",
"374 428 OFFCURVE",
"370 432 CURVE",
"361 433 OFFCURVE",
"358 428 OFFCURVE",
"351 427 CURVE",
"331 428 OFFCURVE",
"315 429 OFFCURVE",
"294 429 CURVE",
"277 421 OFFCURVE",
"269 404 OFFCURVE",
"255 394 CURVE",
"252 385 OFFCURVE",
"243 382 OFFCURVE",
"237 375 CURVE",
"230 370 OFFCURVE",
"227 361 OFFCURVE",
"218 356 CURVE",
"182 318 LINE SMOOTH",
"170 306 OFFCURVE",
"161 287 OFFCURVE",
"138 287 CURVE",
"130 299 OFFCURVE",
"136 315 OFFCURVE",
"136 329 CURVE SMOOTH",
"136 337 OFFCURVE",
"135 345 OFFCURVE",
"135 353 CURVE SMOOTH",
"135 375 OFFCURVE",
"136 397 OFFCURVE",
"136 416 CURVE",
"137 429 OFFCURVE",
"135 442 OFFCURVE",
"135 455 CURVE SMOOTH",
"135 474 LINE SMOOTH",
"135 504 OFFCURVE",
"133 530 OFFCURVE",
"136 553 CURVE",
"133 568 OFFCURVE",
"134 586 OFFCURVE",
"133 604 CURVE SMOOTH",
"132 642 OFFCURVE",
"133 680 OFFCURVE",
"133 717 CURVE SMOOTH",
"133 736 OFFCURVE",
"137 755 OFFCURVE",
"125 767 CURVE",
"114 771 OFFCURVE",
"99 768 OFFCURVE",
"89 766 CURVE",
"79 767 OFFCURVE",
"68 769 OFFCURVE",
"59 766 CURVE",
"48 757 OFFCURVE",
"50 729 OFFCURVE",
"54 714 CURVE",
"53 709 OFFCURVE",
"55 704 OFFCURVE",
"54 700 CURVE",
"54 693 OFFCURVE",
"53 688 OFFCURVE",
"53 682 CURVE SMOOTH",
"53 677 OFFCURVE",
"56 671 OFFCURVE",
"56 665 CURVE SMOOTH",
"56 662 OFFCURVE",
"54 662 OFFCURVE",
"54 659 CURVE",
"55 653 OFFCURVE",
"56 645 OFFCURVE",
"53 640 CURVE",
"57 616 OFFCURVE",
"54 589 OFFCURVE",
"54 567 CURVE SMOOTH",
"55 516 OFFCURVE",
"57 456 OFFCURVE",
"56 405 CURVE SMOOTH",
"56 397 OFFCURVE",
"54 389 OFFCURVE",
"54 381 CURVE",
"58 347 LINE",
"59 311 OFFCURVE",
"56 271 OFFCURVE",
"56 233 CURVE SMOOTH",
"56 222 OFFCURVE",
"59 211 OFFCURVE",
"59 200 CURVE SMOOTH",
"59 175 OFFCURVE",
"55 150 OFFCURVE",
"59 126 CURVE",
"52 106 OFFCURVE",
"59 84 OFFCURVE",
"59 63 CURVE SMOOTH",
"59 47 OFFCURVE",
"56 33 OFFCURVE",
"61 19 CURVE",
"70 10 OFFCURVE",
"90 13 OFFCURVE",
"106 12 CURVE",
"119 12 OFFCURVE",
"131 8 OFFCURVE",
"138 16 CURVE",
"142 25 OFFCURVE",
"137 36 OFFCURVE",
"136 45 CURVE SMOOTH",
"133 78 OFFCURVE",
"137 113 OFFCURVE",
"136 143 CURVE",
"136 148 OFFCURVE",
"135 152 OFFCURVE",
"135 156 CURVE SMOOTH",
"135 164 OFFCURVE",
"140 173 OFFCURVE",
"138 181 CURVE",
"142 185 OFFCURVE",
"147 186 OFFCURVE",
"149 192 CURVE",
"153 198 OFFCURVE",
"174 185 OFFCURVE",
"177 178 CURVE",
"193 168 OFFCURVE",
"201 150 OFFCURVE",
"214 137 CURVE SMOOTH",
"227 124 OFFCURVE",
"235 107 OFFCURVE",
"248 94 CURVE",
"255 88 OFFCURVE",
"258 80 OFFCURVE",
"264 72 CURVE",
"270 65 OFFCURVE",
"278 60 OFFCURVE",
"281 50 CURVE",
"293 36 OFFCURVE",
"304 21 OFFCURVE",
"319 11 CURVE",
"330 11 OFFCURVE",
"348 10 OFFCURVE",
"359 11 CURVE",
"370 11 LINE SMOOTH",
"388 11 OFFCURVE",
"411 9 OFFCURVE",
"409 27 CURVE",
"406 31 LINE"
);
}
);
width = 447;
}
);
unicode = 006B;
},
{
glyphname = l;
layers = (
{
layerId = "7C3BCDA4-8F92-4DF1-91BA-B714BE37B8B5";
paths = (
{
closed = 1;
nodes = (
"139 48 OFFCURVE",
"140 64 CURVE",
"137 70 OFFCURVE",
"139 79 OFFCURVE",
"135 83 CURVE",
"138 136 OFFCURVE",
"138 193 OFFCURVE",
"137 241 CURVE",
"137 259 OFFCURVE",
"136 277 OFFCURVE",
"139 295 CURVE",
"132 309 OFFCURVE",
"137 326 OFFCURVE",
"137 342 CURVE SMOOTH",
"137 351 OFFCURVE",
"136 360 OFFCURVE",
"135 369 CURVE",
"135 387 OFFCURVE",
"137 407 OFFCURVE",
"135 424 CURVE",
"135 430 OFFCURVE",
"138 434 OFFCURVE",
"139 440 CURVE",
"135 495 OFFCURVE",
"135 557 OFFCURVE",
"135 618 CURVE SMOOTH",
"135 626 OFFCURVE",
"137 636 OFFCURVE",
"137 644 CURVE SMOOTH",
"137 656 OFFCURVE",
"134 668 OFFCURVE",
"134 679 CURVE SMOOTH",
"134 682 OFFCURVE",
"136 685 OFFCURVE",
"135 687 CURVE",
"135 696 OFFCURVE",
"134 705 OFFCURVE",
"132 714 CURVE",
"135 719 OFFCURVE",
"136 728 OFFCURVE",
"135 736 CURVE",
"135 744 OFFCURVE",
"134 751 OFFCURVE",
"131 756 CURVE",
"123 763 OFFCURVE",
"107 762 OFFCURVE",
"93 763 CURVE",
"78 763 OFFCURVE",
"63 765 OFFCURVE",
"55 758 CURVE",
"47 749 OFFCURVE",
"52 727 OFFCURVE",
"49 714 CURVE",
"56 686 OFFCURVE",
"49 652 OFFCURVE",
"55 626 CURVE",
"53 571 OFFCURVE",
"53 517 OFFCURVE",
"55 463 CURVE SMOOTH",
"56 425 OFFCURVE",
"52 389 OFFCURVE",
"57 358 CURVE",
"53 331 OFFCURVE",
"56 304 OFFCURVE",
"57 276 CURVE",
"57 264 OFFCURVE",
"58 260 OFFCURVE",
"55 250 CURVE",
"58 245 OFFCURVE",
"59 237 OFFCURVE",
"58 228 CURVE",
"54 202 OFFCURVE",
"60 177 OFFCURVE",
"60 153 CURVE SMOOTH",
"60 136 OFFCURVE",
"58 119 OFFCURVE",
"58 102 CURVE SMOOTH",
"58 87 OFFCURVE",
"57 72 OFFCURVE",
"57 58 CURVE",
"56 42 OFFCURVE",
"54 25 OFFCURVE",
"61 11 CURVE",
"70 5 OFFCURVE",
"85 9 OFFCURVE",
"99 9 CURVE",
"113 10 OFFCURVE",
"128 8 OFFCURVE",
"137 14 CURVE",
"143 25 OFFCURVE"
);
}
);
width = 203;
}
);
unicode = 006C;
},
{
glyphname = m;
layers = (
{
layerId = "7C3BCDA4-8F92-4DF1-91BA-B714BE37B8B5";
paths = (
{
closed = 1;
nodes = (
"174 424 OFFCURVE",
"118 426 OFFCURVE",
"60 424 CURVE",
"49 409 OFFCURVE",
"53 388 OFFCURVE",
"53 367 CURVE",
"54 350 OFFCURVE",
"52 333 OFFCURVE",
"52 315 CURVE SMOOTH",
"52 287 LINE SMOOTH",
"52 277 OFFCURVE",
"50 267 OFFCURVE",
"50 258 CURVE",
"51 250 OFFCURVE",
"53 241 OFFCURVE",
"53 233 CURVE",
"54 222 OFFCURVE",
"51 211 OFFCURVE",
"55 202 CURVE",
"50 181 OFFCURVE",
"53 156 OFFCURVE",
"53 132 CURVE",
"54 106 OFFCURVE",
"52 80 OFFCURVE",
"55 55 CURVE",
"52 44 OFFCURVE",
"48 26 OFFCURVE",
"52 12 CURVE",
"57 8 OFFCURVE",
"62 3 OFFCURVE",
"71 3 CURVE",
"90 9 OFFCURVE",
"120 -2 OFFCURVE",
"134 8 CURVE",
"141 24 OFFCURVE",
"135 43 OFFCURVE",
"134 61 CURVE",
"134 150 LINE",
"133 179 OFFCURVE",
"131 208 OFFCURVE",
"131 236 CURVE SMOOTH",
"131 260 OFFCURVE",
"132 286 OFFCURVE",
"132 307 CURVE",
"130 321 OFFCURVE",
"126 342 OFFCURVE",
"135 351 CURVE",
"143 354 OFFCURVE",
"148 350 OFFCURVE",
"158 351 CURVE",
"192 359 OFFCURVE",
"234 348 OFFCURVE",
"266 358 CURVE",
"274 352 OFFCURVE",
"284 358 OFFCURVE",
"293 354 CURVE",
"300 342 OFFCURVE",
"297 328 OFFCURVE",
"296 313 CURVE",
"296 289 OFFCURVE",
"299 259 OFFCURVE",
"299 236 CURVE SMOOTH",
"299 227 OFFCURVE",
"298 218 OFFCURVE",
"298 209 CURVE SMOOTH",
"298 193 OFFCURVE",
"302 178 OFFCURVE",
"296 165 CURVE",
"304 143 OFFCURVE",
"298 118 OFFCURVE",
"298 94 CURVE SMOOTH",
"298 78 OFFCURVE",
"301 62 OFFCURVE",
"299 45 CURVE",
"296 33 OFFCURVE",
"294 16 OFFCURVE",
"303 8 CURVE",
"314 1 OFFCURVE",
"329 9 OFFCURVE",
"342 9 CURVE",
"354 7 OFFCURVE",
"372 3 OFFCURVE",
"383 9 CURVE",
"388 22 OFFCURVE",
"383 35 OFFCURVE",
"381 49 CURVE",
"379 82 OFFCURVE",
"382 119 OFFCURVE",
"377 153 CURVE",
"380 179 OFFCURVE",
"378 213 OFFCURVE",
"375 238 CURVE",
"377 243 OFFCURVE",
"378 248 OFFCURVE",
"378 254 CURVE",
"379 259 OFFCURVE",
"380 267 OFFCURVE",
"380 272 CURVE SMOOTH",
"380 280 OFFCURVE",
"377 287 OFFCURVE",
"377 295 CURVE SMOOTH",
"377 301 OFFCURVE",
"378 308 OFFCURVE",
"378 315 CURVE SMOOTH",
"378 328 OFFCURVE",
"372 343 OFFCURVE",
"381 353 CURVE",
"390 359 OFFCURVE",
"408 354 OFFCURVE",
"419 353 CURVE",
"426 356 OFFCURVE",
"438 354 OFFCURVE",
"446 356 CURVE",
"463 353 LINE SMOOTH",
"469 352 OFFCURVE",
"474 351 OFFCURVE",
"479 351 CURVE",
"487 352 OFFCURVE",
"493 356 OFFCURVE",
"501 358 CURVE",
"518 356 OFFCURVE",
"530 360 OFFCURVE",
"542 354 CURVE",
"547 335 OFFCURVE",
"543 315 OFFCURVE",
"544 295 CURVE",
"544 285 OFFCURVE",
"545 275 OFFCURVE",
"545 265 CURVE SMOOTH",
"545 254 OFFCURVE",
"547 243 OFFCURVE",
"547 233 CURVE SMOOTH",
"547 228 OFFCURVE",
"545 223 OFFCURVE",
"545 217 CURVE SMOOTH",
"545 204 OFFCURVE",
"547 191 OFFCURVE",
"547 178 CURVE SMOOTH",
"547 163 OFFCURVE",
"545 150 OFFCURVE",
"545 135 CURVE SMOOTH",
"545 121 OFFCURVE",
"547 107 OFFCURVE",
"547 93 CURVE SMOOTH",
"547 68 OFFCURVE",
"545 36 OFFCURVE",
"545 14 CURVE",
"554 6 OFFCURVE",
"570 10 OFFCURVE",
"585 11 CURVE",
"599 11 OFFCURVE",
"612 9 OFFCURVE",
"623 11 CURVE",
"630 20 OFFCURVE",
"627 38 OFFCURVE",
"627 53 CURVE",
"623 63 OFFCURVE",
"627 71 OFFCURVE",
"623 80 CURVE",
"628 91 OFFCURVE",
"624 103 OFFCURVE",
"624 115 CURVE SMOOTH",
"624 117 OFFCURVE",
"626 119 OFFCURVE",
"626 123 CURVE",
"625 148 OFFCURVE",
"626 179 OFFCURVE",
"624 206 CURVE",
"624 216 OFFCURVE",
"621 224 OFFCURVE",
"621 233 CURVE SMOOTH",
"621 274 OFFCURVE",
"626 315 OFFCURVE",
"619 353 CURVE",
"624 372 OFFCURVE",
"627 405 OFFCURVE",
"621 425 CURVE",
"609 432 OFFCURVE",
"595 428 OFFCURVE",
"582 427 CURVE",
"555 426 OFFCURVE",
"527 429 OFFCURVE",
"501 427 CURVE",
"494 426 OFFCURVE",
"487 424 OFFCURVE",
"479 424 CURVE",
"472 423 OFFCURVE",
"464 425 OFFCURVE",
"457 425 CURVE SMOOTH",
"438 425 OFFCURVE",
"422 422 OFFCURVE",
"407 427 CURVE",
"390 424 OFFCURVE",
"367 425 OFFCURVE",
"350 427 CURVE",
"332 423 OFFCURVE",
"315 428 OFFCURVE",
"298 422 CURVE",
"285 427 OFFCURVE",
"272 424 OFFCURVE",
"258 424 CURVE SMOOTH",
"236 424 LINE SMOOTH"
);
}
);
width = 686;
}
);
unicode = 006D;
},
{
glyphname = n;
layers = (
{
layerId = "7C3BCDA4-8F92-4DF1-91BA-B714BE37B8B5";
paths = (
{
closed = 1;
nodes = (
"139 103 OFFCURVE",
"143 107 OFFCURVE",
"142 115 CURVE SMOOTH",
"140 128 OFFCURVE",
"138 142 OFFCURVE",
"139 157 CURVE",
"139 165 OFFCURVE",
"142 173 OFFCURVE",
"142 181 CURVE",
"143 197 OFFCURVE",
"139 213 OFFCURVE",
"139 230 CURVE SMOOTH",
"139 244 OFFCURVE",
"144 257 OFFCURVE",
"137 268 CURVE",
"141 291 OFFCURVE",
"140 319 OFFCURVE",
"142 340 CURVE",
"144 346 OFFCURVE",
"151 346 OFFCURVE",
"156 348 CURVE",
"165 348 OFFCURVE",
"161 359 OFFCURVE",
"169 359 CURVE",
"177 357 OFFCURVE",
"182 350 OFFCURVE",
"191 348 CURVE",
"202 346 OFFCURVE",
"220 349 OFFCURVE",
"229 348 CURVE",
"237 348 LINE SMOOTH",
"257 348 OFFCURVE",
"276 346 OFFCURVE",
"294 347 CURVE",
"308 347 OFFCURVE",
"322 352 OFFCURVE",
"333 343 CURVE",
"337 323 OFFCURVE",
"334 303 OFFCURVE",
"335 284 CURVE",
"335 268 OFFCURVE",
"338 253 OFFCURVE",
"338 238 CURVE SMOOTH",
"338 224 OFFCURVE",
"334 211 OFFCURVE",
"333 197 CURVE",
"333 193 OFFCURVE",
"334 189 OFFCURVE",
"335 184 CURVE",
"335 180 OFFCURVE",
"333 176 OFFCURVE",
"333 172 CURVE SMOOTH",
"333 165 OFFCURVE",
"336 159 OFFCURVE",
"336 153 CURVE SMOOTH",
"336 148 OFFCURVE",
"334 143 OFFCURVE",
"335 138 CURVE",
"335 120 OFFCURVE",
"336 102 OFFCURVE",
"336 85 CURVE SMOOTH",
"336 78 OFFCURVE",
"335 71 OFFCURVE",
"336 64 CURVE",
"333 48 OFFCURVE",
"329 31 OFFCURVE",
"335 16 CURVE",
"340 15 OFFCURVE",
"342 9 OFFCURVE",
"350 11 CURVE",
"372 15 OFFCURVE",
"391 9 OFFCURVE",
"409 11 CURVE",
"418 18 OFFCURVE",
"416 27 OFFCURVE",
"415 39 CURVE SMOOTH",
"414 59 OFFCURVE",
"410 84 OFFCURVE",
"413 102 CURVE",
"413 107 OFFCURVE",
"410 111 OFFCURVE",
"410 116 CURVE",
"411 143 OFFCURVE",
"413 169 OFFCURVE",
"413 195 CURVE SMOOTH",
"413 217 OFFCURVE",
"410 238 OFFCURVE",
"410 260 CURVE SMOOTH",
"410 265 OFFCURVE",
"412 272 OFFCURVE",
"412 277 CURVE SMOOTH",
"412 284 OFFCURVE",
"410 290 OFFCURVE",
"410 296 CURVE",
"411 302 OFFCURVE",
"413 306 OFFCURVE",
"413 312 CURVE",
"414 327 OFFCURVE",
"411 341 OFFCURVE",
"412 356 CURVE",
"412 370 OFFCURVE",
"414 384 OFFCURVE",
"413 399 CURVE",
"410 407 OFFCURVE",
"409 417 OFFCURVE",
"402 422 CURVE",
"387 425 OFFCURVE",
"368 421 OFFCURVE",
"352 425 CURVE",
"332 420 OFFCURVE",
"301 428 OFFCURVE",
"286 422 CURVE",
"277 428 OFFCURVE",
"268 424 OFFCURVE",
"260 424 CURVE SMOOTH",
"257 424 OFFCURVE",
"254 425 OFFCURVE",
"251 425 CURVE SMOOTH",
"230 425 OFFCURVE",
"209 422 OFFCURVE",
"188 422 CURVE SMOOTH",
"178 422 OFFCURVE",
"168 425 OFFCURVE",
"158 425 CURVE",
"144 426 OFFCURVE",
"130 423 OFFCURVE",
"115 424 CURVE SMOOTH",
"99 425 OFFCURVE",
"81 428 OFFCURVE",
"68 419 CURVE",
"63 413 OFFCURVE",
"61 403 OFFCURVE",
"59 394 CURVE",
"60 380 OFFCURVE",
"62 360 OFFCURVE",
"59 347 CURVE",
"64 339 OFFCURVE",
"60 329 OFFCURVE",
"60 320 CURVE",
"61 303 OFFCURVE",
"60 286 OFFCURVE",
"60 271 CURVE SMOOTH",
"60 255 OFFCURVE",
"63 238 OFFCURVE",
"63 222 CURVE SMOOTH",
"63 201 OFFCURVE",
"59 180 OFFCURVE",
"60 161 CURVE",
"61 155 OFFCURVE",
"60 152 OFFCURVE",
"60 150 CURVE SMOOTH",
"60 141 OFFCURVE",
"60 133 OFFCURVE",
"62 124 CURVE",
"56 111 OFFCURVE",
"60 96 OFFCURVE",
"60 82 CURVE",
"61 65 OFFCURVE",
"58 47 OFFCURVE",
"62 31 CURVE",
"72 24 OFFCURVE",
"119 18 OFFCURVE",
"127 20 CURVE SMOOTH",
"134 22 OFFCURVE",
"140 55 OFFCURVE",
"142 77 CURVE",
"139 96 LINE"
);
}
);
width = 471;
}
);
unicode = 006E;
},
{
glyphname = o;
layers = (
{
layerId = "7C3BCDA4-8F92-4DF1-91BA-B714BE37B8B5";
paths = (
{
closed = 1;
nodes = (
"220 434 OFFCURVE",
"195 431 OFFCURVE",
"176 422 CURVE",
"164 421 OFFCURVE",
"154 417 OFFCURVE",
"143 414 CURVE",
"136 410 OFFCURVE",
"133 401 OFFCURVE",
"127 395 CURVE",
"121 390 OFFCURVE",
"112 387 OFFCURVE",
"108 380 CURVE",
"105 371 OFFCURVE",
"98 367 OFFCURVE",
"91 362 CURVE",
"87 355 OFFCURVE",
"81 349 OFFCURVE",
"75 343 CURVE",
"74 333 OFFCURVE",
"67 329 OFFCURVE",
"64 320 CURVE",
"60 306 OFFCURVE",
"54 295 OFFCURVE",
"52 279 CURVE",
"48 265 OFFCURVE",
"47 247 OFFCURVE",
"44 233 CURVE",
"47 220 OFFCURVE",
"42 208 OFFCURVE",
"44 192 CURVE SMOOTH",
"45 184 OFFCURVE",
"48 179 OFFCURVE",
"47 168 CURVE",
"58 140 LINE",
"59 137 OFFCURVE",
"60 137 OFFCURVE",
"61 135 CURVE SMOOTH",
"72 113 LINE",
"78 103 OFFCURVE",
"87 95 OFFCURVE",
"91 83 CURVE",
"106 71 OFFCURVE",
"121 57 OFFCURVE",
"137 47 CURVE SMOOTH",
"142 44 OFFCURVE",
"149 41 OFFCURVE",
"156 38 CURVE",
"170 31 OFFCURVE",
"189 22 OFFCURVE",
"204 19 CURVE",
"206 18 OFFCURVE",
"209 19 OFFCURVE",
"211 19 CURVE",
"215 16 LINE",
"246 8 OFFCURVE",
"281 11 OFFCURVE",
"319 12 CURVE",
"329 16 OFFCURVE",
"337 22 OFFCURVE",
"349 23 CURVE",
"352 28 OFFCURVE",
"358 29 OFFCURVE",
"364 31 CURVE",
"367 36 OFFCURVE",
"372 39 OFFCURVE",
"378 41 CURVE",
"387 47 OFFCURVE",
"397 53 OFFCURVE",
"408 58 CURVE",
"413 64 OFFCURVE",
"420 70 OFFCURVE",
"427 75 CURVE",
"432 82 OFFCURVE",
"439 88 OFFCURVE",
"446 93 CURVE",
"451 104 OFFCURVE",
"458 115 OFFCURVE",
"465 126 CURVE",
"480 162 LINE",
"483 172 OFFCURVE",
"482 187 OFFCURVE",
"485 197 CURVE",
"487 209 OFFCURVE",
"489 220 OFFCURVE",
"488 235 CURVE",
"488 236 OFFCURVE",
"488 237 OFFCURVE",
"487 236 CURVE",
"486 256 OFFCURVE",
"479 270 OFFCURVE",
"479 290 CURVE",
"474 297 OFFCURVE",
"471 303 OFFCURVE",
"468 310 CURVE",
"466 314 OFFCURVE",
"463 316 OFFCURVE",
"461 320 CURVE",
"460 324 OFFCURVE",
"461 328 OFFCURVE",
"458 332 CURVE",
"452 339 OFFCURVE",
"448 347 OFFCURVE",
"442 353 CURVE",
"438 361 OFFCURVE",
"431 367 OFFCURVE",
"427 375 CURVE",
"423 378 OFFCURVE",
"419 379 OFFCURVE",
"416 381 CURVE",
"410 386 OFFCURVE",
"408 390 OFFCURVE",
"403 394 CURVE",
"396 399 OFFCURVE",
"390 406 OFFCURVE",
"383 410 CURVE",
"375 414 OFFCURVE",
"369 415 OFFCURVE",
"364 421 CURVE",
"356 420 OFFCURVE",
"353 424 OFFCURVE",
"346 425 CURVE",
"343 429 OFFCURVE",
"332 426 OFFCURVE",
"331 432 CURVE",
"318 434 OFFCURVE",
"306 436 OFFCURVE",
"294 440 CURVE",
"242 440 LINE"
);
},
{
closed = 1;
nodes = (
"269 360 OFFCURVE",
"294 359 OFFCURVE",
"315 350 CURVE",
"324 345 OFFCURVE",
"333 338 OFFCURVE",
"342 334 CURVE",
"350 328 OFFCURVE",
"358 322 OFFCURVE",
"367 317 CURVE",
"369 311 OFFCURVE",
"373 307 OFFCURVE",
"378 304 CURVE",
"387 286 OFFCURVE",
"396 269 OFFCURVE",
"403 249 CURVE",
"405 249 OFFCURVE",
"404 247 OFFCURVE",
"405 246 CURVE",
"406 246 OFFCURVE",
"406 245 OFFCURVE",
"406 244 CURVE",
"404 228 OFFCURVE",
"406 208 OFFCURVE",
"403 192 CURVE",
"394 159 OFFCURVE",
"372 140 OFFCURVE",
"354 116 CURVE",
"343 110 OFFCURVE",
"331 104 OFFCURVE",
"323 96 CURVE",
"315 96 OFFCURVE",
"310 94 OFFCURVE",
"305 91 CURVE",
"292 91 OFFCURVE",
"278 92 OFFCURVE",
"269 88 CURVE",
"252 91 OFFCURVE",
"236 91 OFFCURVE",
"217 94 CURVE",
"217 96 OFFCURVE",
"216 96 OFFCURVE",
"215 96 CURVE",
"208 99 OFFCURVE",
"199 102 OFFCURVE",
"193 107 CURVE",
"189 113 OFFCURVE",
"179 114 OFFCURVE",
"174 121 CURVE",
"164 132 OFFCURVE",
"150 139 OFFCURVE",
"141 153 CURVE",
"137 160 OFFCURVE",
"135 169 OFFCURVE",
"132 178 CURVE",
"129 186 OFFCURVE",
"126 194 OFFCURVE",
"122 202 CURVE",
"119 232 OFFCURVE",
"127 253 OFFCURVE",
"132 279 CURVE",
"138 288 OFFCURVE",
"145 296 OFFCURVE",
"149 307 CURVE",
"167 321 OFFCURVE",
"184 337 OFFCURVE",
"203 350 CURVE",
"239 359 LINE"
);
}
);
width = 523;
}
);
unicode = 006F;
},
{
glyphname = p;
layers = (
{
layerId = "7C3BCDA4-8F92-4DF1-91BA-B714BE37B8B5";
paths = (
{
closed = 1;
nodes = (
"431 348 OFFCURVE",
"431 352 OFFCURVE",
"428 354 CURVE",
"423 360 OFFCURVE",
"417 364 OFFCURVE",
"412 370 CURVE",
"404 386 LINE",
"394 392 OFFCURVE",
"387 401 OFFCURVE",
"379 410 CURVE",
"365 412 OFFCURVE",
"356 420 OFFCURVE",
"345 425 CURVE",
"333 426 OFFCURVE",
"323 431 OFFCURVE",
"311 432 CURVE",
"305 432 OFFCURVE",
"299 430 OFFCURVE",
"292 430 CURVE SMOOTH",
"272 430 OFFCURVE",
"253 430 OFFCURVE",
"234 433 CURVE",
"228 432 OFFCURVE",
"224 429 OFFCURVE",
"217 430 CURVE",
"209 425 OFFCURVE",
"202 420 OFFCURVE",
"190 419 CURVE",
"180 410 OFFCURVE",
"168 403 OFFCURVE",
"155 397 CURVE",
"153 392 OFFCURVE",
"147 390 OFFCURVE",
"144 384 CURVE",
"139 382 OFFCURVE",
"140 372 OFFCURVE",
"130 373 CURVE",
"121 385 OFFCURVE",
"133 410 OFFCURVE",
"125 421 CURVE",
"122 423 OFFCURVE",
"118 425 OFFCURVE",
"111 424 CURVE",
"103 422 OFFCURVE",
"102 427 OFFCURVE",
"95 427 CURVE",
"84 424 OFFCURVE",
"71 428 OFFCURVE",
"61 425 CURVE",
"59 419 OFFCURVE",
"58 411 OFFCURVE",
"58 405 CURVE",
"55 384 OFFCURVE",
"56 362 OFFCURVE",
"53 339 CURVE SMOOTH",
"51 325 OFFCURVE",
"48 311 OFFCURVE",
"48 298 CURVE SMOOTH",
"48 282 OFFCURVE",
"51 264 OFFCURVE",
"51 252 CURVE SMOOTH",
"51 247 OFFCURVE",
"49 241 OFFCURVE",
"50 236 CURVE",
"50 232 OFFCURVE",
"53 227 OFFCURVE",
"53 222 CURVE",
"48 184 OFFCURVE",
"51 142 OFFCURVE",
"50 96 CURVE",
"51 88 OFFCURVE",
"54 84 OFFCURVE",
"54 75 CURVE SMOOTH",
"54 68 OFFCURVE",
"52 62 OFFCURVE",
"50 57 CURVE",
"52 30 OFFCURVE",
"50 -4 OFFCURVE",
"51 -30 CURVE SMOOTH",
"52 -49 OFFCURVE",
"49 -69 OFFCURVE",
"51 -85 CURVE",
"52 -91 OFFCURVE",
"55 -96 OFFCURVE",
"54 -101 CURVE",
"49 -120 OFFCURVE",
"49 -147 OFFCURVE",
"51 -166 CURVE",
"61 -179 OFFCURVE",
"88 -173 OFFCURVE",
"108 -172 CURVE",
"116 -166 OFFCURVE",
"126 -162 OFFCURVE",
"132 -155 CURVE",
"126 -129 OFFCURVE",
"130 -100 OFFCURVE",
"130 -73 CURVE SMOOTH",
"130 -30 OFFCURVE",
"125 13 OFFCURVE",
"129 53 CURVE",
"129 61 OFFCURVE",
"124 68 OFFCURVE",
"130 72 CURVE",
"140 72 OFFCURVE",
"141 63 OFFCURVE",
"146 58 CURVE",
"151 52 OFFCURVE",
"156 47 OFFCURVE",
"160 41 CURVE",
"179 29 OFFCURVE",
"196 16 OFFCURVE",
"218 9 CURVE",
"232 9 OFFCURVE",
"244 2 OFFCURVE",
"258 1 CURVE SMOOTH",
"275 0 OFFCURVE",
"293 9 OFFCURVE",
"310 1 CURVE",
"331 4 OFFCURVE",
"348 12 OFFCURVE",
"367 17 CURVE",
"374 22 OFFCURVE",
"380 29 OFFCURVE",
"390 31 CURVE",
"404 46 OFFCURVE",
"418 60 OFFCURVE",
"433 74 CURVE",
"438 86 OFFCURVE",
"445 96 OFFCURVE",
"453 105 CURVE",
"456 118 OFFCURVE",
"461 128 OFFCURVE",
"466 138 CURVE",
"465 146 OFFCURVE",
"468 153 OFFCURVE",
"469 161 CURVE SMOOTH",
"471 176 OFFCURVE",
"468 191 OFFCURVE",
"472 205 CURVE",
"470 219 OFFCURVE",
"469 235 OFFCURVE",
"469 252 CURVE",
"465 266 OFFCURVE",
"460 280 OFFCURVE",
"460 298 CURVE",
"452 310 OFFCURVE",
"447 324 OFFCURVE",
"442 339 CURVE",
"440 340 OFFCURVE",
"438 343 OFFCURVE",
"438 343 CURVE",
"434 345 LINE"
);
},
{
closed = 1;
nodes = (
"386 258 OFFCURVE",
"387 241 CURVE",
"388 241 OFFCURVE",
"389 240 OFFCURVE",
"389 239 CURVE",
"387 222 OFFCURVE",
"389 205 OFFCURVE",
"387 191 CURVE",
"385 180 OFFCURVE",
"379 172 OFFCURVE",
"379 162 CURVE",
"371 149 OFFCURVE",
"363 134 OFFCURVE",
"356 120 CURVE",
"349 114 OFFCURVE",
"343 109 OFFCURVE",
"338 102 CURVE",
"324 96 OFFCURVE",
"313 87 OFFCURVE",
"299 80 CURVE",
"276 84 OFFCURVE",
"256 73 OFFCURVE",
"234 75 CURVE",
"229 76 OFFCURVE",
"224 78 OFFCURVE",
"218 80 CURVE",
"205 85 OFFCURVE",
"192 95 OFFCURVE",
"177 101 CURVE",
"173 107 OFFCURVE",
"168 111 OFFCURVE",
"163 116 CURVE",
"156 124 OFFCURVE",
"149 131 OFFCURVE",
"143 142 CURVE",
"137 152 OFFCURVE",
"134 164 OFFCURVE",
"129 176 CURVE",
"124 205 OFFCURVE",
"124 232 OFFCURVE",
"127 263 CURVE",
"131 273 OFFCURVE",
"136 281 OFFCURVE",
"138 293 CURVE",
"148 306 OFFCURVE",
"160 317 OFFCURVE",
"170 331 CURVE",
"175 333 OFFCURVE",
"181 335 OFFCURVE",
"184 340 CURVE",
"196 346 OFFCURVE",
"211 350 OFFCURVE",
"222 358 CURVE",
"239 359 OFFCURVE",
"257 363 OFFCURVE",
"275 359 CURVE SMOOTH",
"301 353 OFFCURVE",
"321 340 OFFCURVE",
"343 329 CURVE",
"354 314 OFFCURVE",
"368 303 OFFCURVE",
"378 287 CURVE",
"380 270 OFFCURVE"
);
}
);
width = 511;
}
);
unicode = 0070;
},
{
glyphname = q;
layers = (
{
layerId = "7C3BCDA4-8F92-4DF1-91BA-B714BE37B8B5";
paths = (
{
closed = 1;
nodes = (
"140 413 OFFCURVE",
"138 414 OFFCURVE",
"137 413 CURVE SMOOTH",
"136 412 OFFCURVE",
"135 410 OFFCURVE",
"134 410 CURVE",
"132 409 OFFCURVE",
"130 409 OFFCURVE",
"129 408 CURVE",
"124 404 OFFCURVE",
"121 398 OFFCURVE",
"116 395 CURVE",
"106 391 OFFCURVE",
"98 384 OFFCURVE",
"89 378 CURVE",
"85 374 OFFCURVE",
"86 365 OFFCURVE",
"80 362 CURVE",
"76 358 OFFCURVE",
"72 353 OFFCURVE",
"69 348 CURVE",
"68 343 OFFCURVE",
"63 340 OFFCURVE",
"61 337 CURVE",
"57 330 OFFCURVE",
"55 323 OFFCURVE",
"52 315 CURVE",
"48 300 OFFCURVE",
"46 285 OFFCURVE",
"39 274 CURVE",
"36 239 OFFCURVE",
"38 206 OFFCURVE",
"37 175 CURVE",
"41 161 OFFCURVE",
"42 145 OFFCURVE",
"47 132 CURVE",
"53 124 OFFCURVE",
"55 114 OFFCURVE",
"59 105 CURVE",
"61 102 OFFCURVE",
"66 101 OFFCURVE",
"64 96 CURVE",
"72 86 OFFCURVE",
"78 75 OFFCURVE",
"88 68 CURVE",
"95 56 OFFCURVE",
"105 49 OFFCURVE",
"113 39 CURVE",
"125 32 OFFCURVE",
"136 24 OFFCURVE",
"146 16 CURVE",
"189 -3 LINE",
"202 -1 OFFCURVE",
"213 -5 OFFCURVE",
"223 -8 CURVE",
"231 -5 OFFCURVE",
"238 -4 OFFCURVE",
"247 -7 CURVE",
"257 -3 OFFCURVE",
"266 -1 OFFCURVE",
"275 1 CURVE",
"285 4 OFFCURVE",
"294 8 OFFCURVE",
"304 9 CURVE",
"308 16 OFFCURVE",
"318 17 OFFCURVE",
"323 23 CURVE",
"332 26 OFFCURVE",
"336 34 OFFCURVE",
"345 36 CURVE",
"349 42 OFFCURVE",
"355 46 OFFCURVE",
"359 52 CURVE SMOOTH",
"361 55 OFFCURVE",
"364 58 OFFCURVE",
"367 60 CURVE",
"369 62 OFFCURVE",
"371 68 OFFCURVE",
"375 64 CURVE",
"378 46 OFFCURVE",
"382 19 OFFCURVE",
"375 3 CURVE",
"381 -9 OFFCURVE",
"378 -35 OFFCURVE",
"376 -49 CURVE",
"376 -56 OFFCURVE",
"381 -58 OFFCURVE",
"379 -66 CURVE",
"381 -75 OFFCURVE",
"375 -76 OFFCURVE",
"376 -84 CURVE SMOOTH",
"377 -92 OFFCURVE",
"382 -95 OFFCURVE",
"383 -103 CURVE",
"381 -108 OFFCURVE",
"378 -112 OFFCURVE",
"378 -118 CURVE",
"380 -135 OFFCURVE",
"373 -147 OFFCURVE",
"376 -159 CURVE",
"382 -170 OFFCURVE",
"395 -174 OFFCURVE",
"413 -172 CURVE",
"429 -173 OFFCURVE",
"441 -174 OFFCURVE",
"455 -170 CURVE",
"462 -157 OFFCURVE",
"459 -143 OFFCURVE",
"458 -128 CURVE SMOOTH",
"456 -81 OFFCURVE",
"458 -36 OFFCURVE",
"457 12 CURVE",
"458 16 OFFCURVE",
"459 20 OFFCURVE",
"458 25 CURVE",
"461 26 OFFCURVE",
"458 27 OFFCURVE",
"458 30 CURVE SMOOTH",
"458 34 OFFCURVE",
"455 36 OFFCURVE",
"455 41 CURVE",
"457 55 OFFCURVE",
"453 68 OFFCURVE",
"454 82 CURVE",
"454 95 OFFCURVE",
"458 108 OFFCURVE",
"458 121 CURVE SMOOTH",
"458 126 OFFCURVE",
"457 130 OFFCURVE",
"457 135 CURVE SMOOTH",
"457 151 OFFCURVE",
"458 166 OFFCURVE",
"458 179 CURVE SMOOTH",
"458 193 OFFCURVE",
"455 207 OFFCURVE",
"455 220 CURVE SMOOTH",
"455 235 OFFCURVE",
"459 250 OFFCURVE",
"454 261 CURVE",
"458 281 OFFCURVE",
"457 305 OFFCURVE",
"454 323 CURVE",
"458 337 OFFCURVE",
"456 352 OFFCURVE",
"455 365 CURVE",
"455 385 OFFCURVE",
"461 406 OFFCURVE",
"452 422 CURVE",
"450 423 OFFCURVE",
"450 424 OFFCURVE",
"449 425 CURVE",
"438 432 OFFCURVE",
"426 428 OFFCURVE",
"411 429 CURVE",
"396 429 OFFCURVE",
"384 430 OFFCURVE",
"375 424 CURVE",
"370 414 OFFCURVE",
"374 395 OFFCURVE",
"362 392 CURVE",
"350 391 OFFCURVE",
"347 400 OFFCURVE",
"340 405 CURVE",
"334 411 OFFCURVE",
"327 415 OFFCURVE",
"321 421 CURVE",
"304 430 OFFCURVE",
"277 431 OFFCURVE",
"255 436 CURVE",
"237 432 OFFCURVE",
"213 437 OFFCURVE",
"195 433 CURVE",
"187 432 OFFCURVE",
"182 428 OFFCURVE",
"176 425 CURVE",
"167 425 OFFCURVE",
"158 423 OFFCURVE",
"151 421 CURVE",
"141 414 LINE"
);
},
{
closed = 1;
nodes = (
"375 239 OFFCURVE",
"376 224 CURVE",
"378 224 OFFCURVE",
"378 223 OFFCURVE",
"378 222 CURVE",
"376 206 OFFCURVE",
"371 193 OFFCURVE",
"372 175 CURVE",
"371 167 OFFCURVE",
"363 167 OFFCURVE",
"364 157 CURVE",
"362 151 OFFCURVE",
"359 145 OFFCURVE",
"357 138 CURVE",
"345 122 OFFCURVE",
"330 108 OFFCURVE",
"315 94 CURVE",
"298 87 OFFCURVE",
"280 81 OFFCURVE",
"260 77 CURVE",
"245 81 OFFCURVE",
"235 81 OFFCURVE",
"217 80 CURVE",
"202 87 OFFCURVE",
"188 96 OFFCURVE",
"171 102 CURVE",
"167 112 OFFCURVE",
"158 117 OFFCURVE",
"151 124 CURVE",
"145 134 OFFCURVE",
"140 145 OFFCURVE",
"134 154 CURVE",
"131 165 OFFCURVE",
"128 174 OFFCURVE",
"124 183 CURVE",
"124 204 OFFCURVE",
"120 223 OFFCURVE",
"123 241 CURVE",
"124 250 OFFCURVE",
"128 259 OFFCURVE",
"130 268 CURVE",
"132 272 OFFCURVE",
"134 276 OFFCURVE",
"135 280 CURVE",
"137 286 OFFCURVE",
"136 290 OFFCURVE",
"138 295 CURVE",
"140 298 OFFCURVE",
"145 301 OFFCURVE",
"145 306 CURVE",
"160 319 OFFCURVE",
"173 336 OFFCURVE",
"190 348 CURVE",
"207 351 OFFCURVE",
"222 356 OFFCURVE",
"238 359 CURVE",
"252 356 OFFCURVE",
"273 359 OFFCURVE",
"286 354 CURVE",
"298 351 OFFCURVE",
"306 344 OFFCURVE",
"318 340 CURVE",
"325 333 OFFCURVE",
"333 327 OFFCURVE",
"342 321 CURVE",
"353 306 OFFCURVE",
"364 290 OFFCURVE",
"372 271 CURVE",
"372 254 OFFCURVE"
);
}
);
width = 519;
}
);
unicode = 0071;
},
{
glyphname = r;
layers = (
{
layerId = "7C3BCDA4-8F92-4DF1-91BA-B714BE37B8B5";
paths = (
{
closed = 1;
nodes = (
"282 368 OFFCURVE",
"280 392 CURVE",
"271 404 OFFCURVE",
"264 417 OFFCURVE",
"253 427 CURVE",
"242 430 OFFCURVE",
"229 432 OFFCURVE",
"217 435 CURVE",
"195 427 OFFCURVE",
"175 417 OFFCURVE",
"165 395 CURVE",
"166 386 OFFCURVE",
"164 380 OFFCURVE",
"162 373 CURVE",
"165 367 OFFCURVE",
"164 356 OFFCURVE",
"167 348 CURVE",
"170 343 OFFCURVE",
"174 337 OFFCURVE",
"176 331 CURVE",
"183 328 OFFCURVE",
"187 322 OFFCURVE",
"194 318 CURVE",
"205 317 OFFCURVE",
"216 311 OFFCURVE",
"228 312 CURVE SMOOTH",
"239 313 OFFCURVE",
"248 319 OFFCURVE",
"258 321 CURVE",
"261 324 OFFCURVE",
"264 328 OFFCURVE",
"268 331 CURVE",
"285 341 OFFCURVE"
);
},
{
closed = 1;
nodes = (
"56 80 OFFCURVE",
"58 76 OFFCURVE",
"58 72 CURVE SMOOTH",
"58 53 OFFCURVE",
"53 38 OFFCURVE",
"60 22 CURVE",
"67 14 OFFCURVE",
"78 10 OFFCURVE",
"94 11 CURVE",
"110 11 OFFCURVE",
"126 10 OFFCURVE",
"137 16 CURVE",
"139 20 OFFCURVE",
"140 23 OFFCURVE",
"140 30 CURVE SMOOTH",
"140 34 OFFCURVE",
"136 39 OFFCURVE",
"137 44 CURVE",
"141 60 OFFCURVE",
"136 76 OFFCURVE",
"137 91 CURVE SMOOTH",
"138 110 OFFCURVE",
"139 140 OFFCURVE",
"135 157 CURVE",
"138 166 OFFCURVE",
"139 176 OFFCURVE",
"138 186 CURVE",
"138 193 OFFCURVE",
"139 206 OFFCURVE",
"137 216 CURVE",
"139 220 OFFCURVE",
"138 228 OFFCURVE",
"140 233 CURVE",
"135 244 OFFCURVE",
"141 263 OFFCURVE",
"137 277 CURVE",
"136 284 OFFCURVE",
"141 286 OFFCURVE",
"142 291 CURVE",
"130 305 OFFCURVE",
"143 327 OFFCURVE",
"142 345 CURVE",
"139 347 OFFCURVE",
"141 352 OFFCURVE",
"138 354 CURVE",
"136 371 OFFCURVE",
"141 389 OFFCURVE",
"140 403 CURVE",
"140 410 OFFCURVE",
"139 418 OFFCURVE",
"135 424 CURVE",
"126 430 OFFCURVE",
"110 426 OFFCURVE",
"99 424 CURVE",
"87 426 OFFCURVE",
"75 431 OFFCURVE",
"64 425 CURVE",
"59 422 OFFCURVE",
"61 415 OFFCURVE",
"60 410 CURVE SMOOTH",
"55 388 OFFCURVE",
"60 366 OFFCURVE",
"60 342 CURVE",
"59 316 OFFCURVE",
"58 290 OFFCURVE",
"61 266 CURVE",
"55 243 OFFCURVE",
"64 204 OFFCURVE",
"58 181 CURVE",
"62 165 OFFCURVE",
"59 149 OFFCURVE",
"58 134 CURVE",
"58 124 OFFCURVE",
"60 115 OFFCURVE",
"60 105 CURVE",
"56 83 LINE"
);
}
);
width = 299;
}
);
unicode = 0072;
},
{
glyphname = s;
layers = (
{
layerId = "7C3BCDA4-8F92-4DF1-91BA-B714BE37B8B5";
paths = (
{
closed = 1;
nodes = (
"53 354 OFFCURVE",
"45 343 OFFCURVE",
"42 328 CURVE",
"44 309 OFFCURVE",
"47 291 OFFCURVE",
"48 271 CURVE",
"63 232 OFFCURVE",
"102 216 OFFCURVE",
"138 197 CURVE",
"162 193 OFFCURVE",
"178 181 OFFCURVE",
"198 172 CURVE",
"206 163 OFFCURVE",
"217 156 OFFCURVE",
"222 144 CURVE",
"229 95 OFFCURVE",
"198 84 OFFCURVE",
"167 77 CURVE",
"152 76 OFFCURVE",
"143 80 OFFCURVE",
"132 82 CURVE",
"127 86 OFFCURVE",
"123 90 OFFCURVE",
"116 92 CURVE",
"108 100 OFFCURVE",
"100 110 OFFCURVE",
"92 117 CURVE",
"89 120 OFFCURVE",
"87 124 OFFCURVE",
"81 123 CURVE",
"68 125 OFFCURVE",
"65 116 OFFCURVE",
"55 114 CURVE",
"47 114 OFFCURVE",
"25 98 OFFCURVE",
"25 89 CURVE SMOOTH",
"25 76 OFFCURVE",
"35 65 OFFCURVE",
"45 55 CURVE SMOOTH",
"55 45 OFFCURVE",
"66 37 OFFCURVE",
"72 29 CURVE",
"90 25 OFFCURVE",
"99 13 OFFCURVE",
"118 10 CURVE",
"132 6 OFFCURVE",
"150 6 OFFCURVE",
"163 7 CURVE SMOOTH",
"176 8 OFFCURVE",
"198 11 OFFCURVE",
"219 16 CURVE SMOOTH",
"233 19 OFFCURVE",
"242 28 OFFCURVE",
"253 32 CURVE",
"254 33 OFFCURVE",
"255 34 OFFCURVE",
"256 33 CURVE",
"258 37 OFFCURVE",
"261 39 OFFCURVE",
"264 41 CURVE",
"265 46 OFFCURVE",
"272 45 OFFCURVE",
"272 51 CURVE",
"280 55 OFFCURVE",
"279 68 OFFCURVE",
"288 71 CURVE",
"291 81 OFFCURVE",
"297 87 OFFCURVE",
"300 96 CURVE",
"301 105 OFFCURVE",
"303 113 OFFCURVE",
"302 123 CURVE",
"304 124 OFFCURVE",
"303 125 OFFCURVE",
"302 128 CURVE",
"300 137 OFFCURVE",
"300 151 OFFCURVE",
"300 163 CURVE",
"295 180 OFFCURVE",
"287 194 OFFCURVE",
"278 208 CURVE",
"270 216 OFFCURVE",
"260 223 OFFCURVE",
"250 230 CURVE",
"242 239 OFFCURVE",
"228 242 OFFCURVE",
"220 251 CURVE",
"186 261 OFFCURVE",
"151 271 OFFCURVE",
"126 290 CURVE",
"123 299 OFFCURVE",
"115 302 OFFCURVE",
"114 312 CURVE SMOOTH",
"112 327 OFFCURVE",
"119 332 OFFCURVE",
"121 342 CURVE",
"133 351 OFFCURVE",
"149 365 OFFCURVE",
"171 364 CURVE SMOOTH",
"193 363 OFFCURVE",
"215 338 OFFCURVE",
"221 332 CURVE SMOOTH",
"227 326 OFFCURVE",
"240 335 OFFCURVE",
"252 339 CURVE",
"258 342 OFFCURVE",
"266 342 OFFCURVE",
"269 349 CURVE",
"271 362 OFFCURVE",
"265 368 OFFCURVE",
"261 375 CURVE",
"255 383 OFFCURVE",
"253 391 OFFCURVE",
"247 397 CURVE SMOOTH",
"240 404 OFFCURVE",
"230 406 OFFCURVE",
"223 413 CURVE",
"215 419 OFFCURVE",
"205 421 OFFCURVE",
"196 426 CURVE",
"178 426 OFFCURVE",
"167 429 OFFCURVE",
"148 431 CURVE",
"138 429 OFFCURVE",
"116 426 OFFCURVE",
"105 420 CURVE SMOOTH",
"94 414 OFFCURVE",
"89 406 OFFCURVE",
"80 401 CURVE",
"56 369 LINE"
);
}
);
width = 323;
}
);
unicode = 0073;
},
{
glyphname = t;
layers = (
{
layerId = "7C3BCDA4-8F92-4DF1-91BA-B714BE37B8B5";
paths = (
{
closed = 1;
nodes = (
"152 228 OFFCURVE",
"153 234 OFFCURVE",
"153 241 CURVE SMOOTH",
"153 255 OFFCURVE",
"151 269 OFFCURVE",
"150 282 CURVE",
"150 297 OFFCURVE",
"151 310 OFFCURVE",
"152 324 CURVE",
"152 335 OFFCURVE",
"149 346 OFFCURVE",
"155 356 CURVE",
"179 360 OFFCURVE",
"206 351 OFFCURVE",
"229 356 CURVE",
"235 362 OFFCURVE",
"236 373 OFFCURVE",
"237 384 CURVE",
"231 396 OFFCURVE",
"237 419 OFFCURVE",
"227 427 CURVE",
"205 432 OFFCURVE",
"174 422 OFFCURVE",
"155 432 CURVE",
"144 450 OFFCURVE",
"154 479 OFFCURVE",
"147 501 CURVE",
"150 520 OFFCURVE",
"157 554 OFFCURVE",
"147 575 CURVE",
"138 579 OFFCURVE",
"125 577 OFFCURVE",
"111 577 CURVE SMOOTH",
"97 577 OFFCURVE",
"83 578 OFFCURVE",
"71 575 CURVE",
"70 568 OFFCURVE",
"67 560 OFFCURVE",
"67 551 CURVE",
"66 538 OFFCURVE",
"71 523 OFFCURVE",
"71 507 CURVE SMOOTH",
"71 493 OFFCURVE",
"70 480 OFFCURVE",
"70 466 CURVE SMOOTH",
"70 454 OFFCURVE",
"72 438 OFFCURVE",
"62 430 CURVE",
"51 425 OFFCURVE",
"39 430 OFFCURVE",
"29 424 CURVE",
"23 413 OFFCURVE",
"27 396 OFFCURVE",
"26 384 CURVE",
"26 375 OFFCURVE",
"24 373 OFFCURVE",
"26 365 CURVE",
"29 361 OFFCURVE",
"28 352 OFFCURVE",
"35 351 CURVE",
"45 348 OFFCURVE",
"56 361 OFFCURVE",
"68 354 CURVE",
"74 346 OFFCURVE",
"70 335 OFFCURVE",
"70 326 CURVE SMOOTH",
"70 309 OFFCURVE",
"73 293 OFFCURVE",
"75 276 CURVE",
"73 269 OFFCURVE",
"72 263 OFFCURVE",
"70 258 CURVE",
"75 247 OFFCURVE",
"72 235 OFFCURVE",
"71 224 CURVE",
"70 205 OFFCURVE",
"73 185 OFFCURVE",
"73 165 CURVE SMOOTH",
"73 161 OFFCURVE",
"71 156 OFFCURVE",
"71 153 CURVE SMOOTH",
"71 148 OFFCURVE",
"73 143 OFFCURVE",
"73 138 CURVE SMOOTH",
"73 133 OFFCURVE",
"71 128 OFFCURVE",
"71 123 CURVE",
"72 105 OFFCURVE",
"74 88 OFFCURVE",
"73 71 CURVE",
"73 66 OFFCURVE",
"70 61 OFFCURVE",
"70 57 CURVE",
"69 50 OFFCURVE",
"72 43 OFFCURVE",
"70 36 CURVE",
"73 30 OFFCURVE",
"75 22 OFFCURVE",
"79 17 CURVE",
"104 13 OFFCURVE",
"138 12 OFFCURVE",
"155 25 CURVE",
"159 38 OFFCURVE",
"155 52 OFFCURVE",
"152 63 CURVE",
"156 79 OFFCURVE",
"150 93 OFFCURVE",
"150 107 CURVE SMOOTH",
"150 115 OFFCURVE",
"152 124 OFFCURVE",
"152 132 CURVE SMOOTH",
"152 158 OFFCURVE",
"150 187 OFFCURVE",
"152 213 CURVE",
"152 220 LINE SMOOTH"
);
}
);
width = 263;
}
);
unicode = 0074;
},
{
glyphname = u;
layers = (
{
layerId = "7C3BCDA4-8F92-4DF1-91BA-B714BE37B8B5";
paths = (
{
closed = 1;
nodes = (
"41 412 OFFCURVE",
"37 403 CURVE",
"36 390 OFFCURVE",
"37 379 OFFCURVE",
"38 367 CURVE",
"38 360 OFFCURVE",
"35 354 OFFCURVE",
"35 347 CURVE SMOOTH",
"35 340 OFFCURVE",
"37 334 OFFCURVE",
"37 328 CURVE SMOOTH",
"37 321 OFFCURVE",
"35 315 OFFCURVE",
"35 309 CURVE SMOOTH",
"35 293 OFFCURVE",
"38 279 OFFCURVE",
"38 263 CURVE SMOOTH",
"38 257 OFFCURVE",
"37 252 OFFCURVE",
"37 246 CURVE",
"36 240 OFFCURVE",
"38 234 OFFCURVE",
"38 228 CURVE SMOOTH",
"38 208 OFFCURVE",
"38 189 OFFCURVE",
"35 172 CURVE",
"37 158 OFFCURVE",
"41 146 OFFCURVE",
"40 129 CURVE",
"46 116 OFFCURVE",
"52 105 OFFCURVE",
"56 90 CURVE",
"68 73 OFFCURVE",
"80 56 OFFCURVE",
"95 44 CURVE SMOOTH",
"100 40 OFFCURVE",
"107 37 OFFCURVE",
"111 31 CURVE",
"129 25 OFFCURVE",
"144 15 OFFCURVE",
"163 9 CURVE",
"202 6 OFFCURVE",
"231 12 OFFCURVE",
"268 14 CURVE",
"285 18 OFFCURVE",
"300 25 OFFCURVE",
"316 31 CURVE",
"327 40 OFFCURVE",
"336 51 OFFCURVE",
"350 58 CURVE",
"354 68 OFFCURVE",
"360 76 OFFCURVE",
"366 83 CURVE",
"370 93 OFFCURVE",
"373 104 OFFCURVE",
"379 112 CURVE",
"384 120 OFFCURVE",
"385 133 OFFCURVE",
"390 142 CURVE",
"390 175 OFFCURVE",
"397 214 OFFCURVE",
"388 243 CURVE",
"394 255 OFFCURVE",
"389 269 OFFCURVE",
"390 285 CURVE",
"390 293 OFFCURVE",
"394 296 OFFCURVE",
"394 304 CURVE SMOOTH",
"394 306 OFFCURVE",
"392 306 OFFCURVE",
"393 309 CURVE",
"391 327 OFFCURVE",
"393 349 OFFCURVE",
"393 367 CURVE SMOOTH",
"393 375 OFFCURVE",
"391 382 OFFCURVE",
"391 389 CURVE SMOOTH",
"391 402 OFFCURVE",
"395 415 OFFCURVE",
"390 425 CURVE",
"380 431 OFFCURVE",
"364 430 OFFCURVE",
"349 430 CURVE SMOOTH",
"334 430 OFFCURVE",
"318 430 OFFCURVE",
"309 424 CURVE",
"305 411 OFFCURVE",
"309 399 OFFCURVE",
"309 386 CURVE SMOOTH",
"309 368 OFFCURVE",
"305 350 OFFCURVE",
"311 334 CURVE",
"307 294 OFFCURVE",
"312 252 OFFCURVE",
"311 211 CURVE SMOOTH",
"311 193 OFFCURVE",
"307 176 OFFCURVE",
"308 159 CURVE",
"305 150 OFFCURVE",
"300 143 OFFCURVE",
"298 132 CURVE",
"294 128 OFFCURVE",
"290 125 OFFCURVE",
"289 118 CURVE",
"283 113 OFFCURVE",
"277 109 OFFCURVE",
"272 104 CURVE",
"266 99 OFFCURVE",
"261 93 OFFCURVE",
"254 90 CURVE",
"242 87 OFFCURVE",
"230 84 OFFCURVE",
"219 79 CURVE",
"211 82 OFFCURVE",
"198 83 OFFCURVE",
"188 85 CURVE",
"179 89 OFFCURVE",
"169 92 OFFCURVE",
"158 94 CURVE",
"151 102 OFFCURVE",
"147 111 OFFCURVE",
"139 118 CURVE",
"136 129 OFFCURVE",
"127 135 OFFCURVE",
"123 146 CURVE",
"122 150 OFFCURVE",
"122 156 OFFCURVE",
"120 159 CURVE",
"121 170 OFFCURVE",
"119 184 OFFCURVE",
"122 192 CURVE",
"116 236 OFFCURVE",
"120 287 OFFCURVE",
"119 331 CURVE",
"118 348 OFFCURVE",
"118 365 OFFCURVE",
"119 381 CURVE",
"119 396 OFFCURVE",
"125 416 OFFCURVE",
"114 425 CURVE SMOOTH",
"106 432 OFFCURVE",
"92 428 OFFCURVE",
"79 429 CURVE",
"68 429 OFFCURVE",
"58 431 OFFCURVE",
"49 429 CURVE",
"42 423 OFFCURVE"
);
}
);
width = 447;
}
);
unicode = 0075;
},
